<svg width="20" height="20" viewBox="0 0 20 20" fill="none" xmlns="http://www.w3.org/2000/svg">
<path fill-rule="evenodd" clip-rule="evenodd" d="M10.7756 8.86532C10.7756 8.5821 11.0052 8.3525 11.2884 8.3525H13.8525C14.1357 8.3525 14.3653 8.5821 14.3653 8.86532C14.3653 9.14855 14.1357 9.37814 13.8525 9.37814H11.2884C11.0052 9.37814 10.7756 9.14855 10.7756 8.86532Z" fill="white"/>
<path fill-rule="evenodd" clip-rule="evenodd" d="M10.7756 10.9166C10.7756 10.6334 11.0052 10.4038 11.2884 10.4038H13.8525C14.1357 10.4038 14.3653 10.6334 14.3653 10.9166C14.3653 11.1998 14.1357 11.4294 13.8525 11.4294H11.2884C11.0052 11.4294 10.7756 11.1998 10.7756 10.9166Z" fill="white"/>
<path fill-rule="evenodd" clip-rule="evenodd" d="M7.44864 8.3525C6.88219 8.3525 6.423 8.8117 6.423 9.37814C6.423 9.94459 6.88219 10.4038 7.44864 10.4038C8.01508 10.4038 8.47428 9.94459 8.47428 9.37814C8.47428 8.8117 8.01508 8.3525 7.44864 8.3525ZM5.39735 9.37814C5.39735 8.24525 6.31574 7.32686 7.44864 7.32686C8.58153 7.32686 9.49992 8.24525 9.49992 9.37814C9.49992 10.511 8.58153 11.4294 7.44864 11.4294C6.31574 11.4294 5.39735 10.511 5.39735 9.37814Z" fill="white"/>
<path fill-rule="evenodd" clip-rule="evenodd" d="M7.44864 11.4254C7.10703 11.4254 6.77514 11.5391 6.50529 11.7486C6.23544 11.958 6.04298 12.2513 5.95825 12.5823C5.888 12.8566 5.60863 13.0221 5.33426 12.9519C5.05989 12.8816 4.89441 12.6022 4.96466 12.3279C5.10588 11.7763 5.42665 11.2875 5.8764 10.9384C6.32615 10.5893 6.8793 10.3998 7.44864 10.3998C8.01798 10.3998 8.57112 10.5893 9.02087 10.9384C9.47062 11.2875 9.79139 11.7763 9.93261 12.3279C10.0029 12.6022 9.83739 12.8816 9.56301 12.9519C9.28864 13.0221 9.00927 12.8566 8.93902 12.5823C8.85429 12.2513 8.66183 11.958 8.39198 11.7486C8.12213 11.5391 7.79024 11.4254 7.44864 11.4254Z" fill="white"/>
<path fill-rule="evenodd" clip-rule="evenodd" d="M3.08325 5.27558C3.08325 4.70913 3.54245 4.24994 4.10889 4.24994H15.3909C15.9574 4.24994 16.4166 4.70913 16.4166 5.27558V14.5063C16.4166 15.0728 15.9574 15.532 15.3909 15.532H4.10889C3.54245 15.532 3.08325 15.0728 3.08325 14.5063V5.27558ZM15.3909 5.27558H4.10889V14.5063H15.3909V5.27558Z" fill="white"/>
</svg>
