<svg width="121" height="171" viewBox="0 0 121 171" fill="none" xmlns="http://www.w3.org/2000/svg">
<path opacity="0.33" fill-rule="evenodd" clip-rule="evenodd" d="M39.6864 130.501H27.1059V144.339L13.2673 144.339L13.2673 156.92H27.1059V170.758H39.6864V156.92H53.5252V144.339L39.6864 144.339V130.501Z" fill="#00CAF0"/>
<path opacity="0.33" fill-rule="evenodd" clip-rule="evenodd" d="M75.7185 0.787354H69.908V7.17885L63.5165 7.17885L63.5165 12.9893H69.908V19.3809H75.7185V12.9893H82.11V7.17885L75.7185 7.17885V0.787354Z" fill="#00CAF0"/>
<path opacity="0.33" fill-rule="evenodd" clip-rule="evenodd" d="M110.628 111.024H101.549V121.011H91.5626L91.5626 130.09H101.549V140.076H110.628V130.09H120.615V121.011H110.628V111.024Z" fill="#00CAF0"/>
<path opacity="0.33" fill-rule="evenodd" clip-rule="evenodd" d="M73.3234 70.1235H65.1291V79.1372H56.1155L56.1155 87.3315H65.1291V96.3453H73.3234V87.3315H82.3373V79.1372H73.3234V70.1235Z" fill="#00CAF0"/>
<path opacity="0.33" fill-rule="evenodd" clip-rule="evenodd" d="M8.80167 102.844H4.80697V107.238H0.412842L0.412842 111.233H4.80697V115.627H8.80167V111.233H13.1959V107.238H8.80167V102.844Z" fill="#00CAF0"/>
</svg>
