<svg width="24" height="20" viewBox="0 0 24 20" fill="none" xmlns="http://www.w3.org/2000/svg">
<path d="M1.44496 8.71005C1.44496 8.71005 11.8689 4.31967 15.4841 2.77372C16.8699 2.15538 21.5697 0.176548 21.5697 0.176548C21.5697 0.176548 23.7389 -0.689117 23.5581 1.4133C23.4978 2.27905 23.0158 5.30901 22.5338 8.58638C21.8107 13.2242 21.0274 18.2948 21.0274 18.2948C21.0274 18.2948 20.9069 19.717 19.8826 19.9644C18.8583 20.2117 17.1711 19.0987 16.8699 18.8513C16.6289 18.6658 12.3509 15.8831 10.7843 14.5227C10.3625 14.1517 9.8805 13.4097 10.8445 12.544C13.0137 10.5033 15.6046 7.96805 17.1711 6.3603C17.8942 5.61822 18.6172 3.8868 15.6046 5.98921C11.3266 9.01926 7.10882 11.8638 7.10882 11.8638C7.10882 11.8638 6.14473 12.4821 4.33714 11.9255C2.52947 11.3691 0.420584 10.627 0.420584 10.627C0.420584 10.627 -1.02542 9.69947 1.44496 8.71005Z" fill="#B2ABF2"/>
</svg>
