<svg width="37" height="20" viewBox="0 0 37 20" fill="none" xmlns="http://www.w3.org/2000/svg">
<path fill-rule="evenodd" clip-rule="evenodd" d="M35.6158 1.35427C35.8654 0.573623 35.6158 0 34.4281 0H30.5007C29.5021 0 29.0417 0.495525 28.792 1.04195C28.792 1.04195 26.7947 5.60867 23.9654 8.57505C23.05 9.43373 22.6339 9.70694 22.1346 9.70694C21.885 9.70694 21.5236 9.43373 21.5236 8.65315V1.35427C21.5236 0.417495 21.2338 0 20.4015 0H14.2298C13.6057 0 13.2304 0.434779 13.2304 0.846835C13.2304 1.73488 14.645 1.93967 14.7909 4.43773V9.86313C14.7909 11.0526 14.5619 11.2683 14.0625 11.2683C12.7311 11.2683 9.49242 6.68117 7.57157 1.4323C7.19513 0.412106 6.81756 0 5.81382 0H1.88636C0.764233 0 0.539795 0.495525 0.539795 1.04195C0.539795 2.01777 1.87129 6.8577 6.73945 13.2589C9.98487 17.6303 14.5575 20 18.7183 20C21.2148 20 21.5236 19.4737 21.5236 18.5671V15.2632C21.5236 14.2105 21.7601 14.0005 22.5507 14.0005C23.1332 14.0005 24.1318 14.2737 26.4619 16.3814C29.1249 18.8794 29.5639 20 31.0617 20H34.9892C36.1113 20 36.6724 19.4737 36.3487 18.435C35.9945 17.3998 34.7231 15.8979 33.0361 14.1175C32.1207 13.1027 30.7476 12.0099 30.3315 11.4633C29.749 10.7609 29.9154 10.4485 30.3315 9.82408C30.3315 9.82408 35.1165 3.50096 35.6158 1.35427Z" fill="#B2ABF2"/>
</svg>
