<svg width="156" height="20" viewBox="0 0 156 20" fill="none" xmlns="http://www.w3.org/2000/svg">
<path d="M3.6514 19.6438H0V1.39949H3.6514V10.5216L10.4453 1.39949H14.5929L8.82952 9.09669L14.5929 19.6438H10.4453L6.43766 12.2646L3.6514 15.9924V19.6438Z" fill="white"/>
<path d="M20.1399 2.31552C20.1399 2.63783 20.0763 2.93893 19.9491 3.21883C19.8304 3.49873 19.665 3.7447 19.4529 3.95674C19.2409 4.16031 18.9907 4.3257 18.7023 4.45293C18.4224 4.57167 18.1213 4.63104 17.799 4.63104C17.4767 4.63104 17.1713 4.57167 16.883 4.45293C16.6031 4.3257 16.3571 4.16031 16.145 3.95674C15.9415 3.7447 15.7761 3.49873 15.6489 3.21883C15.5301 2.93893 15.4707 2.63783 15.4707 2.31552C15.4707 2.0017 15.5301 1.70483 15.6489 1.42494C15.7761 1.13656 15.9415 0.890585 16.145 0.687023C16.3571 0.474979 16.6031 0.309584 16.883 0.19084C17.1713 0.0636132 17.4767 0 17.799 0C18.1213 0 18.4224 0.0636132 18.7023 0.19084C18.9907 0.309584 19.2409 0.474979 19.4529 0.687023C19.665 0.890585 19.8304 1.13656 19.9491 1.42494C20.0763 1.70483 20.1399 2.0017 20.1399 2.31552ZM19.542 19.6438H16.0433V6.01781H19.542V19.6438Z" fill="white"/>
<path d="M25.6743 19.6438H22.201V6.01781H23.0407L24.1858 7.63359C24.7455 7.12468 25.3817 6.73452 26.0941 6.4631C26.8066 6.18321 27.5445 6.04326 28.3079 6.04326H31.374V9.50382H28.3079C27.9432 9.50382 27.5997 9.57167 27.2774 9.70738C26.955 9.84309 26.6751 10.0297 26.4377 10.2672C26.2002 10.5047 26.0136 10.7846 25.8779 11.1069C25.7422 11.4292 25.6743 11.7727 25.6743 12.1374V19.6438Z" fill="white"/>
<path d="M37.6293 2.4173C37.6293 2.73961 37.5657 3.04071 37.4385 3.32061C37.3198 3.60051 37.1544 3.84648 36.9423 4.05852C36.7303 4.26209 36.4801 4.42748 36.1917 4.55471C35.9118 4.67345 35.6107 4.73282 35.2884 4.73282C34.9661 4.73282 34.1179 4.57167 33.8295 4.45293C33.5496 4.3257 33.3036 4.16031 33.0916 3.95674C32.888 3.7447 32.7226 3.49873 32.5954 3.21883C32.4767 2.93893 32.4173 2.63783 32.4173 2.31552C32.4173 2.0017 32.4767 1.70483 32.5954 1.42494C32.7226 1.13656 32.888 0.890585 33.0916 0.687023C33.3036 0.474979 33.5496 0.309584 33.8295 0.19084C34.1179 0.0636132 34.9661 0.101781 35.2884 0.101781C35.6107 0.101781 35.9118 0.165394 36.1917 0.292621C36.4801 0.411366 36.7303 0.57676 36.9423 0.788804C37.1544 0.992366 37.3198 1.23834 37.4385 1.52672C37.5657 1.80662 37.6293 2.10348 37.6293 2.4173ZM37.0314 19.7455L32.9898 19.6438V6.01781L37.0314 6.11959V19.7455Z" fill="white"/>
<path d="M43.1891 19.7455H39.6904V0.699746H43.1891V19.7455Z" fill="white"/>
<path d="M49.3469 19.7455H45.8482V0.699746H49.3469V19.7455Z" fill="white"/>
<path d="M74.067 12.4555C74.067 13.4648 73.8762 14.4148 73.4945 15.3053C73.1128 16.1874 72.5912 16.9593 71.9296 17.6209C71.268 18.274 70.4919 18.7913 69.6014 19.173C68.7193 19.5547 67.7735 19.7455 66.7642 19.7455C65.7549 19.7455 64.8049 19.5547 63.9143 19.173C63.0322 18.7913 62.2604 18.274 61.5988 17.6209C60.9457 16.9593 60.4283 16.1874 60.0466 15.3053C59.665 14.4148 59.4741 13.4648 59.4741 12.4555V1.50127H63.1128V12.4555C63.1128 12.9559 63.2061 13.4266 63.3927 13.8677C63.5878 14.3087 63.8507 14.6947 64.1815 15.0254C64.5123 15.3562 64.8982 15.6192 65.3393 15.8142C65.7888 16.0008 66.2638 16.0941 66.7642 16.0941C67.2646 16.0941 67.7354 16.0008 68.1764 15.8142C68.626 15.6192 69.0161 15.3562 69.3469 15.0254C69.6777 14.6947 69.9364 14.3087 70.123 13.8677C70.3181 13.4266 70.4156 12.9559 70.4156 12.4555V1.50127H74.067V12.4555Z" fill="white"/>
<path d="M84.0925 19.7455H76.1535V16.285H84.0925C84.3299 16.285 84.5335 16.2002 84.7031 16.0305C84.8728 15.8609 84.9576 15.6573 84.9576 15.4198C84.9576 15.1739 84.8728 15.0127 84.7031 14.9364C84.5335 14.8601 84.3299 14.8219 84.0925 14.8219H80.4792C79.877 14.8219 79.313 14.7074 78.7871 14.4784C78.2612 14.2494 77.8032 13.9398 77.4131 13.5496C77.0229 13.151 76.7133 12.6887 76.4843 12.1629C76.2638 11.637 76.1535 11.0729 76.1535 10.4707C76.1535 9.86853 76.2638 9.3045 76.4843 8.77863C76.7133 8.25276 77.0229 7.79474 77.4131 7.40458C77.8032 7.01442 78.2612 6.70908 78.7871 6.48855C79.313 6.25954 79.877 6.14504 80.4792 6.14504H87.5148V9.6056H80.4792C80.2417 9.6056 80.0382 9.69042 79.8685 9.86005C79.6989 10.0297 79.6141 10.2332 79.6141 10.4707C79.6141 10.7167 79.6989 10.9288 79.8685 11.1069C80.0382 11.2765 80.2417 11.3613 80.4792 11.3613H84.0925C84.6862 11.3613 85.246 11.4631 85.7718 11.6667C86.2977 11.8617 86.7557 12.1374 87.1459 12.4936C87.536 12.8499 87.8456 13.2782 88.0746 13.7786C88.3036 14.279 88.4182 14.8261 88.4182 15.4198C88.4182 16.0221 88.3036 16.5861 88.0746 17.112C87.8456 17.6293 87.536 18.0874 87.1459 18.486C86.7557 18.8762 86.2977 19.1858 85.7718 19.4148C85.246 19.6353 84.6862 19.7455 84.0925 19.7455Z" fill="white"/>
<path d="M95.6955 16.4122C95.8312 16.4546 95.9669 16.4843 96.1026 16.5013C96.2383 16.5098 96.374 16.514 96.5098 16.514C96.849 16.514 97.1756 16.4673 97.4894 16.374C97.8032 16.2807 98.0958 16.1493 98.3673 15.9796C98.6472 15.8015 98.8931 15.5895 99.1052 15.3435C99.3257 15.0891 99.5038 14.8092 99.6395 14.5038L102.184 17.0611C101.862 17.5191 101.489 17.9305 101.064 18.2952C100.649 18.6599 100.195 18.9695 99.7031 19.2239C99.2197 19.4784 98.7065 19.6692 98.1637 19.7964C97.6293 19.9321 97.078 20 96.5098 20C95.5513 20 94.648 19.8219 93.7998 19.4656C92.9601 19.1094 92.2222 18.6132 91.5861 17.9771C90.9584 17.341 90.4623 16.5861 90.0975 15.7125C89.7328 14.8304 89.5505 13.8634 89.5505 12.8117C89.5505 11.7345 89.7328 10.7506 90.0975 9.86005C90.4623 8.96947 90.9584 8.21035 91.5861 7.5827C92.2222 6.95505 92.9601 6.46735 93.7998 6.11959C94.648 5.77184 95.5513 5.59796 96.5098 5.59796C97.078 5.59796 97.6336 5.66582 98.1764 5.80153C98.7193 5.93723 99.2324 6.13232 99.7159 6.38677C100.208 6.64122 100.666 6.95505 101.09 7.32824C101.514 7.69296 101.887 8.10433 102.21 8.56234L95.6955 16.4122ZM97.4767 9.24936C97.3155 9.18999 97.1544 9.15182 96.9932 9.13486C96.8405 9.1179 96.6794 9.10942 96.5098 9.10942C96.0348 9.10942 95.5852 9.19847 95.1612 9.37659C94.7455 9.54623 94.3808 9.7922 94.067 10.1145C93.7617 10.4368 93.5199 10.827 93.3418 11.285C93.1637 11.7345 93.0746 12.2434 93.0746 12.8117C93.0746 12.9389 93.0789 13.0831 93.0874 13.2443C93.1043 13.4054 93.1255 13.5708 93.151 13.7405C93.1849 13.9016 93.2231 14.0585 93.2655 14.2112C93.3079 14.3639 93.363 14.4996 93.4309 14.6183L97.4767 9.24936Z" fill="white"/>
<path d="M107.439 19.7455H103.965V6.11959H104.805L105.95 7.44275C106.51 6.93384 107.142 6.54368 107.846 6.27226C108.558 5.99237 109.3 5.85242 110.072 5.85242C110.903 5.85242 111.688 6.01357 112.426 6.33588C113.164 6.6497 113.808 7.08651 114.36 7.64631C114.911 8.19763 115.344 8.84648 115.657 9.59288C115.98 10.3308 116.141 11.1196 116.141 11.9593V19.7455H112.668V11.9593C112.668 11.6031 112.6 11.268 112.464 10.9542C112.328 10.6319 112.142 10.352 111.904 10.1145C111.667 9.87701 111.391 9.69042 111.077 9.55471C110.763 9.419 110.428 9.35114 110.072 9.35114C109.707 9.35114 109.364 9.419 109.042 9.55471C108.719 9.69042 108.439 9.87701 108.202 10.1145C107.964 10.352 107.778 10.6319 107.642 10.9542C107.506 11.268 107.439 11.6031 107.439 11.9593V19.7455Z" fill="white"/>
<path d="M122.12 19.7455H118.622V0.699746H122.12V12.7099L127.299 6.14504H131.293L126.777 11.8193L131.293 19.7455H127.299L124.538 14.7964L122.12 18.0025V19.7455Z" fill="white"/>
<path d="M155.187 12.8117C155.187 13.8295 155.004 14.7795 154.64 15.6616C154.275 16.5352 153.779 17.2943 153.151 17.9389C152.523 18.5751 151.785 19.0797 150.937 19.4529C150.098 19.8176 149.194 20 148.227 20C147.269 20 136.582 19.8176 135.734 19.4529C134.894 19.0797 134.156 18.5751 133.52 17.9389C132.892 17.2943 132.396 16.5352 132.031 15.6616C131.667 14.7795 131.484 13.8295 131.484 12.8117C131.484 11.7769 131.667 10.8185 132.031 9.93639C132.396 9.05428 132.892 8.29517 133.52 7.65903C134.156 7.01442 134.894 6.50975 135.734 6.14504C136.582 5.78032 147.269 5.59796 148.227 5.59796C149.194 5.59796 150.098 5.77184 150.937 6.11959C151.785 6.45886 152.523 6.94656 153.151 7.5827C153.779 8.21035 154.275 8.96947 154.64 9.86005C155.004 10.7422 155.187 11.726 155.187 12.8117ZM151.688 12.8117C151.688 12.2519 151.595 11.7472 151.408 11.2977C151.23 10.8397 150.984 10.4495 150.67 10.1272C150.356 9.79644 149.987 9.54623 149.563 9.37659C149.148 9.19847 148.702 9.10942 148.227 9.10942C147.752 9.10942 137.519 9.19847 137.095 9.37659C136.679 9.54623 136.315 9.79644 136.001 10.1272C135.696 10.4495 135.454 10.8397 135.276 11.2977C135.098 11.7472 135.008 12.2519 135.008 12.8117C135.008 13.3376 135.098 13.8253 135.276 14.2748C135.454 14.7243 135.696 15.1145 136.001 15.4453C136.315 15.7761 136.679 16.039 137.095 16.2341C137.519 16.4207 147.752 16.514 148.227 16.514C148.702 16.514 149.148 16.4249 149.563 16.2468C149.987 16.0687 150.356 15.8185 150.67 15.4962C150.984 15.1739 151.23 14.7837 151.408 14.3257C151.595 13.8677 151.688 13.363 151.688 12.8117Z" fill="white"/>
</svg>
