<svg width="20" height="19" viewBox="0 0 20 19" fill="none" xmlns="http://www.w3.org/2000/svg">
<path d="M12.92 18.2397C11.496 18.2397 4.6799 18.0077 3.6559 17.5437C2.6319 17.0637 1.8319 16.3357 1.2559 15.3597C0.679898 14.3677 0.367898 13.1357 0.319898 11.6637C0.303898 10.9757 0.295898 10.2957 0.295898 9.62374C0.295898 8.95174 0.303898 8.26374 0.319898 7.55974C0.367898 6.10374 0.687899 4.88774 1.2799 3.91174C1.8719 2.93574 2.6799 2.19974 3.7039 1.70374C4.7439 1.20774 11.544 0.959717 12.92 0.959717C14.296 0.959717 15.504 1.20772 16.544 1.70372C17.584 2.19972 18.4 2.93572 18.992 3.91172C19.584 4.88772 19.904 6.10372 19.952 7.55972C19.984 8.26372 20 8.95172 20 9.62372C20 10.2957 19.984 10.9757 19.952 11.6637C19.904 13.1357 19.592 14.3677 19.016 15.3597C18.44 16.3357 17.632 17.0637 16.592 17.5437C15.568 18.0077 14.344 18.2397 12.92 18.2397ZM12.92 15.4797C13.96 15.4797 14.808 15.1757 15.464 14.5677C16.12 13.9437 16.472 12.9357 16.52 11.5437C16.552 10.8397 16.568 10.1917 16.568 9.59972C16.568 8.99172 16.552 8.34372 16.52 7.65572C16.488 6.72772 16.312 5.97572 15.992 5.39972C15.688 4.80772 15.272 4.38372 14.744 4.12772C14.216 3.85572 13.608 3.71972 12.92 3.71972C12.248 3.71972 6.0559 3.85574 5.5279 4.12774C4.9999 4.38374 4.5759 4.80774 4.2559 5.39974C3.9519 5.97574 3.7839 6.72774 3.7519 7.65574C3.7359 8.34374 3.7279 8.99174 3.7279 9.59974C3.7279 10.1917 3.7359 10.8397 3.7519 11.5437C3.7999 12.9357 4.1519 13.9437 4.8079 14.5677C5.4639 15.1757 11.896 15.4797 12.92 15.4797Z" fill="#63565C"/>
</svg>
