<svg width="624" height="479" viewBox="0 0 624 479" fill="none" xmlns="http://www.w3.org/2000/svg">
<path d="M361.498 337.265L325.787 364.397L428.755 429.865L440.991 420.569L404.526 397.384L428.001 379.549C445.501 366.253 444.934 346.037 426.552 334.35C408.17 322.662 378.998 323.97 361.498 337.265ZM415.149 371.377L391.674 389.212L350.875 363.272L374.35 345.437C385.021 337.33 402.958 336.424 414.316 343.646C425.525 350.772 425.82 363.27 415.149 371.377Z" fill="white"/>
<path d="M361.498 337.265L325.787 364.397L428.755 429.865L440.991 420.569L404.526 397.384L428.001 379.549C445.501 366.253 444.934 346.037 426.552 334.35C408.17 322.662 378.998 323.97 361.498 337.265ZM415.149 371.377L391.674 389.212L350.875 363.272L374.35 345.437C385.021 337.33 402.958 336.424 414.316 343.646C425.525 350.772 425.82 363.27 415.149 371.377Z" fill="white"/>
<path d="M361.498 337.265L325.787 364.397L428.755 429.865L440.991 420.569L404.526 397.384L428.001 379.549C445.501 366.253 444.934 346.037 426.552 334.35C408.17 322.662 378.998 323.97 361.498 337.265ZM415.149 371.377L391.674 389.212L350.875 363.272L374.35 345.437C385.021 337.33 402.958 336.424 414.316 343.646C425.525 350.772 425.82 363.27 415.149 371.377Z" fill="white"/>
<line y1="-1" x2="493.313" y2="-1" transform="matrix(0.866025 0.5 -0.866026 0.5 21.7422 220.301)" stroke="white" stroke-width="2"/>
<line y1="-1" x2="493.313" y2="-1" transform="matrix(0.866025 0.5 -0.866026 0.5 141.775 151)" stroke="white" stroke-width="2"/>
<line y1="-1" x2="493.313" y2="-1" transform="matrix(0.866025 0.5 -0.866026 0.5 261.808 81.6991)" stroke="white" stroke-width="2"/>
<line y1="-1" x2="493.313" y2="-1" transform="matrix(0.866025 0.5 -0.866026 0.5 381.84 12.3982)" stroke="white" stroke-width="2"/>
<line y1="-1" x2="416.204" y2="-1" transform="matrix(0.867525 -0.499133 0.864523 0.500866 234.958 343.401)" stroke="white" stroke-width="2"/>
<line y1="-1" x2="45.5927" y2="-1" transform="matrix(0.866025 -0.5 0.866025 0.5 429.222 478.356)" stroke="white" stroke-width="2"/>
<line y1="-1" x2="45.5927" y2="-1" transform="matrix(0.866025 -0.5 0.866025 0.5 549.254 409.055)" stroke="white" stroke-width="2"/>
<line y1="-1" x2="45.5927" y2="-1" transform="matrix(0.866025 -0.5 0.866025 0.5 2 231.699)" stroke="white" stroke-width="2"/>
<line y1="-1" x2="45.5927" y2="-1" transform="matrix(0.866025 -0.5 0.866025 0.5 362.098 23.7964)" stroke="white" stroke-width="2"/>
<line y1="-1" x2="45.5927" y2="-1" transform="matrix(0.866025 -0.5 0.866025 0.5 242.065 93.0973)" stroke="white" stroke-width="2"/>
<line y1="-1" x2="45.5927" y2="-1" transform="matrix(0.866025 -0.5 0.866025 0.5 122.033 162.398)" stroke="white" stroke-width="2"/>
<path d="M541.316 202.628L565.538 188.514L539.853 178.125L541.316 202.628Z" fill="url(#paint0_linear_37_722)"/>
<path opacity="0.2" d="M540.665 220.858L672.343 311.421C694.777 326.907 722.413 326.71 744.847 311.225L775.572 289.858C778.661 287.702 778.661 282.213 775.572 280.057L610.894 164.991C609.431 164.011 607.642 164.011 606.179 164.991L540.665 211.057C537.414 213.213 537.577 218.702 540.665 220.858Z" fill="#16032E"/>
<path d="M579.031 216.545C579.031 221.642 577.568 225.17 575.129 226.935L567.651 232.227C565.213 233.795 566.839 230.071 563.1 227.523C555.622 222.23 549.444 209.489 549.444 199.099C549.444 194.003 545.542 194.003 547.981 192.239L555.947 186.946C558.385 185.378 561.799 185.574 565.538 188.122C572.853 193.415 579.031 206.156 579.031 216.545Z" fill="url(#paint1_linear_37_722)"/>
<path d="M571.065 222.034C571.065 232.423 564.888 236.736 557.41 231.443C549.932 226.151 543.754 213.409 543.754 203.02C543.754 192.631 549.932 188.318 557.41 193.611C564.888 198.903 571.065 211.449 571.065 222.034Z" fill="url(#paint2_linear_37_722)"/>
<path d="M558.06 193.219C554.484 190.67 551.232 190.278 548.794 191.846C551.07 191.062 553.833 191.65 556.922 193.807C564.4 199.099 570.578 211.841 570.578 222.23C570.578 227.719 568.952 231.443 566.351 233.011C569.602 231.835 571.878 227.915 571.878 221.642C571.716 211.057 565.701 198.511 558.06 193.219Z" fill="url(#paint3_radial_37_722)"/>
<path d="M568.464 220.074C568.464 228.111 563.75 231.247 557.897 227.327C552.045 223.21 547.331 213.605 547.331 205.568C547.331 197.531 552.045 194.395 557.897 198.315C563.75 202.236 568.464 212.037 568.464 220.074ZM561.474 214.977V215.173V215.369C561.474 215.761 561.636 216.349 561.962 216.741L565.213 221.642C565.701 222.426 566.351 222.426 566.513 221.838C566.676 220.858 566.839 219.878 566.839 218.898C566.839 217.918 566.676 216.545 566.513 215.369C566.351 214.585 565.701 213.801 565.213 213.801L561.962 214.193C561.636 214.193 561.474 214.585 561.474 214.977ZM564.238 208.508C563.1 206.156 561.799 204.196 560.173 202.432C559.686 201.844 559.035 202.04 559.035 202.824V207.92C559.035 208.312 559.198 208.901 559.523 209.293C559.686 209.489 559.686 209.489 559.848 209.685C560.173 210.077 560.499 210.273 560.824 210.273L564.075 209.881C564.4 210.273 564.563 209.293 564.238 208.508ZM555.622 199.295C554.159 198.707 552.695 198.903 551.558 199.687C551.232 199.883 551.232 201.06 551.72 201.648L554.971 206.548C555.296 206.94 555.622 207.136 555.947 207.136C556.109 207.136 556.109 207.136 556.272 207.136C556.597 207.136 556.76 206.744 556.76 206.352V201.256C556.76 200.472 556.109 199.491 555.622 199.295ZM549.282 203.608C549.119 204.588 548.956 205.568 548.956 206.548C548.956 207.724 549.119 208.901 549.282 210.077C549.444 210.861 550.094 211.645 550.582 211.645L553.833 211.253C554.158 211.253 554.321 210.861 554.321 210.469V210.273V210.077C554.321 209.685 554.158 209.097 553.833 208.705L550.582 203.804C550.094 203.02 549.444 203.02 549.282 203.608ZM551.558 216.937C552.695 219.29 553.996 221.25 555.622 223.014C556.109 223.602 556.76 223.406 556.76 222.622V217.526C556.76 217.134 556.597 216.545 556.272 216.153C556.109 215.957 556.109 215.957 555.947 215.761C555.622 215.369 555.296 215.173 554.971 215.173L551.72 215.565C551.232 215.369 551.232 216.153 551.558 216.937ZM560.173 226.151C561.637 226.739 563.1 226.543 564.238 225.759C564.563 225.562 564.563 224.386 564.075 223.798L560.824 218.898C560.499 218.506 560.173 218.31 559.848 218.31C559.686 218.31 559.686 218.31 559.523 218.31C559.198 218.31 559.035 218.702 559.035 219.094V224.19C559.035 224.974 559.686 225.955 560.173 226.151Z" fill="url(#paint4_linear_37_722)"/>
<path d="M567.814 220.466C567.814 228.503 563.1 231.639 557.247 227.719C551.395 223.602 546.681 213.997 546.681 205.96C546.681 197.923 551.395 194.787 557.247 198.707C563.1 202.628 567.814 212.429 567.814 220.466ZM560.824 215.369V215.565V215.761C560.824 216.153 560.986 216.741 561.311 217.133L564.563 222.034C565.05 222.818 565.701 222.818 565.863 222.23C566.026 221.25 566.188 220.27 566.188 219.29C566.188 218.114 566.026 216.937 565.863 215.761C565.701 214.977 565.05 214.193 564.563 214.193L561.311 214.585C560.986 214.585 560.824 214.781 560.824 215.369ZM563.587 208.9C562.449 206.548 561.149 204.588 559.523 202.824C559.036 202.236 558.385 202.432 558.385 203.216V208.312C558.385 208.704 558.548 209.293 558.873 209.685C559.036 209.881 559.035 209.881 559.198 210.077C559.523 210.469 559.848 210.665 560.174 210.665L563.425 210.273C563.75 210.469 563.912 209.685 563.587 208.9ZM554.971 199.687C553.508 199.099 552.045 199.295 550.907 200.079C550.582 200.275 550.582 201.452 551.07 202.04L554.321 206.94C554.646 207.332 554.971 207.528 555.297 207.528C555.459 207.528 555.459 207.528 555.622 207.528C555.947 207.528 556.109 207.136 556.109 206.744V201.648C556.109 200.864 555.459 199.883 554.971 199.687ZM548.631 203.804C548.469 204.784 548.306 205.764 548.306 206.744C548.306 207.92 548.469 209.097 548.631 210.273C548.794 211.057 549.444 211.841 549.932 211.841L553.183 211.449C553.508 211.449 553.671 211.057 553.671 210.665V210.469V210.273C553.671 209.881 553.508 209.293 553.183 208.9L549.932 204C549.444 203.412 548.794 203.216 548.631 203.804ZM550.907 217.33C552.045 219.682 553.346 221.642 554.971 223.406C555.459 223.994 556.109 223.798 556.109 223.014V217.918C556.109 217.526 555.947 216.937 555.622 216.545C555.459 216.349 555.459 216.349 555.297 216.153C554.971 215.761 554.646 215.565 554.321 215.565L551.07 215.957C550.582 215.565 550.582 216.545 550.907 217.33ZM559.523 226.543C560.986 227.131 562.449 226.935 563.587 226.151C563.912 225.955 563.913 224.778 563.425 224.19L560.174 219.29C559.848 218.898 559.523 218.702 559.198 218.702C559.035 218.702 559.036 218.702 558.873 218.702C558.548 218.702 558.385 219.094 558.385 219.486V224.582C558.385 225.366 558.873 226.347 559.523 226.543Z" fill="url(#paint5_linear_37_722)"/>
<path d="M673.156 268.883C670.717 267.119 668.279 266.335 665.841 266.335C660.476 266.335 656.737 271.039 656.087 281.232L573.178 228.11C573.341 224.19 573.341 223.21 573.341 222.033C573.341 210.468 566.838 196.942 558.548 191.258C556.109 189.493 553.671 188.709 551.232 188.709C545.217 188.709 541.478 194.394 541.478 203.019C538.389 198.315 534 190.474 534 184.005C534 170.283 545.055 150.289 570.09 141.664C593.174 133.823 602.928 133.431 618.534 137.547C634.14 141.664 635.441 144.408 642.919 145.388C650.397 146.368 653.648 136.763 690.225 161.854C726.64 186.945 742.409 210.468 750.537 217.917C758.828 225.366 763.867 228.306 766.793 233.599C769.557 238.891 772.646 265.158 768.419 272.999C764.355 280.84 722.088 305.931 711.359 307.107C701.442 308.284 689.738 300.443 687.787 299.07C687.624 287.309 681.284 274.372 673.156 268.883Z" fill="url(#paint6_radial_37_722)"/>
<path opacity="0.5" d="M546.518 156.366C552.208 150.29 560.011 144.997 570.09 141.665C584.883 136.568 594.312 134.608 603.253 135C610.731 137.156 619.51 140.684 626.662 144.605C636.904 150.29 581.794 175.969 581.794 175.969C572.366 176.557 551.232 163.815 546.518 156.366Z" fill="url(#paint7_linear_37_722)"/>
<path opacity="0.5" d="M680.959 218.898C680.959 218.898 667.141 197.727 648.609 185.182C626.663 170.284 615.283 169.108 615.283 169.108L632.352 152.25L654.299 144.801C654.299 144.801 665.678 146.761 681.122 156.758C696.403 166.756 728.916 196.551 728.916 196.551L680.959 218.898Z" fill="url(#paint8_linear_37_722)"/>
<path d="M656.737 144.213C656.737 144.213 635.278 143.429 622.273 144.997C609.105 146.565 594.962 152.838 587.809 161.267C581.795 168.324 576.267 176.753 581.632 175.773C586.997 174.793 613.17 169.5 615.283 168.912C617.396 168.324 623.899 161.659 634.628 154.21C644.87 147.349 656.737 144.213 656.737 144.213Z" fill="url(#paint9_linear_37_722)"/>
<path d="M583.745 173.616C583.908 173.616 584.07 173.616 584.395 173.616C589.76 172.636 614.145 167.736 616.095 167.148C616.908 166.952 618.859 165.187 621.298 163.227C624.711 160.483 629.263 156.562 635.116 152.642C640.155 149.113 645.682 146.761 649.909 144.997C648.771 144.997 647.471 144.997 646.008 144.997C639.505 144.997 632.027 144.801 625.037 145.585C611.544 147.153 598.051 153.622 591.223 161.463C585.371 168.324 583.257 172.636 583.257 173.616C583.42 173.616 583.583 173.616 583.745 173.616Z" fill="url(#paint10_linear_37_722)"/>
<path opacity="0.5" d="M619.672 253.202L621.135 253.006C621.135 252.81 620.322 238.108 625.687 219.29C628.938 207.92 640.643 190.278 640.806 190.082L639.668 188.906C639.18 189.69 627.638 206.94 624.387 218.702C618.859 238.108 619.672 253.202 619.672 253.202Z" fill="url(#paint11_linear_37_722)"/>
<path d="M741.921 255.162C731.679 262.807 715.26 268.688 704.206 269.08C692.989 269.472 593.174 199.295 593.174 199.295C593.174 199.295 668.767 246.733 685.673 255.162C702.58 263.591 721.438 259.867 736.556 250.065C749.074 241.832 759.316 231.051 762.404 227.719C764.355 229.483 765.818 231.247 766.956 233.403C766.956 233.403 766.956 233.599 767.119 233.599C763.217 237.128 753.463 246.537 741.921 255.162Z" fill="url(#paint12_radial_37_722)"/>
<path opacity="0.5" d="M649.097 273.784L649.422 272.804C649.422 272.608 652.998 257.514 658.688 244.381C662.589 235.364 672.831 226.935 672.831 226.739L672.018 225.367C671.531 225.759 661.451 234.384 657.387 243.597C652.51 254.77 649.259 267.511 648.284 271.236L583.42 227.523C582.933 225.758 579.844 216.153 579.356 209.489C578.868 202.04 581.307 190.278 581.307 190.082L579.844 189.69C579.681 190.278 577.405 201.844 577.893 209.685C578.381 217.33 581.957 228.111 582.12 228.503L582.282 228.699L582.445 228.895L649.097 273.784Z" fill="url(#paint13_linear_37_722)"/>
<path d="M665.678 228.699C669.417 228.699 671.855 227.719 673.319 225.562C674.457 223.994 674.619 221.838 674.294 219.486C672.506 209.881 639.993 176.753 612.194 176.753C611.706 176.753 611.219 176.753 610.568 176.753C589.76 177.733 580.006 189.69 580.006 189.69C580.006 189.69 619.347 217.526 643.244 224.19C654.298 227.327 661.126 228.699 665.678 228.699Z" fill="url(#paint14_linear_37_722)"/>
<path d="M580.981 189.102C580.981 189.102 590.248 180.477 610.568 179.497C637.554 178.321 670.392 211.841 672.018 220.074C673.481 228.307 663.727 227.131 643.732 221.642C619.835 214.977 580.981 189.102 580.981 189.102Z" fill="url(#paint15_linear_37_722)"/>
<path opacity="0.5" d="M648.284 272.216L583.908 228.503C583.908 228.503 630.564 254.574 637.067 259.082C643.569 263.983 648.284 272.216 648.284 272.216Z" fill="url(#paint16_linear_37_722)"/>
<path d="M625.037 207.92C624.386 209.097 623.899 210.273 623.411 211.449C606.992 203.412 590.248 193.023 584.07 188.906C587.809 186.358 596.425 182.045 610.406 181.457C610.893 181.457 611.381 181.457 611.869 181.457C619.997 181.457 628.45 184.594 636.416 188.906C633.978 192.043 629.588 198.315 625.037 207.92Z" fill="url(#paint17_linear_37_722)"/>
<path opacity="0.5" d="M580.007 189.69C580.007 189.69 552.37 176.753 547.656 173.812C542.942 170.872 542.454 170.676 542.454 161.267C542.454 161.267 541.966 166.56 550.42 172.44C558.873 178.321 580.007 189.69 580.007 189.69Z" fill="url(#paint18_linear_37_722)"/>
<path d="M548.144 173.42C548.144 173.42 534.976 179.497 536.114 173.028C537.089 166.56 542.617 160.679 542.617 160.679C542.617 160.679 541.479 171.46 548.144 173.42Z" fill="url(#paint19_linear_37_722)"/>
<path d="M545.542 173.224C545.542 173.224 536.439 176.753 537.251 171.264C538.064 165.775 541.478 163.031 541.478 163.031C541.478 163.031 539.04 172.44 545.542 173.224Z" fill="url(#paint20_linear_37_722)"/>
<path d="M548.469 173.224C548.469 173.224 544.242 174.596 540.666 175.381C540.178 173.42 539.69 171.264 539.69 169.696C539.853 166.363 542.616 160.483 542.616 160.483C542.616 160.483 540.665 172.244 548.469 173.224Z" fill="url(#paint21_linear_37_722)"/>
<path d="M551.395 185.966C554.158 185.966 556.922 186.946 559.685 188.906C568.627 195.179 575.454 209.489 575.454 221.838C575.454 224.582 575.129 226.739 574.641 228.895L573.178 227.915C573.341 223.994 573.341 223.014 573.341 221.838C573.341 210.273 566.838 196.747 558.548 191.062C556.109 189.298 553.671 188.514 551.232 188.514C545.217 188.514 541.478 194.199 541.478 202.824C540.828 201.844 540.178 200.864 539.527 199.687C540.503 190.278 546.03 185.966 551.395 185.966Z" fill="black"/>
<path d="M580.007 189.69C580.007 189.69 582.77 195.767 582.445 200.668C582.12 205.568 584.396 206.352 586.021 205.568C587.647 204.98 586.672 187.534 580.007 189.69Z" fill="url(#paint22_linear_37_722)"/>
<path d="M579.681 189.69C579.681 189.69 585.045 185.77 587.972 185.77C590.735 185.77 590.248 199.687 587.159 200.079C584.07 200.472 585.045 193.807 583.582 192.239C582.119 190.67 579.681 189.69 579.681 189.69Z" fill="url(#paint23_radial_37_722)"/>
<path d="M586.021 191.062C586.021 193.807 586.834 195.963 587.809 195.963C588.785 195.963 589.598 193.807 589.598 191.062C589.598 188.318 588.785 186.162 587.809 186.162C586.834 186.162 586.021 188.318 586.021 191.062Z" fill="black"/>
<path d="M186.087 287.066L210.471 272.952L184.786 262.367L186.087 287.066Z" fill="url(#paint24_linear_37_722)"/>
<path d="M71.3158 208.657L95.5381 194.543L69.8528 184.154L71.3158 208.657Z" fill="url(#paint25_linear_37_722)"/>
<path opacity="0.2" d="M70.6655 226.887L202.343 317.45C224.777 332.936 252.413 332.74 274.847 317.254L305.572 295.887C308.661 293.731 308.661 288.242 305.572 286.086L140.894 171.02C139.431 170.04 137.642 170.04 136.179 171.02L70.6655 217.086C67.4142 219.242 67.5767 224.731 70.6655 226.887Z" fill="#16032E"/>
<path d="M109.031 222.574C109.031 227.671 107.568 231.199 105.13 232.964L97.6514 238.256C95.213 239.825 96.8386 236.1 93.0996 233.552C85.6216 228.259 79.4441 215.518 79.4441 205.128C79.4441 200.032 75.5426 200.032 77.9811 198.268L85.9467 192.975C88.3852 191.407 91.7991 191.603 95.5381 194.151C102.854 199.444 109.031 212.185 109.031 222.574Z" fill="url(#paint26_linear_37_722)"/>
<path d="M101.065 228.063C101.065 238.452 94.8879 242.765 87.4099 237.472C79.9319 232.18 73.7544 219.438 73.7544 209.049C73.7544 198.66 79.9319 194.347 87.4099 199.64C94.8879 204.932 101.065 217.478 101.065 228.063Z" fill="url(#paint27_linear_37_722)"/>
<path d="M88.0604 199.248C84.4839 196.699 81.2326 196.307 78.7941 197.876C81.0701 197.091 83.8337 197.68 86.9224 199.836C94.4004 205.128 100.578 217.87 100.578 228.259C100.578 233.748 98.9522 237.472 96.3512 239.04C99.6025 237.864 101.878 233.944 101.878 227.671C101.716 217.086 95.7009 204.54 88.0604 199.248Z" fill="url(#paint28_radial_37_722)"/>
<path d="M98.4644 226.103C98.4644 234.14 93.75 237.276 87.8976 233.356C82.0453 229.239 77.3309 219.634 77.3309 211.597C77.3309 203.56 82.0453 200.424 87.8976 204.344C93.75 208.265 98.4644 218.066 98.4644 226.103ZM91.4741 221.006V221.202V221.398C91.4741 221.79 91.6366 222.378 91.9617 222.77L95.2131 227.671C95.7007 228.455 96.351 228.455 96.5136 227.867C96.6761 226.887 96.8387 225.907 96.8387 224.927C96.8387 223.947 96.6761 222.574 96.5136 221.398C96.351 220.614 95.7007 219.83 95.2131 219.83L91.9617 220.222C91.6366 220.222 91.4741 220.614 91.4741 221.006ZM94.2377 214.538C93.0997 212.185 91.7992 210.225 90.1736 208.461C89.6859 207.873 89.0356 208.069 89.0356 208.853V213.949C89.0356 214.341 89.1981 214.93 89.5233 215.322C89.6858 215.518 89.6859 215.518 89.8484 215.714C90.1736 216.106 90.4986 216.302 90.8238 216.302L94.0751 215.91C94.4002 216.302 94.5628 215.322 94.2377 214.538ZM85.6218 205.324C84.1587 204.736 82.6956 204.932 81.5576 205.716C81.2325 205.913 81.2325 207.089 81.7202 207.677L84.9715 212.577C85.2966 212.969 85.6217 213.165 85.9468 213.165C86.1094 213.165 86.1094 213.165 86.272 213.165C86.5971 213.165 86.7596 212.773 86.7596 212.381V207.285C86.7596 206.501 86.1095 205.52 85.6218 205.324ZM79.2817 209.637C79.1191 210.617 78.9565 211.597 78.9565 212.577C78.9565 213.753 79.1191 214.93 79.2817 216.106C79.4443 216.89 80.0945 217.674 80.5822 217.674L83.8335 217.282C84.1586 217.282 84.3212 216.89 84.3212 216.498V216.302V216.106C84.3212 215.714 84.1586 215.126 83.8335 214.734L80.5822 209.833C80.0945 209.049 79.4443 209.049 79.2817 209.637ZM81.5576 222.967C82.6956 225.319 83.9961 227.279 85.6218 229.043C86.1095 229.631 86.7596 229.435 86.7596 228.651V223.555C86.7596 223.163 86.5971 222.574 86.272 222.182C86.1094 221.986 86.1094 221.986 85.9468 221.79C85.6217 221.398 85.2966 221.202 84.9715 221.202L81.7202 221.594C81.2325 221.398 81.2325 222.182 81.5576 222.967ZM90.1736 232.18C91.6367 232.768 93.0997 232.572 94.2377 231.788C94.5628 231.592 94.5628 230.415 94.0751 229.827L90.8238 224.927C90.4986 224.535 90.1736 224.339 89.8484 224.339C89.6859 224.339 89.6858 224.339 89.5233 224.339C89.1981 224.339 89.0356 224.731 89.0356 225.123V230.219C89.0356 231.003 89.6859 231.984 90.1736 232.18Z" fill="url(#paint29_linear_37_722)"/>
<path d="M97.8142 226.495C97.8142 234.532 93.0998 237.668 87.2475 233.748C81.3951 229.631 76.6807 220.026 76.6807 211.989C76.6807 203.952 81.3951 200.816 87.2475 204.736C93.0998 208.657 97.8142 218.458 97.8142 226.495ZM90.8238 221.398V221.594V221.79C90.8238 222.182 90.9865 222.771 91.3116 223.163L94.5629 228.063C95.0506 228.847 95.7008 228.847 95.8634 228.259C96.026 227.279 96.1886 226.299 96.1886 225.319C96.1886 224.143 96.026 222.966 95.8634 221.79C95.7008 221.006 95.0506 220.222 94.5629 220.222L91.3116 220.614C90.9865 220.614 90.8238 220.81 90.8238 221.398ZM93.5875 214.93C92.4495 212.577 91.149 210.617 89.5233 208.853C89.0356 208.265 88.3854 208.461 88.3854 209.245V214.342C88.3854 214.734 88.548 215.322 88.8731 215.714C89.0357 215.91 89.0356 215.91 89.1982 216.106C89.5233 216.498 89.8485 216.694 90.1736 216.694L93.4249 216.302C93.7501 216.498 93.9126 215.714 93.5875 214.93ZM84.9715 205.716C83.5084 205.128 82.0453 205.324 80.9074 206.109C80.5823 206.305 80.5822 207.481 81.0699 208.069L84.3212 212.969C84.6464 213.361 84.9715 213.557 85.2967 213.557C85.4592 213.557 85.4593 213.557 85.6218 213.557C85.947 213.557 86.1095 213.165 86.1095 212.773V207.677C86.1095 206.893 85.4592 205.913 84.9715 205.716ZM78.6314 209.833C78.4689 210.813 78.3064 211.793 78.3064 212.773C78.3064 213.949 78.4689 215.126 78.6314 216.302C78.794 217.086 79.4443 217.87 79.932 217.87L83.1833 217.478C83.5085 217.478 83.671 217.086 83.671 216.694V216.498V216.302C83.671 215.91 83.5085 215.322 83.1833 214.93L79.932 210.029C79.4443 209.441 78.794 209.245 78.6314 209.833ZM80.9074 223.359C82.0453 225.711 83.3459 227.671 84.9715 229.435C85.4592 230.023 86.1095 229.827 86.1095 229.043V223.947C86.1095 223.555 85.947 222.967 85.6218 222.575C85.4593 222.378 85.4592 222.378 85.2967 222.182C84.9715 221.79 84.6464 221.594 84.3212 221.594L81.0699 221.986C80.5822 221.594 80.5823 222.574 80.9074 223.359ZM89.5233 232.572C90.9864 233.16 92.4495 232.964 93.5875 232.18C93.9126 231.984 93.9126 230.807 93.4249 230.219L90.1736 225.319C89.8485 224.927 89.5233 224.731 89.1982 224.731C89.0356 224.731 89.0357 224.731 88.8731 224.731C88.548 224.731 88.3854 225.123 88.3854 225.515V230.611C88.3854 231.395 88.8731 232.376 89.5233 232.572Z" fill="url(#paint30_linear_37_722)"/>
<path d="M223.477 300.2C223.477 305.296 222.013 308.825 219.575 310.589L212.097 315.881C209.659 317.45 211.284 313.725 207.545 311.177C200.067 305.884 193.89 293.143 193.89 282.754C193.89 277.657 189.988 277.657 192.427 275.893L200.392 270.6C202.831 269.032 206.245 269.228 209.984 271.776C217.462 277.069 223.477 289.81 223.477 300.2Z" fill="url(#paint31_linear_37_722)"/>
<path d="M215.673 305.688C215.673 316.078 209.496 320.39 202.018 315.097C194.54 309.805 188.362 297.063 188.362 286.674C188.362 276.285 194.54 271.972 202.018 277.265C209.496 282.558 215.673 295.103 215.673 305.688Z" fill="url(#paint32_linear_37_722)"/>
<path d="M202.668 276.873C199.092 274.325 195.84 273.933 193.402 275.501C195.678 274.717 198.441 275.305 201.53 277.461C209.008 282.754 215.186 295.495 215.186 305.884C215.186 311.373 213.56 315.097 210.959 316.666C214.21 315.49 216.486 311.569 216.486 305.296C216.324 294.711 210.146 282.166 202.668 276.873Z" fill="url(#paint33_radial_37_722)"/>
<path d="M212.91 303.728C212.91 311.765 208.196 314.901 202.343 310.981C196.491 306.864 191.776 297.259 191.776 289.222C191.776 281.185 196.491 278.049 202.343 281.97C208.196 285.89 212.91 295.691 212.91 303.728ZM206.082 298.631V298.828V299.024C206.082 299.416 206.245 300.004 206.57 300.396L209.821 305.296C210.309 306.08 210.959 306.08 211.122 305.492C211.284 304.512 211.447 303.532 211.447 302.552C211.447 301.572 211.284 300.2 211.122 299.024C210.959 298.239 210.309 297.455 209.821 297.455L206.57 297.847C206.245 297.847 205.92 298.239 206.082 298.631ZM208.683 292.163C207.545 289.81 206.245 287.85 204.619 286.086C204.131 285.498 203.481 285.694 203.481 286.478V291.575C203.481 291.967 203.644 292.555 203.969 292.947C204.131 293.143 204.131 293.143 204.294 293.339C204.619 293.731 204.944 293.927 205.269 293.927L208.521 293.535C209.008 293.731 209.171 292.947 208.683 292.163ZM200.23 282.95C198.767 282.362 197.304 282.558 196.166 283.342C195.841 283.538 195.841 284.714 196.328 285.302L199.58 290.203C199.905 290.595 200.23 290.791 200.555 290.791C200.718 290.791 200.717 290.791 200.88 290.791C201.205 290.791 201.368 290.399 201.368 290.006V284.91C201.205 284.126 200.717 283.146 200.23 282.95ZM193.89 287.262C193.727 288.242 193.565 289.222 193.565 290.203C193.565 291.379 193.727 292.555 193.89 293.731C194.052 294.515 194.703 295.299 195.19 295.299L198.442 294.907C198.767 294.907 198.929 294.515 198.929 294.123V293.927V293.731C198.929 293.339 198.767 292.751 198.442 292.359L195.19 287.458C194.703 286.674 194.052 286.478 193.89 287.262ZM196.166 300.592C197.304 302.944 198.604 304.904 200.23 306.668C200.717 307.257 201.368 307.06 201.368 306.276V301.18C201.368 300.788 201.205 300.2 200.88 299.808C200.717 299.612 200.718 299.612 200.555 299.416C200.23 299.024 199.905 298.828 199.58 298.828L196.328 299.22C195.841 299.024 195.841 299.808 196.166 300.592ZM204.782 309.805C206.245 310.393 207.708 310.197 208.846 309.413C209.171 309.217 209.171 308.041 208.683 307.453L205.432 302.552C205.107 302.16 204.782 301.964 204.457 301.964C204.294 301.964 204.294 301.964 204.131 301.964C203.806 301.964 203.644 302.356 203.644 302.748V307.845C203.644 308.629 204.131 309.609 204.782 309.805Z" fill="url(#paint34_linear_37_722)"/>
<path d="M212.26 303.924C212.26 311.961 207.546 315.097 201.693 311.177C195.841 307.06 191.127 297.455 191.127 289.418C191.127 281.381 195.841 278.245 201.693 282.166C207.546 286.282 212.26 295.887 212.26 303.924ZM205.432 299.024V299.22V299.416C205.432 299.808 205.595 300.396 205.92 300.788L209.171 305.688C209.659 306.472 210.309 306.472 210.472 305.884C210.634 304.904 210.797 303.924 210.797 302.944C210.797 301.964 210.634 300.592 210.472 299.416C210.309 298.631 209.659 297.847 209.171 297.847L205.92 298.239C205.595 298.239 205.27 298.435 205.432 299.024ZM208.033 292.359C206.895 290.006 205.595 288.046 203.969 286.282C203.482 285.694 202.831 285.89 202.831 286.674V291.771C202.831 292.163 202.994 292.751 203.319 293.143C203.481 293.339 203.482 293.339 203.644 293.535C203.969 293.927 204.294 294.123 204.619 294.123L207.871 293.731C208.358 294.123 208.521 293.339 208.033 292.359ZM199.58 283.342C198.117 282.754 196.654 282.95 195.516 283.734C195.191 283.93 195.191 285.106 195.678 285.694L198.93 290.595C199.255 290.987 199.58 291.183 199.905 291.183C200.068 291.183 200.068 291.183 200.23 291.183C200.555 291.183 200.718 290.791 200.718 290.398V285.302C200.555 284.322 200.068 283.538 199.58 283.342ZM193.24 287.458C193.077 288.438 192.915 289.418 192.915 290.398C192.915 291.575 193.077 292.751 193.24 293.927C193.402 294.711 194.053 295.495 194.54 295.495L197.792 295.103C198.117 295.103 198.279 294.711 198.279 294.319V294.123V293.927C198.279 293.535 198.117 292.947 197.792 292.555L194.54 287.654C194.053 287.066 193.402 286.87 193.24 287.458ZM195.516 300.984C196.654 303.336 197.954 305.296 199.58 307.06C200.068 307.649 200.718 307.453 200.718 306.668V301.572C200.718 301.18 200.555 300.592 200.23 300.2C200.068 300.004 200.068 300.004 199.905 299.808C199.58 299.416 199.255 299.22 198.93 299.22L195.678 299.612C195.191 299.22 195.191 300.2 195.516 300.984ZM204.132 310.001C205.595 310.589 207.058 310.393 208.196 309.609C208.521 309.413 208.521 308.237 208.033 307.649L204.782 302.748C204.457 302.356 204.132 302.16 203.807 302.16C203.644 302.16 203.644 302.16 203.482 302.16C203.156 302.16 202.994 302.552 202.994 302.944V308.041C202.994 309.021 203.481 310.001 204.132 310.001Z" fill="url(#paint35_linear_37_722)"/>
<path d="M203.156 274.912C200.717 273.148 198.279 272.364 195.841 272.364C190.476 272.364 186.737 277.068 186.087 287.261L103.178 234.139C103.341 230.219 103.341 229.239 103.341 228.062C103.341 216.497 96.8383 202.971 88.5475 197.287C86.109 195.523 83.6705 194.738 81.2321 194.738C75.2172 194.738 71.4782 200.423 71.4782 209.048C68.3894 204.344 64.0001 196.503 64.0001 190.034C64.0001 176.312 75.0546 156.318 100.09 147.693C123.174 139.852 132.928 139.46 148.534 143.576C164.14 147.693 165.441 150.437 172.919 151.417C180.397 152.397 183.648 142.792 220.225 167.883C256.64 192.974 272.409 216.497 280.537 223.946C288.828 231.395 293.867 234.335 296.793 239.628C299.557 244.92 302.646 271.188 298.419 279.028C294.355 286.869 252.088 311.96 241.359 313.136C231.442 314.313 219.738 306.472 217.787 305.1C217.624 293.338 211.284 280.401 203.156 274.912Z" fill="url(#paint36_radial_37_722)"/>
<path opacity="0.5" d="M76.5177 162.395C82.2075 156.319 90.0106 151.026 100.09 147.694C114.883 142.597 124.312 140.637 133.253 141.029C140.731 143.185 149.509 146.714 156.662 150.634C166.904 156.319 111.794 181.998 111.794 181.998C102.366 182.586 81.2321 169.844 76.5177 162.395Z" fill="url(#paint37_linear_37_722)"/>
<path opacity="0.5" d="M210.959 224.927C210.959 224.927 197.141 203.756 178.609 191.211C156.663 176.313 145.283 175.137 145.283 175.137L162.352 158.279L184.299 150.83C184.299 150.83 195.678 152.79 211.122 162.787C226.403 172.785 258.916 202.58 258.916 202.58L210.959 224.927Z" fill="url(#paint38_linear_37_722)"/>
<path d="M255.177 199.444C261.517 200.62 276.96 218.458 277.448 226.691C277.936 234.924 249.649 255.898 232.58 251.978C215.511 248.254 209.171 226.887 210.309 222.575C211.284 218.262 242.172 197.091 255.177 199.444Z" fill="url(#paint39_linear_37_722)"/>
<path d="M236.807 250.998C250.462 250.998 268.019 239.236 274.197 231.2C276.31 228.455 276.31 227.083 276.31 226.887C275.823 219.634 260.704 202.188 255.014 201.012C254.364 200.816 253.714 200.816 252.901 200.816C239.408 200.816 212.747 219.438 211.122 223.163C210.959 224.143 211.609 229.239 214.698 235.316C217.137 240.021 222.664 248.254 232.58 250.41C233.881 250.802 235.344 250.998 236.807 250.998Z" fill="url(#paint40_linear_37_722)"/>
<path d="M186.737 150.242C186.737 150.242 165.278 149.458 152.273 151.026C139.105 152.594 124.962 158.867 117.809 167.296C111.795 174.353 106.267 182.782 111.632 181.802C116.997 180.822 143.17 175.529 145.283 174.941C147.396 174.353 153.899 167.688 164.628 160.239C174.87 153.378 186.737 150.242 186.737 150.242Z" fill="url(#paint41_linear_37_722)"/>
<path d="M113.745 179.645C113.908 179.645 114.07 179.645 114.395 179.645C119.76 178.665 144.145 173.765 146.095 173.177C146.908 172.981 148.859 171.216 151.297 169.256C154.711 166.512 159.263 162.591 165.115 158.671C170.155 155.143 175.682 152.79 179.909 151.026C178.771 151.026 177.47 151.026 176.007 151.026C169.505 151.026 162.027 150.83 155.036 151.614C141.544 153.182 128.051 159.651 121.223 167.492C115.371 174.353 113.257 178.665 113.257 179.645C113.42 179.645 113.582 179.645 113.745 179.645Z" fill="url(#paint42_linear_37_722)"/>
<path opacity="0.5" d="M149.672 259.231L151.135 259.035C151.135 258.839 150.322 244.137 155.687 225.319C158.938 213.949 170.643 196.307 170.806 196.111L169.668 194.935C169.18 195.719 157.638 212.969 154.387 224.731C148.859 244.137 149.672 259.231 149.672 259.231Z" fill="url(#paint43_linear_37_722)"/>
<path d="M261.192 289.614C262.817 289.614 264.28 289.222 265.743 288.242L287.69 273.933C290.291 272.168 292.242 269.032 292.567 265.308L293.705 255.898L292.242 255.702L291.104 265.112C290.778 268.248 289.153 270.992 286.877 272.364L264.931 286.674C261.354 289.026 256.965 287.85 254.526 283.93L253.226 281.773L252.088 282.754L253.388 284.91C255.339 288.046 258.265 289.614 261.192 289.614Z" fill="url(#paint44_radial_37_722)"/>
<path opacity="0.5" d="M260.379 278.441L259.728 280.793C259.728 280.793 249.162 286.87 241.521 288.83C233.881 290.595 227.378 281.381 227.378 280.009C227.378 278.833 231.28 280.597 238.92 279.421C243.634 278.833 255.827 280.597 260.379 278.441Z" fill="url(#paint45_linear_37_722)"/>
<path d="M258.103 274.129L260.704 278.441C260.704 278.441 257.778 280.009 254.039 281.774C250.137 283.538 245.423 285.694 241.521 286.674C237.62 287.654 234.206 286.282 231.605 284.518C229.004 282.754 227.541 280.597 227.541 280.009C227.541 278.833 231.28 278.637 238.92 277.461C242.822 276.873 249.325 274.521 254.201 272.56C255.502 271.776 257.128 272.56 258.103 274.129Z" fill="url(#paint46_radial_37_722)"/>
<path d="M257.778 274.129C256.803 272.756 255.177 272.168 253.714 272.756C251.275 273.736 248.512 274.717 245.911 275.697C243.31 276.481 240.871 277.265 238.92 277.461C237.295 277.657 235.832 278.049 234.694 278.049C230.304 278.637 228.029 279.029 227.866 279.813C227.703 280.401 229.167 282.362 231.28 284.126C233.231 285.498 235.994 286.674 239.083 286.674C239.733 286.674 240.546 286.478 241.196 286.478C244.935 285.498 249.325 283.734 253.064 281.969C256.64 280.205 259.404 278.833 259.404 278.833C259.729 278.637 258.266 275.697 258.428 275.501L257.778 274.129Z" fill="url(#paint47_radial_37_722)"/>
<path d="M257.616 274.129C256.64 272.952 255.177 272.56 253.714 272.952C251.438 273.933 248.675 274.913 246.074 275.697C243.635 276.481 241.197 277.265 239.246 277.461C237.62 277.657 236.32 278.049 235.019 278.049C230.792 278.637 228.679 279.029 228.354 279.813C228.191 280.401 229.329 282.166 231.28 283.734C233.231 285.106 235.995 286.478 239.083 286.282C239.734 286.282 240.546 286.086 241.197 286.086C244.611 285.302 249 283.538 252.414 281.773C255.665 280.205 258.266 278.833 258.429 278.833C258.916 278.637 257.941 275.697 258.266 275.501L257.616 274.129Z" fill="url(#paint48_radial_37_722)"/>
<path d="M257.453 274.129C256.478 273.148 255.015 272.756 253.714 273.345C251.438 274.325 248.837 275.305 246.399 276.089C243.96 276.873 241.684 277.461 239.896 277.853C238.433 278.049 236.97 278.441 235.832 278.441C231.93 279.029 229.817 279.225 229.329 280.009C229.004 280.597 229.98 282.166 231.605 283.538C233.556 284.91 236.32 286.282 239.246 286.086C239.896 286.086 240.709 285.89 241.359 285.89C244.61 285.106 248.675 283.342 251.926 281.97C255.015 280.597 257.453 279.225 257.616 279.225C258.428 278.833 257.778 276.089 258.266 275.893L257.453 274.129Z" fill="url(#paint49_radial_37_722)"/>
<path d="M257.128 274.325C256.152 273.541 254.852 273.148 253.389 273.737C251.113 274.717 248.674 275.501 246.236 276.285C243.96 277.069 241.684 277.657 239.896 278.049C238.433 278.245 237.132 278.637 235.994 278.637C232.255 279.225 230.304 279.421 229.654 280.205C229.329 280.597 229.979 282.166 231.28 283.342C233.231 284.714 235.832 286.086 238.92 286.086C239.571 286.086 240.383 285.89 241.034 285.89C244.122 285.106 247.861 283.538 251.113 282.166C253.876 280.793 256.152 279.617 256.477 279.617C257.615 279.225 257.29 276.677 258.103 276.285L257.128 274.325Z" fill="url(#paint50_radial_37_722)"/>
<path d="M256.965 274.325C255.99 273.737 254.689 273.541 253.389 273.933C251.275 274.717 248.837 275.697 246.398 276.481C244.122 277.265 242.009 277.853 240.221 278.245C238.758 278.441 237.62 278.833 236.482 278.833C233.068 279.421 230.955 279.617 230.467 280.205C229.979 280.597 230.467 281.97 231.442 282.95C233.393 284.322 235.994 285.694 239.083 285.694C239.733 285.694 240.546 285.498 241.196 285.498C244.122 284.714 247.536 283.342 250.625 281.97C253.226 280.793 255.177 279.813 255.665 279.617C256.965 279.029 257.29 276.677 258.103 276.285L256.965 274.325Z" fill="url(#paint51_radial_37_722)"/>
<path d="M256.803 274.325C255.827 273.737 254.527 273.737 253.226 274.325C251.113 275.109 248.837 276.089 246.561 276.677C244.448 277.461 242.334 278.049 240.546 278.245C239.246 278.441 237.945 278.833 236.97 278.833C233.718 279.421 231.768 279.617 231.117 280.205C230.63 280.597 230.792 281.577 231.443 282.558C233.231 283.93 235.994 285.498 239.083 285.302C239.733 285.302 240.546 285.106 241.196 285.106C243.96 284.518 247.211 283.146 249.975 281.969C252.251 280.989 254.202 280.009 254.689 279.813C256.315 279.029 256.965 276.873 257.941 276.285L256.803 274.325Z" fill="url(#paint52_radial_37_722)"/>
<path d="M256.478 274.325C255.502 273.933 254.364 274.129 253.064 274.521C251.113 275.305 248.837 276.089 246.561 276.873C244.448 277.461 242.497 278.049 240.871 278.441C239.571 278.637 238.433 279.029 237.295 279.029C234.369 279.421 232.418 279.813 231.605 280.205C230.955 280.597 230.955 281.381 231.28 282.166C233.068 283.538 235.832 285.106 238.921 285.106C239.571 285.106 240.384 284.91 241.034 284.91C243.473 284.322 246.561 283.146 249.162 281.97C251.276 280.989 252.901 280.205 253.552 280.009C255.502 279.225 256.478 277.069 257.616 276.481L256.478 274.325Z" fill="url(#paint53_radial_37_722)"/>
<path d="M256.315 274.521C255.34 274.325 254.202 274.521 253.064 274.913C251.113 275.697 248.837 276.481 246.724 277.265C244.773 277.853 242.822 278.441 241.196 278.833C239.896 279.029 238.758 279.421 237.783 279.421C235.019 279.813 233.231 280.009 232.255 280.597C231.605 280.793 231.28 281.577 231.443 282.166C233.231 283.538 235.832 285.106 239.083 285.106C239.733 285.106 240.546 285.106 241.196 284.91C243.472 284.322 246.236 283.342 248.674 282.166C250.463 281.381 252.088 280.597 252.739 280.401C254.852 279.421 256.315 277.657 257.778 276.873L256.315 274.521Z" fill="url(#paint54_radial_37_722)"/>
<path d="M256.153 274.521C255.177 274.521 254.039 274.717 252.901 275.305C250.951 276.089 248.837 276.873 246.886 277.461C244.936 278.049 243.147 278.637 241.522 279.029C240.384 279.225 239.246 279.617 238.27 279.617C235.832 280.009 234.044 280.205 232.906 280.597C232.093 280.793 231.605 281.381 231.443 281.773C233.231 283.146 235.832 284.91 239.083 284.714C239.734 284.714 240.546 284.714 241.197 284.518C243.31 283.93 245.748 283.146 248.024 282.166C249.487 281.577 250.951 280.793 251.763 280.597C254.202 279.617 256.153 277.853 257.616 277.069L256.153 274.521Z" fill="url(#paint55_radial_37_722)"/>
<path d="M255.827 274.521C254.852 274.717 253.876 275.109 252.739 275.501C250.95 276.285 248.837 276.873 246.886 277.657C245.098 278.245 243.31 278.833 241.684 279.225C240.546 279.421 239.408 279.813 238.595 279.813C236.482 280.205 234.694 280.401 233.393 280.597C232.58 280.793 231.768 281.185 231.28 281.381C232.906 282.95 235.669 284.518 238.92 284.518C239.571 284.518 240.384 284.518 241.034 284.322C242.985 283.93 245.098 283.146 247.374 282.166C248.674 281.577 249.812 281.185 250.788 280.597C253.389 279.421 255.827 277.853 257.453 277.069L255.827 274.521Z" fill="url(#paint56_radial_37_722)"/>
<path d="M238.758 284.322C239.408 284.322 240.221 284.322 240.871 284.126C243.472 283.538 246.724 282.362 249.65 280.989C252.576 279.617 255.34 278.245 257.29 277.461L255.665 274.717C253.064 275.893 249.975 276.873 247.049 277.853C244.123 278.833 241.196 279.617 239.083 280.009C237.132 280.401 235.507 280.597 234.043 280.793C233.068 280.989 232.093 280.989 231.28 281.185C232.906 282.558 235.669 284.322 238.758 284.322Z" fill="url(#paint57_radial_37_722)"/>
<path opacity="0.5" d="M299.557 253.546L290.454 259.231L288.991 258.055L297.932 244.137C298.419 246.489 299.07 249.822 299.557 253.546Z" fill="url(#paint58_linear_37_722)"/>
<path d="M299.557 251.39L288.991 258.251L289.641 250.998C289.803 249.626 290.291 248.646 291.104 247.862L297.769 242.177C298.419 244.333 299.07 247.665 299.557 251.39Z" fill="url(#paint59_radial_37_722)"/>
<path d="M297.769 242.177L291.266 247.665C290.454 248.254 289.803 249.43 289.641 250.606L288.991 257.467L299.232 250.802C299.07 247.665 298.419 244.529 297.769 242.177Z" fill="url(#paint60_radial_37_722)"/>
<path d="M297.769 242.569L291.429 247.861C290.779 248.45 289.966 249.626 289.803 250.802L289.316 257.271L299.232 250.802C298.907 247.665 298.419 244.725 297.769 242.569Z" fill="url(#paint61_radial_37_722)"/>
<path d="M297.769 242.765L291.591 247.862C290.941 248.45 290.128 249.626 289.966 250.606L289.478 256.683L299.069 250.41C298.907 247.665 298.419 244.921 297.769 242.765Z" fill="url(#paint62_radial_37_722)"/>
<path d="M297.769 243.157L291.916 248.058C291.429 248.45 290.453 249.822 290.291 250.606L289.803 256.29L299.069 250.214C298.744 247.665 298.256 245.117 297.769 243.157Z" fill="url(#paint63_radial_37_722)"/>
<path d="M297.769 243.549L292.079 248.254C291.592 248.646 290.454 250.018 290.454 250.606L289.966 255.898L298.907 250.018C298.745 247.666 298.257 245.313 297.769 243.549Z" fill="url(#paint64_radial_37_722)"/>
<path d="M297.932 243.745L292.405 248.45C292.079 248.842 290.779 250.018 290.779 250.606L290.291 255.702L298.907 250.018C298.745 247.665 298.257 245.509 297.932 243.745Z" fill="url(#paint65_radial_37_722)"/>
<path d="M297.931 244.137L292.729 248.646C292.404 248.842 291.104 250.214 291.104 250.606L290.779 255.31L299.069 249.822C298.582 247.665 298.256 245.705 297.931 244.137Z" fill="url(#paint66_radial_37_722)"/>
<path d="M297.932 244.333L292.892 248.646C292.73 248.842 291.267 250.214 291.267 250.606L290.942 254.918L298.907 249.626C298.582 247.665 298.257 245.901 297.932 244.333Z" fill="url(#paint67_radial_37_722)"/>
<path d="M297.932 244.725L293.055 248.842C292.892 249.038 291.429 250.41 291.429 250.606L291.104 254.526L298.744 249.43C298.419 247.665 298.257 245.901 297.932 244.725Z" fill="url(#paint68_radial_37_722)"/>
<path d="M297.931 244.921L293.217 248.842C293.217 248.842 291.591 250.214 291.591 250.41L291.266 253.938L298.582 249.038C298.419 247.666 298.094 246.097 297.931 244.921Z" fill="url(#paint69_radial_37_722)"/>
<path d="M298.582 248.842C298.419 247.665 298.256 246.293 297.931 245.313L291.754 250.41L291.429 253.546L298.582 248.842Z" fill="url(#paint70_radial_37_722)"/>
<path d="M271.921 261.191C261.679 268.836 245.26 274.717 234.206 275.109C222.989 275.501 123.174 205.324 123.174 205.324C123.174 205.324 198.767 252.762 215.673 261.191C232.58 269.62 251.438 265.896 266.556 256.094C279.074 247.861 289.316 237.08 292.404 233.748C294.355 235.512 295.818 237.276 296.956 239.432C296.956 239.432 296.956 239.628 297.119 239.628C293.217 243.157 283.463 252.566 271.921 261.191Z" fill="url(#paint71_radial_37_722)"/>
<path d="M280.212 260.799V272.952L267.532 281.577V270.208L280.212 260.799Z" fill="url(#paint72_linear_37_722)"/>
<path d="M280.537 260.211V272.364L267.694 280.989V269.424L280.537 260.211Z" fill="url(#paint73_linear_37_722)"/>
<path d="M287.69 254.33L285.251 256.879C278.261 263.935 270.133 269.424 261.679 273.149L287.69 254.33Z" fill="url(#paint74_linear_37_722)"/>
<path d="M296.469 281.381C288.34 289.614 261.192 305.884 247.211 311.373L249.487 305.884C250.463 303.336 252.251 301.376 254.364 300.2L258.266 298.043C267.532 293.143 276.636 287.458 285.252 281.185L290.616 277.265C292.079 276.285 294.03 276.677 294.843 278.441L296.469 281.381Z" fill="url(#paint75_linear_37_722)"/>
<path opacity="0.5" d="M179.097 279.813L179.422 278.833C179.422 278.637 182.998 263.543 188.688 250.41C192.589 241.393 202.831 232.964 202.831 232.768L202.018 231.396C201.531 231.788 191.451 240.413 187.387 249.626C182.51 260.799 179.259 273.541 178.284 277.265L113.42 233.552C112.933 231.788 109.844 222.182 109.356 215.518C108.868 208.069 111.307 196.307 111.307 196.111L109.844 195.719C109.681 196.307 107.405 207.873 107.893 215.714C108.381 223.359 111.957 234.14 112.12 234.532L112.282 234.728L112.445 234.924L179.097 279.813Z" fill="url(#paint76_linear_37_722)"/>
<path d="M195.678 234.728C199.417 234.728 201.855 233.748 203.319 231.592C204.457 230.023 204.619 227.867 204.294 225.515C202.506 215.91 169.993 182.782 142.194 182.782C141.706 182.782 141.219 182.782 140.568 182.782C119.76 183.762 110.006 195.719 110.006 195.719C110.006 195.719 149.347 223.555 173.244 230.219C184.298 233.356 191.126 234.728 195.678 234.728Z" fill="url(#paint77_linear_37_722)"/>
<path d="M110.981 195.131C110.981 195.131 120.248 186.506 140.568 185.526C167.554 184.35 200.392 217.87 202.018 226.103C203.481 234.336 193.727 233.16 173.732 227.671C149.835 221.006 110.981 195.131 110.981 195.131Z" fill="url(#paint78_linear_37_722)"/>
<path opacity="0.5" d="M178.283 278.245L113.908 234.532C113.908 234.532 160.564 260.603 167.066 265.111C173.569 270.012 178.283 278.245 178.283 278.245Z" fill="url(#paint79_linear_37_722)"/>
<path d="M155.036 213.949C154.386 215.126 153.898 216.302 153.411 217.478C136.992 209.441 120.248 199.052 114.07 194.935C117.809 192.387 126.425 188.074 140.406 187.486C140.893 187.486 141.381 187.486 141.869 187.486C149.997 187.486 158.45 190.623 166.416 194.935C163.978 198.072 159.588 204.344 155.036 213.949Z" fill="url(#paint80_linear_37_722)"/>
<path d="M162.352 211.401C165.116 204.736 167.879 199.64 169.342 196.699C179.747 202.972 189.013 211.597 194.54 218.066C193.89 221.398 192.914 225.515 191.126 229.827C187.062 229.239 181.535 228.063 173.732 225.907C169.505 224.731 164.628 222.771 159.751 220.614C160.401 217.282 161.214 214.145 162.352 211.401Z" fill="url(#paint81_linear_37_722)"/>
<path opacity="0.5" d="M110.007 195.719C110.007 195.719 82.3705 182.782 77.6561 179.841C72.9417 176.901 72.454 176.705 72.454 167.296C72.454 167.296 71.9663 172.589 80.4197 178.469C88.8731 184.35 110.007 195.719 110.007 195.719Z" fill="url(#paint82_linear_37_722)"/>
<path d="M78.1436 179.449C78.1436 179.449 64.9758 185.526 66.1138 179.057C67.0892 172.589 72.6164 166.708 72.6164 166.708C72.6164 166.708 71.4784 177.489 78.1436 179.449Z" fill="url(#paint83_linear_37_722)"/>
<path d="M75.5422 179.253C75.5422 179.253 66.4385 182.782 67.2514 177.293C68.0642 171.804 71.4781 169.06 71.4781 169.06C71.4781 169.06 69.0396 178.469 75.5422 179.253Z" fill="url(#paint84_linear_37_722)"/>
<path d="M78.4685 179.253C78.4685 179.253 74.2418 180.626 70.6654 181.41C70.1777 179.449 69.6899 177.293 69.6899 175.725C69.8525 172.393 72.6162 166.512 72.6162 166.512C72.6162 166.512 70.6654 178.273 78.4685 179.253Z" fill="url(#paint85_linear_37_722)"/>
<path d="M255.014 201.012C257.128 201.404 260.704 204.148 264.281 207.873C265.906 218.654 266.882 229.043 266.882 238.256C260.542 243.157 251.926 248.058 243.797 250.018C245.911 237.472 248.837 218.458 250.137 201.208C251.113 201.012 252.088 201.012 253.064 201.012C253.714 201.012 254.364 201.012 255.014 201.012Z" fill="black"/>
<path d="M226.24 248.058C230.792 236.884 237.62 219.634 242.497 203.364C245.098 202.384 247.536 201.6 249.649 201.404C246.723 220.026 241.846 237.668 237.295 251.194C237.132 251.194 236.807 251.194 236.644 251.194C235.181 251.194 233.718 250.998 232.58 250.802C230.304 250.018 228.191 249.038 226.24 248.058Z" fill="black"/>
<path d="M81.3945 191.995C84.1581 191.995 86.9218 192.975 89.6854 194.935C98.6264 201.208 105.454 215.518 105.454 227.867C105.454 230.611 105.129 232.768 104.641 234.924L103.178 233.944C103.341 230.023 103.341 229.043 103.341 227.867C103.341 216.302 96.8382 202.776 88.5474 197.091C86.1089 195.327 83.6704 194.543 81.232 194.543C75.217 194.543 71.478 200.228 71.478 208.853C70.8278 207.873 70.1775 206.893 69.5272 205.717C70.5026 196.307 76.0298 191.995 81.3945 191.995Z" fill="black"/>
<path d="M195.841 269.62C198.604 269.62 201.368 270.6 204.131 272.56C213.072 278.833 219.9 293.143 219.9 305.492C219.9 305.688 219.9 305.884 219.9 305.884C218.925 305.296 218.112 304.708 217.787 304.512C217.462 293.143 211.122 280.205 202.993 274.717C200.555 272.952 198.116 272.168 195.678 272.168C190.313 272.168 186.574 276.873 185.924 287.066L183.811 285.694C184.298 274.717 190.151 269.62 195.841 269.62Z" fill="black"/>
<path d="M110.007 195.719C110.007 195.719 112.77 201.796 112.445 206.697C112.12 211.597 114.396 212.381 116.021 211.597C117.647 211.009 116.672 193.563 110.007 195.719Z" fill="url(#paint86_linear_37_722)"/>
<path d="M109.681 195.719C109.681 195.719 115.045 191.799 117.972 191.799C120.735 191.799 120.248 205.716 117.159 206.109C114.07 206.501 115.045 199.836 113.582 198.268C112.119 196.699 109.681 195.719 109.681 195.719Z" fill="url(#paint87_radial_37_722)"/>
<path d="M116.021 197.091C116.021 199.836 116.834 201.992 117.809 201.992C118.785 201.992 119.598 199.836 119.598 197.091C119.598 194.347 118.785 192.191 117.809 192.191C116.834 192.191 116.021 194.347 116.021 197.091Z" fill="black"/>
<path d="M176.007 151.026C177.308 151.026 178.608 151.026 179.909 151.026C175.682 152.594 170.155 155.143 165.115 158.671C163.002 160.043 161.214 161.415 159.426 162.787C158.45 159.259 157.312 155.535 155.849 151.614C162.514 150.83 169.667 151.026 176.007 151.026Z" fill="black"/>
<defs>
<linearGradient id="paint0_linear_37_722" x1="550.337" y1="212.179" x2="558.553" y2="172.34" gradientUnits="userSpaceOnUse">
<stop/>
<stop offset="0.6919" stop-color="#2A2149"/>
<stop offset="1" stop-color="#3E3268"/>
</linearGradient>
<linearGradient id="paint1_linear_37_722" x1="575.816" y1="226.735" x2="545.889" y2="193.476" gradientUnits="userSpaceOnUse">
<stop stop-color="#010002"/>
<stop offset="0.0253277" stop-color="#030106"/>
<stop offset="0.1915" stop-color="#0F0419"/>
<stop offset="0.3616" stop-color="#170524"/>
<stop offset="0.5404" stop-color="#190628"/>
<stop offset="0.7029" stop-color="#0B0312"/>
<stop offset="0.8596" stop-color="#030105"/>
<stop offset="1"/>
</linearGradient>
<linearGradient id="paint2_linear_37_722" x1="543.802" y1="212.472" x2="571.072" y2="212.472" gradientUnits="userSpaceOnUse">
<stop stop-color="#100221"/>
<stop offset="1" stop-color="#10054D"/>
</linearGradient>
<radialGradient id="paint3_radial_37_722" cx="0" cy="0" r="1" gradientUnits="userSpaceOnUse" gradientTransform="translate(560.245 211.917) scale(14.7309 17.7627)">
<stop stop-color="white"/>
<stop offset="1"/>
</radialGradient>
<linearGradient id="paint4_linear_37_722" x1="547.389" y1="212.743" x2="568.39" y2="212.743" gradientUnits="userSpaceOnUse">
<stop stop-color="#BCBEC0"/>
<stop offset="1" stop-color="#E6E7E8"/>
</linearGradient>
<linearGradient id="paint5_linear_37_722" x1="546.735" y1="213.058" x2="567.736" y2="213.058" gradientUnits="userSpaceOnUse">
<stop stop-color="#BCBEC0"/>
<stop offset="1" stop-color="#E6E7E8"/>
</linearGradient>
<radialGradient id="paint6_radial_37_722" cx="0" cy="0" r="1" gradientUnits="userSpaceOnUse" gradientTransform="translate(591.259 133.643) rotate(180) scale(210.457 253.771)">
<stop stop-color="#B2ABF2"/>
<stop offset="0.5" stop-color="#564592"/>
<stop offset="0.902" stop-color="#443674"/>
<stop offset="0.9899" stop-color="#312754"/>
</radialGradient>
<linearGradient id="paint7_linear_37_722" x1="598.896" y1="178.9" x2="574.148" y2="138.537" gradientUnits="userSpaceOnUse">
<stop stop-color="#564592"/>
<stop offset="0.6209" stop-color="#6F59BD"/>
<stop offset="1" stop-color="#B2ABF2"/>
</linearGradient>
<linearGradient id="paint8_linear_37_722" x1="689.495" y1="207.375" x2="634.249" y2="153.36" gradientUnits="userSpaceOnUse">
<stop stop-color="#564592"/>
<stop offset="0.6209" stop-color="#6D56BE"/>
<stop offset="1" stop-color="#B2ABF2"/>
</linearGradient>
<linearGradient id="paint9_linear_37_722" x1="656.813" y1="159.968" x2="579.585" y2="159.968" gradientUnits="userSpaceOnUse">
<stop stop-color="#010002"/>
<stop offset="0.0253277" stop-color="#030106"/>
<stop offset="0.1915" stop-color="#0F0419"/>
<stop offset="0.3616" stop-color="#170524"/>
<stop offset="0.5404" stop-color="#190628"/>
<stop offset="0.7029" stop-color="#0B0312"/>
<stop offset="0.8596" stop-color="#030105"/>
<stop offset="1"/>
</linearGradient>
<linearGradient id="paint10_linear_37_722" x1="610.463" y1="184.781" x2="614.935" y2="136.648" gradientUnits="userSpaceOnUse">
<stop/>
<stop offset="0.6919" stop-color="#2A2149"/>
<stop offset="1" stop-color="#3E3268"/>
</linearGradient>
<linearGradient id="paint11_linear_37_722" x1="640.665" y1="221.222" x2="619.644" y2="221.222" gradientUnits="userSpaceOnUse">
<stop stop-color="#703ED1"/>
<stop offset="0.6209" stop-color="#62529F"/>
<stop offset="1" stop-color="#573ED1"/>
</linearGradient>
<radialGradient id="paint12_radial_37_722" cx="0" cy="0" r="1" gradientUnits="userSpaceOnUse" gradientTransform="translate(677.403 168.077) rotate(180) scale(89.8288 108.317)">
<stop stop-color="#04060C"/>
<stop offset="0.661458" stop-color="#564592"/>
<stop offset="0.927083" stop-color="#8A84BC"/>
<stop offset="0.9899" stop-color="#B2ABF2"/>
</radialGradient>
<linearGradient id="paint13_linear_37_722" x1="672.813" y1="231.726" x2="577.943" y2="231.726" gradientUnits="userSpaceOnUse">
<stop stop-color="#47397A"/>
<stop offset="0.6209" stop-color="#53428D"/>
<stop offset="1" stop-color="#8E83CC"/>
</linearGradient>
<linearGradient id="paint14_linear_37_722" x1="618.553" y1="248.948" x2="628.878" y2="162.124" gradientUnits="userSpaceOnUse">
<stop/>
<stop offset="0.6919" stop-color="#2A2149"/>
<stop offset="1" stop-color="#3E3268"/>
</linearGradient>
<linearGradient id="paint15_linear_37_722" x1="672.129" y1="202.726" x2="581.014" y2="202.726" gradientUnits="userSpaceOnUse">
<stop stop-color="#010002"/>
<stop offset="0.0253277" stop-color="#030106"/>
<stop offset="0.1915" stop-color="#0F0419"/>
<stop offset="0.3616" stop-color="#170524"/>
<stop offset="0.5404" stop-color="#190628"/>
<stop offset="0.7029" stop-color="#0B0312"/>
<stop offset="0.8596" stop-color="#030105"/>
<stop offset="1"/>
</linearGradient>
<linearGradient id="paint16_linear_37_722" x1="632.542" y1="209.977" x2="610.234" y2="247.546" gradientUnits="userSpaceOnUse">
<stop stop-color="#564592"/>
<stop offset="0.6209" stop-color="#755FC5"/>
<stop offset="1" stop-color="#B2ABF2"/>
</linearGradient>
<linearGradient id="paint17_linear_37_722" x1="605.437" y1="223.14" x2="611.639" y2="173.071" gradientUnits="userSpaceOnUse">
<stop/>
<stop offset="0.6919" stop-color="#2A2149"/>
<stop offset="1" stop-color="#3E3268"/>
</linearGradient>
<linearGradient id="paint18_linear_37_722" x1="579.979" y1="175.431" x2="542.538" y2="175.431" gradientUnits="userSpaceOnUse">
<stop stop-color="#564592"/>
<stop offset="0.6209" stop-color="#6C57B8"/>
<stop offset="1" stop-color="#B2ABF2"/>
</linearGradient>
<linearGradient id="paint19_linear_37_722" x1="530.685" y1="172.627" x2="543.489" y2="169.351" gradientUnits="userSpaceOnUse">
<stop stop-color="white"/>
<stop offset="1" stop-color="#8B949E"/>
</linearGradient>
<linearGradient id="paint20_linear_37_722" x1="547.263" y1="167.204" x2="515.691" y2="173.198" gradientUnits="userSpaceOnUse">
<stop stop-color="white"/>
<stop offset="1" stop-color="#8B949E"/>
</linearGradient>
<linearGradient id="paint21_linear_37_722" x1="549.935" y1="165.839" x2="517.465" y2="172.003" gradientUnits="userSpaceOnUse">
<stop stop-color="white"/>
<stop offset="1" stop-color="#8B949E"/>
</linearGradient>
<linearGradient id="paint22_linear_37_722" x1="589.626" y1="186.564" x2="577.1" y2="201.136" gradientUnits="userSpaceOnUse">
<stop stop-color="#696969"/>
<stop offset="0.2423" stop-color="#9C9C9C"/>
<stop offset="0.4796" stop-color="#C7C7C7"/>
<stop offset="0.6924" stop-color="#E6E6E6"/>
<stop offset="0.873" stop-color="#F8F8F8"/>
<stop offset="1" stop-color="white"/>
</linearGradient>
<radialGradient id="paint23_radial_37_722" cx="0" cy="0" r="1" gradientUnits="userSpaceOnUse" gradientTransform="translate(589.405 190.144) rotate(180) scale(13.5327 16.3179)">
<stop stop-color="#193263"/>
<stop offset="0.5" stop-color="#573ED1"/>
<stop offset="0.902" stop-color="#3F1997"/>
<stop offset="0.9899" stop-color="#39108A"/>
</radialGradient>
<linearGradient id="paint24_linear_37_722" x1="195.27" y1="296.694" x2="203.613" y2="256.562" gradientUnits="userSpaceOnUse">
<stop/>
<stop offset="0.6919" stop-color="#2A2149"/>
<stop offset="1" stop-color="#3E3268"/>
</linearGradient>
<linearGradient id="paint25_linear_37_722" x1="80.337" y1="218.208" x2="88.5534" y2="178.369" gradientUnits="userSpaceOnUse">
<stop/>
<stop offset="0.6919" stop-color="#2A2149"/>
<stop offset="1" stop-color="#3E3268"/>
</linearGradient>
<linearGradient id="paint26_linear_37_722" x1="105.816" y1="232.764" x2="75.8889" y2="199.505" gradientUnits="userSpaceOnUse">
<stop stop-color="#010002"/>
<stop offset="0.0253277" stop-color="#030106"/>
<stop offset="0.1915" stop-color="#0F0419"/>
<stop offset="0.3616" stop-color="#170524"/>
<stop offset="0.5404" stop-color="#190628"/>
<stop offset="0.7029" stop-color="#0B0312"/>
<stop offset="0.8596" stop-color="#030105"/>
<stop offset="1"/>
</linearGradient>
<linearGradient id="paint27_linear_37_722" x1="73.8022" y1="218.501" x2="101.072" y2="218.501" gradientUnits="userSpaceOnUse">
<stop stop-color="#100221"/>
<stop offset="1" stop-color="#10054D"/>
</linearGradient>
<radialGradient id="paint28_radial_37_722" cx="0" cy="0" r="1" gradientUnits="userSpaceOnUse" gradientTransform="translate(90.2449 217.946) scale(14.7309 17.7627)">
<stop stop-color="white"/>
<stop offset="1"/>
</radialGradient>
<linearGradient id="paint29_linear_37_722" x1="77.3892" y1="218.772" x2="98.3902" y2="218.772" gradientUnits="userSpaceOnUse">
<stop stop-color="#BCBEC0"/>
<stop offset="1" stop-color="#E6E7E8"/>
</linearGradient>
<linearGradient id="paint30_linear_37_722" x1="76.7354" y1="219.087" x2="97.7362" y2="219.087" gradientUnits="userSpaceOnUse">
<stop stop-color="#BCBEC0"/>
<stop offset="1" stop-color="#E6E7E8"/>
</linearGradient>
<linearGradient id="paint31_linear_37_722" x1="220.37" y1="310.364" x2="190.442" y2="277.106" gradientUnits="userSpaceOnUse">
<stop stop-color="#010002"/>
<stop offset="0.0253277" stop-color="#030106"/>
<stop offset="0.1915" stop-color="#0F0419"/>
<stop offset="0.3616" stop-color="#170524"/>
<stop offset="0.5404" stop-color="#190628"/>
<stop offset="0.7029" stop-color="#0B0312"/>
<stop offset="0.8596" stop-color="#030105"/>
<stop offset="1"/>
</linearGradient>
<linearGradient id="paint32_linear_37_722" x1="188.356" y1="296.101" x2="215.626" y2="296.101" gradientUnits="userSpaceOnUse">
<stop stop-color="#10051F"/>
<stop offset="1" stop-color="#10054D"/>
</linearGradient>
<radialGradient id="paint33_radial_37_722" cx="0" cy="0" r="1" gradientUnits="userSpaceOnUse" gradientTransform="translate(204.798 295.546) scale(14.7309 17.7627)">
<stop stop-color="white"/>
<stop offset="1"/>
</radialGradient>
<linearGradient id="paint34_linear_37_722" x1="191.943" y1="296.372" x2="212.944" y2="296.372" gradientUnits="userSpaceOnUse">
<stop stop-color="#BCBEC0"/>
<stop offset="1" stop-color="#E6E7E8"/>
</linearGradient>
<linearGradient id="paint35_linear_37_722" x1="191.289" y1="296.688" x2="212.291" y2="296.688" gradientUnits="userSpaceOnUse">
<stop stop-color="#BCBEC0"/>
<stop offset="1" stop-color="#E6E7E8"/>
</linearGradient>
<radialGradient id="paint36_radial_37_722" cx="0" cy="0" r="1" gradientUnits="userSpaceOnUse" gradientTransform="translate(121.259 139.672) rotate(180) scale(210.457 253.771)">
<stop stop-color="#B2ABF2"/>
<stop offset="0.5" stop-color="#564592"/>
<stop offset="0.902" stop-color="#443674"/>
<stop offset="0.9899" stop-color="#312754"/>
</radialGradient>
<linearGradient id="paint37_linear_37_722" x1="128.896" y1="184.929" x2="104.148" y2="144.566" gradientUnits="userSpaceOnUse">
<stop stop-color="#564592"/>
<stop offset="0.6209" stop-color="#6F59BD"/>
<stop offset="1" stop-color="#B2ABF2"/>
</linearGradient>
<linearGradient id="paint38_linear_37_722" x1="219.495" y1="213.404" x2="164.249" y2="159.389" gradientUnits="userSpaceOnUse">
<stop stop-color="#564592"/>
<stop offset="0.6209" stop-color="#6D56BE"/>
<stop offset="1" stop-color="#B2ABF2"/>
</linearGradient>
<linearGradient id="paint39_linear_37_722" x1="277.452" y1="225.937" x2="210.086" y2="225.937" gradientUnits="userSpaceOnUse">
<stop stop-color="#010002"/>
<stop offset="0.0253277" stop-color="#030106"/>
<stop offset="0.1915" stop-color="#0F0419"/>
<stop offset="0.3616" stop-color="#170524"/>
<stop offset="0.5404" stop-color="#190628"/>
<stop offset="0.7029" stop-color="#0B0312"/>
<stop offset="0.8596" stop-color="#030105"/>
<stop offset="1"/>
</linearGradient>
<linearGradient id="paint40_linear_37_722" x1="237.717" y1="270.559" x2="251.487" y2="187.789" gradientUnits="userSpaceOnUse">
<stop/>
<stop offset="0.6919" stop-color="#2A2149"/>
<stop offset="1" stop-color="#3E3268"/>
</linearGradient>
<linearGradient id="paint41_linear_37_722" x1="186.813" y1="165.998" x2="109.585" y2="165.998" gradientUnits="userSpaceOnUse">
<stop stop-color="#010002"/>
<stop offset="0.0253277" stop-color="#030106"/>
<stop offset="0.1915" stop-color="#0F0419"/>
<stop offset="0.3616" stop-color="#170524"/>
<stop offset="0.5404" stop-color="#190628"/>
<stop offset="0.7029" stop-color="#0B0312"/>
<stop offset="0.8596" stop-color="#030105"/>
<stop offset="1"/>
</linearGradient>
<linearGradient id="paint42_linear_37_722" x1="140.463" y1="190.81" x2="144.935" y2="142.677" gradientUnits="userSpaceOnUse">
<stop/>
<stop offset="0.6919" stop-color="#2A2149"/>
<stop offset="1" stop-color="#3E3268"/>
</linearGradient>
<linearGradient id="paint43_linear_37_722" x1="170.665" y1="227.251" x2="149.644" y2="227.251" gradientUnits="userSpaceOnUse">
<stop stop-color="#703ED1"/>
<stop offset="0.6209" stop-color="#62529F"/>
<stop offset="1" stop-color="#573ED1"/>
</linearGradient>
<radialGradient id="paint44_radial_37_722" cx="0" cy="0" r="1" gradientUnits="userSpaceOnUse" gradientTransform="translate(258.089 235.798) rotate(180) scale(36.7771 44.3463)">
<stop stop-color="#B2ABF2"/>
<stop offset="0.5" stop-color="#564592"/>
<stop offset="0.902" stop-color="#3F326A"/>
<stop offset="0.9899" stop-color="#342959"/>
</radialGradient>
<linearGradient id="paint45_linear_37_722" x1="260.444" y1="283.778" x2="227.426" y2="283.778" gradientUnits="userSpaceOnUse">
<stop stop-color="#47397A"/>
<stop offset="0.6209" stop-color="#5B4A97"/>
<stop offset="1" stop-color="#867AC4"/>
</linearGradient>
<radialGradient id="paint46_radial_37_722" cx="0" cy="0" r="1" gradientUnits="userSpaceOnUse" gradientTransform="translate(260.675 275.727) rotate(180) scale(26.0716 12.1464)">
<stop stop-color="#E75A7C"/>
<stop offset="1" stop-color="#B7445F"/>
</radialGradient>
<radialGradient id="paint47_radial_37_722" cx="0" cy="0" r="1" gradientUnits="userSpaceOnUse" gradientTransform="translate(259.423 275.861) rotate(180) scale(24.8405 11.6495)">
<stop stop-color="#E75A7C"/>
<stop offset="1" stop-color="#B7445F"/>
</radialGradient>
<radialGradient id="paint48_radial_37_722" cx="0" cy="0" r="1" gradientUnits="userSpaceOnUse" gradientTransform="translate(258.541 275.984) rotate(180) scale(23.765 11.1148)">
<stop stop-color="#E75A7C"/>
<stop offset="1" stop-color="#B7445F"/>
</radialGradient>
<radialGradient id="paint49_radial_37_722" cx="0" cy="0" r="1" gradientUnits="userSpaceOnUse" gradientTransform="translate(258.24 276.139) rotate(180) scale(22.7978 10.7369)">
<stop stop-color="#E75A7C"/>
<stop offset="1" stop-color="#B7445F"/>
</radialGradient>
<radialGradient id="paint50_radial_37_722" cx="0" cy="0" r="1" gradientUnits="userSpaceOnUse" gradientTransform="translate(258.078 276.429) rotate(180) scale(22.4305 10.4042)">
<stop stop-color="#E75A7C"/>
<stop offset="1" stop-color="#B7445F"/>
</radialGradient>
<radialGradient id="paint51_radial_37_722" cx="0" cy="0" r="1" gradientUnits="userSpaceOnUse" gradientTransform="translate(258.078 276.547) rotate(180) scale(21.8768 9.85461)">
<stop stop-color="#E75A7C"/>
<stop offset="1" stop-color="#B7445F"/>
</radialGradient>
<radialGradient id="paint52_radial_37_722" cx="0" cy="0" r="1" gradientUnits="userSpaceOnUse" gradientTransform="translate(257.917 276.577) rotate(180) scale(21.3103 9.41785)">
<stop stop-color="#E75A7C"/>
<stop offset="1" stop-color="#B7445F"/>
</radialGradient>
<radialGradient id="paint53_radial_37_722" cx="0" cy="0" r="1" gradientUnits="userSpaceOnUse" gradientTransform="translate(257.592 276.701) rotate(180) scale(20.8718 9.05541)">
<stop stop-color="#E75A7C"/>
<stop offset="1" stop-color="#B7445F"/>
</radialGradient>
<radialGradient id="paint54_radial_37_722" cx="0" cy="0" r="1" gradientUnits="userSpaceOnUse" gradientTransform="translate(257.755 276.955) rotate(180) scale(20.7365 8.7813)">
<stop stop-color="#E75A7C"/>
<stop offset="1" stop-color="#B7445F"/>
</radialGradient>
<radialGradient id="paint55_radial_37_722" cx="0" cy="0" r="1" gradientUnits="userSpaceOnUse" gradientTransform="translate(257.593 276.925) rotate(180) scale(20.5761 8.40741)">
<stop stop-color="#E75A7C"/>
<stop offset="1" stop-color="#B7445F"/>
</radialGradient>
<radialGradient id="paint56_radial_37_722" cx="0" cy="0" r="1" gradientUnits="userSpaceOnUse" gradientTransform="translate(257.43 276.875) rotate(180) scale(20.5761 8.23359)">
<stop stop-color="#E75A7C"/>
<stop offset="1" stop-color="#B7445F"/>
</radialGradient>
<radialGradient id="paint57_radial_37_722" cx="0" cy="0" r="1" gradientUnits="userSpaceOnUse" gradientTransform="translate(257.267 276.979) rotate(180) scale(20.4483 7.91079)">
<stop stop-color="#E75A7C"/>
<stop offset="1" stop-color="#B7445F"/>
</radialGradient>
<linearGradient id="paint58_linear_37_722" x1="299.552" y1="251.603" x2="288.909" y2="251.603" gradientUnits="userSpaceOnUse">
<stop stop-color="#564592"/>
<stop offset="0.6209" stop-color="#725CBF"/>
<stop offset="1" stop-color="#B2ABF2"/>
</linearGradient>
<radialGradient id="paint59_radial_37_722" cx="0" cy="0" r="1" gradientUnits="userSpaceOnUse" gradientTransform="translate(299.548 245.963) rotate(180) scale(8.30713 13.2384)">
<stop stop-color="#E75A7C"/>
<stop offset="1" stop-color="#B7445F"/>
</radialGradient>
<radialGradient id="paint60_radial_37_722" cx="0" cy="0" r="1" gradientUnits="userSpaceOnUse" gradientTransform="translate(299.223 245.778) rotate(180) scale(8.05152 12.5926)">
<stop stop-color="#E75A7C"/>
<stop offset="1" stop-color="#B7445F"/>
</radialGradient>
<radialGradient id="paint61_radial_37_722" cx="0" cy="0" r="1" gradientUnits="userSpaceOnUse" gradientTransform="translate(299.223 246.032) rotate(180) scale(7.7959 12.1083)">
<stop stop-color="#E75A7C"/>
<stop offset="1" stop-color="#B7445F"/>
</radialGradient>
<radialGradient id="paint62_radial_37_722" cx="0" cy="0" r="1" gradientUnits="userSpaceOnUse" gradientTransform="translate(299.061 246.043) rotate(180) scale(7.54035 11.4625)">
<stop stop-color="#E75A7C"/>
<stop offset="1" stop-color="#B7445F"/>
</radialGradient>
<radialGradient id="paint63_radial_37_722" cx="0" cy="0" r="1" gradientUnits="userSpaceOnUse" gradientTransform="translate(299.061 246.251) rotate(180) scale(7.28473 10.8167)">
<stop stop-color="#E75A7C"/>
<stop offset="1" stop-color="#B7445F"/>
</radialGradient>
<radialGradient id="paint64_radial_37_722" cx="0" cy="0" r="1" gradientUnits="userSpaceOnUse" gradientTransform="translate(298.899 246.458) rotate(180) scale(7.02911 10.171)">
<stop stop-color="#E75A7C"/>
<stop offset="1" stop-color="#B7445F"/>
</radialGradient>
<radialGradient id="paint65_radial_37_722" cx="0" cy="0" r="1" gradientUnits="userSpaceOnUse" gradientTransform="translate(298.9 246.562) rotate(180) scale(6.77353 9.84808)">
<stop stop-color="#E75A7C"/>
<stop offset="1" stop-color="#B7445F"/>
</radialGradient>
<radialGradient id="paint66_radial_37_722" cx="0" cy="0" r="1" gradientUnits="userSpaceOnUse" gradientTransform="translate(299.062 246.769) rotate(180) scale(6.51791 9.20227)">
<stop stop-color="#E75A7C"/>
<stop offset="1" stop-color="#B7445F"/>
</radialGradient>
<radialGradient id="paint67_radial_37_722" cx="0" cy="0" r="1" gradientUnits="userSpaceOnUse" gradientTransform="translate(298.9 246.826) rotate(180) scale(6.26229 8.71801)">
<stop stop-color="#E75A7C"/>
<stop offset="1" stop-color="#B7445F"/>
</radialGradient>
<radialGradient id="paint68_radial_37_722" cx="0" cy="0" r="1" gradientUnits="userSpaceOnUse" gradientTransform="translate(298.738 247.034) rotate(180) scale(6.00671 8.07219)">
<stop stop-color="#E75A7C"/>
<stop offset="1" stop-color="#B7445F"/>
</radialGradient>
<radialGradient id="paint69_radial_37_722" cx="0" cy="0" r="1" gradientUnits="userSpaceOnUse" gradientTransform="translate(298.575 247.045) rotate(180) scale(5.75109 7.42642)">
<stop stop-color="#E75A7C"/>
<stop offset="1" stop-color="#B7445F"/>
</radialGradient>
<radialGradient id="paint70_radial_37_722" cx="0" cy="0" r="1" gradientUnits="userSpaceOnUse" gradientTransform="translate(298.575 247.252) rotate(180) scale(5.62328 6.78066)">
<stop stop-color="#E75A7C"/>
<stop offset="1" stop-color="#B7445F"/>
</radialGradient>
<radialGradient id="paint71_radial_37_722" cx="0" cy="0" r="1" gradientUnits="userSpaceOnUse" gradientTransform="translate(207.403 174.106) rotate(180) scale(89.8288 108.317)">
<stop stop-color="#04060C"/>
<stop offset="0.661458" stop-color="#564592"/>
<stop offset="0.927083" stop-color="#8A84BC"/>
<stop offset="0.9899" stop-color="#B2ABF2"/>
</radialGradient>
<linearGradient id="paint72_linear_37_722" x1="277.237" y1="286.356" x2="270.82" y2="266.84" gradientUnits="userSpaceOnUse">
<stop stop-color="white"/>
<stop offset="1" stop-color="#8B949E"/>
</linearGradient>
<linearGradient id="paint73_linear_37_722" x1="277.555" y1="285.69" x2="271.137" y2="266.175" gradientUnits="userSpaceOnUse">
<stop stop-color="white"/>
<stop offset="1" stop-color="#8B949E"/>
</linearGradient>
<linearGradient id="paint74_linear_37_722" x1="287.747" y1="263.779" x2="261.651" y2="263.779" gradientUnits="userSpaceOnUse">
<stop stop-color="#564592"/>
<stop offset="0.6209" stop-color="#705BB9"/>
<stop offset="1" stop-color="#B2ABF2"/>
</linearGradient>
<linearGradient id="paint75_linear_37_722" x1="296.466" y1="293.99" x2="247.236" y2="293.99" gradientUnits="userSpaceOnUse">
<stop stop-color="#100221"/>
<stop offset="1" stop-color="#10054D"/>
</linearGradient>
<linearGradient id="paint76_linear_37_722" x1="202.813" y1="237.755" x2="107.943" y2="237.755" gradientUnits="userSpaceOnUse">
<stop stop-color="#47397A"/>
<stop offset="0.6209" stop-color="#53428D"/>
<stop offset="1" stop-color="#8E83CC"/>
</linearGradient>
<linearGradient id="paint77_linear_37_722" x1="148.553" y1="254.977" x2="158.878" y2="168.153" gradientUnits="userSpaceOnUse">
<stop/>
<stop offset="0.6919" stop-color="#2A2149"/>
<stop offset="1" stop-color="#3E3268"/>
</linearGradient>
<linearGradient id="paint78_linear_37_722" x1="202.129" y1="208.755" x2="111.014" y2="208.755" gradientUnits="userSpaceOnUse">
<stop stop-color="#010002"/>
<stop offset="0.0253277" stop-color="#030106"/>
<stop offset="0.1915" stop-color="#0F0419"/>
<stop offset="0.3616" stop-color="#170524"/>
<stop offset="0.5404" stop-color="#190628"/>
<stop offset="0.7029" stop-color="#0B0312"/>
<stop offset="0.8596" stop-color="#030105"/>
<stop offset="1"/>
</linearGradient>
<linearGradient id="paint79_linear_37_722" x1="162.542" y1="216.006" x2="140.234" y2="253.575" gradientUnits="userSpaceOnUse">
<stop stop-color="#564592"/>
<stop offset="0.6209" stop-color="#755FC5"/>
<stop offset="1" stop-color="#B2ABF2"/>
</linearGradient>
<linearGradient id="paint80_linear_37_722" x1="135.437" y1="229.169" x2="141.638" y2="179.1" gradientUnits="userSpaceOnUse">
<stop/>
<stop offset="0.6919" stop-color="#2A2149"/>
<stop offset="1" stop-color="#3E3268"/>
</linearGradient>
<linearGradient id="paint81_linear_37_722" x1="173.951" y1="242.741" x2="185.041" y2="188.87" gradientUnits="userSpaceOnUse">
<stop/>
<stop offset="0.6919" stop-color="#2A2149"/>
<stop offset="1" stop-color="#3E3268"/>
</linearGradient>
<linearGradient id="paint82_linear_37_722" x1="109.979" y1="181.46" x2="72.5382" y2="181.46" gradientUnits="userSpaceOnUse">
<stop stop-color="#564592"/>
<stop offset="0.6209" stop-color="#6C57B8"/>
<stop offset="1" stop-color="#B2ABF2"/>
</linearGradient>
<linearGradient id="paint83_linear_37_722" x1="60.6846" y1="178.656" x2="73.4884" y2="175.381" gradientUnits="userSpaceOnUse">
<stop stop-color="white"/>
<stop offset="1" stop-color="#8B949E"/>
</linearGradient>
<linearGradient id="paint84_linear_37_722" x1="77.2628" y1="173.233" x2="45.6911" y2="179.227" gradientUnits="userSpaceOnUse">
<stop stop-color="white"/>
<stop offset="1" stop-color="#8B949E"/>
</linearGradient>
<linearGradient id="paint85_linear_37_722" x1="79.9353" y1="171.868" x2="47.4647" y2="178.032" gradientUnits="userSpaceOnUse">
<stop stop-color="white"/>
<stop offset="1" stop-color="#8B949E"/>
</linearGradient>
<linearGradient id="paint86_linear_37_722" x1="119.626" y1="192.593" x2="107.1" y2="207.165" gradientUnits="userSpaceOnUse">
<stop stop-color="#696969"/>
<stop offset="0.2423" stop-color="#9C9C9C"/>
<stop offset="0.4796" stop-color="#C7C7C7"/>
<stop offset="0.6924" stop-color="#E6E6E6"/>
<stop offset="0.873" stop-color="#F8F8F8"/>
<stop offset="1" stop-color="white"/>
</linearGradient>
<radialGradient id="paint87_radial_37_722" cx="0" cy="0" r="1" gradientUnits="userSpaceOnUse" gradientTransform="translate(119.405 196.173) rotate(180) scale(13.5327 16.3179)">
<stop stop-color="#193263"/>
<stop offset="0.5" stop-color="#573ED1"/>
<stop offset="0.902" stop-color="#3F1997"/>
<stop offset="0.9899" stop-color="#39108A"/>
</radialGradient>
</defs>
</svg>
