<svg xmlns="http://www.w3.org/2000/svg" width="90" height="90" fill="none" viewBox="0 0 90 90">
  <g clip-path="url(#a)">
    <path fill="#4BF7F9" fill-rule="evenodd" d="M90 0H0v90h90V0ZM23.726 28.26h42.368c.803 0 1.572.32 2.14.891.567.571.886 1.346.886 2.153v27.392c0 .808-.319 1.582-.886 2.153a3.018 3.018 0 0 1-2.14.891H23.726c-.802 0-1.572-.32-2.14-.892a3.052 3.052 0 0 1-.886-2.152V31.304c0-.807.319-1.582.886-2.152a3.017 3.017 0 0 1 2.14-.892Zm.757 6.026v23.65h40.854v-23.65L48.723 49.504a5.61 5.61 0 0 1-3.813 1.497 5.61 5.61 0 0 1-3.813-1.496l-16.614-15.22Z" clip-rule="evenodd"/>
  </g>
  <defs>
    <clipPath id="a">
      <rect width="90" height="90" fill="#fff" rx="20"/>
    </clipPath>
  </defs>
</svg>
