<svg xmlns="http://www.w3.org/2000/svg" width="90" height="90" fill="none" viewBox="0 0 90 90">
  <g clip-path="url(#a)">
    <path fill="url(#b)" fill-rule="evenodd" d="M90 0H0v90h90V0ZM64.849 24.843h.066c.624 0 1.204.194 1.68.529l-.01-.006c.347.302.58.726.637 1.204v.009c.06.365.092.783.092 1.21 0 .194-.006.386-.02.577v-.027c-.673 7.079-3.59 24.245-5.071 32.17-.628 3.355-1.862 4.478-3.057 4.586-2.056.192-3.72-.995-5.573-2.317-.488-.347-.988-.704-1.512-1.047a339.825 339.825 0 0 1-5.208-3.497 359.382 359.382 0 0 0-4.778-3.215c-3.805-2.503-2.21-4.04-.087-6.086.343-.33.7-.674 1.05-1.037.157-.165.936-.889 2.03-1.907 3.473-3.229 10.13-9.42 10.3-10.138a.922.922 0 0 0-.21-.792 1.014 1.014 0 0 0-.551-.158c-.135 0-.263.027-.383.072l.006-.004c-.394.09-6.685 4.247-18.872 12.472a8.382 8.382 0 0 1-4.838 1.79h-.018a31.494 31.494 0 0 1-7.173-1.711c-.262-.085-.518-.165-.767-.244-2.318-.731-4.019-1.268-3.85-2.628.101-.805 1.21-1.629 3.328-2.471 13.044-5.684 21.742-9.43 26.095-11.238 4.801-2.55 10.368-4.647 16.222-6.006l.47-.093.002.003Z" clip-rule="evenodd"/>
    <path fill="#4BF7F9" fill-rule="evenodd" d="M90 0H0v90h90V0ZM64.849 24.843h.066c.624 0 1.204.194 1.68.529l-.01-.006c.347.302.58.726.637 1.204v.009c.06.365.092.783.092 1.21 0 .194-.006.386-.02.577v-.027c-.673 7.079-3.59 24.245-5.071 32.17-.628 3.355-1.862 4.478-3.057 4.586-2.056.192-3.72-.995-5.573-2.317-.488-.347-.988-.704-1.512-1.047a339.825 339.825 0 0 1-5.208-3.497 359.382 359.382 0 0 0-4.778-3.215c-3.805-2.503-2.21-4.04-.087-6.086.343-.33.7-.674 1.05-1.037.157-.165.936-.889 2.03-1.907 3.473-3.229 10.13-9.42 10.3-10.138a.922.922 0 0 0-.21-.792 1.014 1.014 0 0 0-.551-.158c-.135 0-.263.027-.383.072l.006-.004c-.394.09-6.685 4.247-18.872 12.472a8.382 8.382 0 0 1-4.838 1.79h-.018a31.494 31.494 0 0 1-7.173-1.711c-.262-.085-.518-.165-.767-.244-2.318-.731-4.019-1.268-3.85-2.628.101-.805 1.21-1.629 3.328-2.471 13.044-5.684 21.742-9.43 26.095-11.238 4.801-2.55 10.368-4.647 16.222-6.006l.47-.093.002.003Z" clip-rule="evenodd"/>
  </g>
  <defs>
    <linearGradient id="b" x1="-11.625" x2="30.45" y1="90" y2="21.286" gradientUnits="userSpaceOnUse">
      <stop stop-color="#2577FE"/>
      <stop offset="1" stop-color="#4BF7F9"/>
    </linearGradient>
    <clipPath id="a">
      <rect width="90" height="90" fill="#fff" rx="20"/>
    </clipPath>
  </defs>
</svg>
