<svg width="380" height="66" viewBox="0 0 380 66" fill="none" xmlns="http://www.w3.org/2000/svg">
<path d="M0.00327604 50.5277L69.3341 50.5277M0 15.474L69.3341 15.474M8.9272 66L8.9272 -7.25404e-07M69.3341 55.3909V45.6661M69.3341 20.8086V11.0837" stroke="#B2ABF2" stroke-width="2" stroke-miterlimit="10"/>
<path d="M25.2334 31.5051V41.1966H52.0759V37.876H42.57V31.5051C42.57 26.756 38.7131 22.8948 33.9212 22.8948C29.1293 22.8948 25.2334 26.756 25.2334 31.5051ZM39.2196 31.5051V37.876H28.5838V31.5051C28.5838 28.6093 30.9603 26.2154 33.9212 26.2154C36.8431 26.2154 39.2196 28.6093 39.2196 31.5051Z" fill="white"/>
<path d="M55.6202 22.1322H61.5339L64.6252 22.9996C61.9273 23.3976 58.3001 24.7198 58.146 33.0054C58.3001 41.2893 61.9273 42.6066 64.6252 43.003L61.5339 43.8687H55.6202C55.0334 43.1752 54.6368 42.082 54.7171 40.7419C54.7171 40.7419 52.8994 40.7419 52.1519 39.1176C52.1022 39.012 52.0589 38.9036 52.0225 38.7928C51.5406 37.097 51.3324 35.5279 51.3472 33.007C51.3324 30.4861 51.5406 28.9105 52.0225 27.2147C52.0589 27.1039 52.1022 26.9954 52.1519 26.8898C52.8994 25.2655 54.7171 25.2655 54.7171 25.2655C54.6433 23.9255 55.0334 22.8258 55.6202 22.1322Z" fill="black" stroke="#B2ABF2" stroke-miterlimit="10"/>
<path d="M51.1276 24.0814C50.8686 24.5557 50.5933 25.095 50.3196 25.6813C49.3689 27.728 48.4576 30.3788 48.4576 33.0021C48.4576 35.6254 49.3689 38.2681 50.3196 40.3196C50.5949 40.9076 50.8703 41.4566 51.1293 41.9228C47.7593 38.7765 47.7577 33.2035 47.7593 33.007C47.7577 32.8056 47.7593 27.2228 51.1276 24.0814Z" fill="black" stroke="#B2ABF2" stroke-miterlimit="10"/>
<path d="M55.0531 22.1322H55.6169C55.0301 22.8258 54.6335 23.919 54.7138 25.259C54.7138 25.259 52.896 25.259 52.1486 26.8833L50.3162 25.683C50.5899 25.0966 50.8652 24.5573 51.1242 24.083C52.2131 23.0659 53.5791 22.3876 55.0531 22.1322V22.1322Z" fill="black" stroke="#B2ABF2" stroke-miterlimit="10"/>
<path d="M97.3574 22.9574L94.8398 23.932L92.2173 24.9537H92.1878L91.1125 22.1322H93.6695C94.9479 22.1094 96.2129 22.3924 97.3574 22.9574Z" fill="black" stroke="#B2ABF2" stroke-miterlimit="10"/>
<path d="M61.5339 22.1322L91.1125 22.1322L92.1926 24.9618L71.6486 24.9618L71.4912 24.9179L64.6285 22.9964H64.6252L61.5339 22.1322Z" fill="black" stroke="#B2ABF2" stroke-miterlimit="10"/>
<path d="M64.6252 22.9996L71.488 24.9212L71.4732 24.965C71.0126 26.3652 70.4504 28.9462 70.4996 33.0054C70.4504 37.0661 71.0126 39.6374 71.4732 41.0376L71.488 41.0814L64.6285 43.0046C61.9273 42.6083 58.3001 41.2926 58.146 33.007C58.3001 24.7165 61.9273 23.3943 64.6252 22.9996Z" fill="black" stroke="#B2ABF2" stroke-miterlimit="10"/>
<path d="M71.4766 24.9618L92.1124 24.9618C93.0401 26.4935 94.6202 29.6024 94.6202 32.981V32.9989C94.6202 36.3774 93.0401 39.5075 92.1124 41.0392H71.4766C71.016 39.639 70.4538 37.0661 70.503 33.007C70.4604 28.943 71.016 26.3619 71.4766 24.9618Z" fill="black" stroke="#B2ABF2" stroke-miterlimit="10"/>
<path d="M94.838 23.9401C96.3443 25.0073 98.6784 29.518 98.6784 33.0021V33.0151C98.6784 36.4992 96.3443 40.9937 94.838 42.0609L92.2155 41.0392H92.1057C93.0334 39.5075 94.6135 36.3774 94.6135 32.9989V32.981C94.6135 29.6024 93.0334 26.4935 92.1057 24.9618H92.2155L94.838 23.9401Z" fill="black" stroke="#B2ABF2" stroke-miterlimit="10"/>
<path d="M92.1926 24.9615L92.2222 25.0398" stroke="#B2ABF2" stroke-miterlimit="10"/>
<path d="M71.6486 41.0392H92.1926L91.1125 43.8687H61.5339L64.6252 43.0046H64.6285L71.4912 41.083L71.6486 41.0392Z" fill="black" stroke="#B2ABF2" stroke-miterlimit="10"/>
<path d="M92.1927 41.0392H92.2222L94.8447 42.0609L97.3574 43.0436C96.2129 43.6085 94.9479 43.8916 93.6695 43.8687H91.1125L92.1927 41.0392Z" fill="black" stroke="#B2ABF2" stroke-miterlimit="10"/>
<path d="M97.3572 22.9574C98.7373 23.6656 100.075 24.978 100.501 27.3999V38.593C100.075 41.0294 98.7373 42.3289 97.3572 43.0436L94.8396 42.0609C96.3459 40.9937 98.6799 36.4992 98.6799 33.0151V33.0021C98.6799 29.518 96.3459 25.0073 94.8396 23.9401L97.3572 22.9574Z" fill="black" stroke="#B2ABF2" stroke-miterlimit="10"/>
<path d="M52.1519 39.1193C52.8993 40.7436 54.717 40.7436 54.717 40.7436C54.6433 42.0771 55.0334 43.18 55.6201 43.8704H55.053C53.5776 43.616 52.2099 42.9383 51.1193 41.9212V41.9212C50.8603 41.4469 50.5849 40.906 50.3096 40.318L52.1519 39.1193Z" fill="black" stroke="#B2ABF2" stroke-miterlimit="10"/>
<path d="M92.2222 40.9609L92.1926 41.0392" stroke="#B2ABF2" stroke-miterlimit="10"/>
<path d="M50.3195 25.6813L52.152 26.8817C52.1022 26.9873 52.059 27.0958 52.0225 27.2066C51.5406 28.9023 51.3324 30.4779 51.3472 32.9988C51.3324 35.5198 51.5406 37.0889 52.0225 38.7846C52.059 38.8954 52.1022 39.0039 52.152 39.1095L50.3195 40.3196C49.3688 38.2681 48.4575 35.6254 48.4575 33.0021C48.4575 30.3788 49.3688 27.728 50.3195 25.6813Z" fill="black" stroke="#B2ABF2" stroke-miterlimit="10"/>
<path d="M117.826 23.944H111.33V21H127.603V23.944H121.106V45H117.826V23.944Z" fill="white"/>
<path d="M142.476 39.688H130.609L128.519 45H125.077L134.5 21H138.649L148.04 45H144.567L142.476 39.688ZM141.318 36.712L136.559 24.52L131.767 36.712H141.318Z" fill="white"/>
<path d="M159.773 31.56C160.824 31.56 161.714 31.1973 162.443 30.472C163.172 29.7467 163.536 28.8507 163.536 27.784C163.536 26.7387 163.161 25.8427 162.41 25.096C161.682 24.3493 160.802 23.976 159.773 23.976H154.145V31.56H159.773ZM150.929 21H159.773C161.146 21 162.357 21.2987 163.407 21.896C164.479 22.4933 165.305 23.3147 165.884 24.36C166.463 25.384 166.752 26.5253 166.752 27.784C166.752 29.128 166.42 30.344 165.755 31.432C165.112 32.4987 164.211 33.2987 163.054 33.832L168.392 45H164.855L159.806 34.536H159.773H154.145V45H150.929V21Z" fill="white"/>
<path d="M183.296 45.32C181.045 45.32 178.976 44.776 177.089 43.688C175.202 42.5787 173.701 41.0853 172.586 39.208C171.493 37.3093 170.946 35.24 170.946 33C170.946 30.76 171.493 28.7013 172.586 26.824C173.701 24.9253 175.202 23.432 177.089 22.344C178.976 21.2347 181.045 20.68 183.296 20.68C185.033 20.68 186.683 21.0107 188.249 21.672C189.814 22.3333 191.186 23.2613 192.365 24.456L190.082 26.664C189.203 25.7893 188.174 25.1067 186.994 24.616C185.837 24.1253 184.604 23.88 183.296 23.88C181.624 23.88 180.08 24.2853 178.665 25.096C177.271 25.9067 176.167 27.016 175.352 28.424C174.538 29.8107 174.13 31.336 174.13 33C174.13 34.664 174.538 36.2 175.352 37.608C176.167 38.9947 177.271 40.0933 178.665 40.904C180.08 41.7147 181.624 42.12 183.296 42.12C184.518 42.12 185.676 41.9067 186.769 41.48C187.884 41.032 188.87 40.424 189.728 39.656V34.536H182.974V31.56H192.88V45H189.728V43.048C187.734 44.5627 185.59 45.32 183.296 45.32Z" fill="white"/>
<path d="M198.483 21H212.119V23.976H201.699V31.496H210.769V34.472H201.699V42.024H212.119V45H198.483V21Z" fill="white"/>
<path d="M220.965 23.944H214.469V21H230.742V23.944H224.246V45H220.965V23.944Z" fill="white"/>
<path d="M246.261 34.536V45H243.045V21H251.889C253.261 21 254.472 21.2987 255.523 21.896C256.595 22.4933 257.42 23.3147 257.999 24.36C258.578 25.384 258.868 26.5253 258.868 27.784C258.868 29.0427 258.578 30.1947 257.999 31.24C257.42 32.264 256.595 33.0747 255.523 33.672C254.472 34.248 253.261 34.536 251.889 34.536H246.261ZM251.889 31.56C252.939 31.56 253.829 31.1973 254.558 30.472C255.287 29.7467 255.652 28.8507 255.652 27.784C255.652 26.7387 255.276 25.8427 254.526 25.096C253.797 24.3493 252.918 23.976 251.889 23.976H246.261V31.56H251.889Z" fill="white"/>
<path d="M274.823 39.688H262.956L260.866 45H257.425L266.848 21H270.996L280.387 45H276.914L274.823 39.688ZM273.666 36.712L268.906 24.52L264.114 36.712H273.666Z" fill="white"/>
<path d="M292.121 31.56C293.171 31.56 294.061 31.1973 294.79 30.472C295.519 29.7467 295.883 28.8507 295.883 27.784C295.883 26.7387 295.508 25.8427 294.758 25.096C294.029 24.3493 293.15 23.976 292.121 23.976H286.493V31.56H292.121ZM283.277 21H292.121C293.493 21 294.704 21.2987 295.755 21.896C296.827 22.4933 297.652 23.3147 298.231 24.36C298.81 25.384 299.099 26.5253 299.099 27.784C299.099 29.128 298.767 30.344 298.102 31.432C297.459 32.4987 296.559 33.2987 295.401 33.832L300.74 45H297.202L292.153 34.536H292.121H286.493V45H283.277V21Z" fill="white"/>
<path d="M308.498 34.952L307.598 33.288V45H304.382V21H307.598V30.344L316.796 21H320.88L309.849 32.232L321.105 45H317.182L308.498 34.952ZM307.63 31.976L307.598 31.88V32.008L307.63 31.976Z" fill="white"/>
<path d="M323.607 21H326.823V45H323.607V21Z" fill="white"/>
<path d="M332.648 20.936H335.864L349.918 39.688V20.936H353.134V45H349.918L335.864 26.248V45H332.648V20.936Z" fill="white"/>
<path d="M370.416 45.32C368.165 45.32 366.096 44.776 364.209 43.688C362.323 42.5787 360.822 41.0853 359.707 39.208C358.613 37.3093 358.067 35.24 358.067 33C358.067 30.76 358.613 28.7013 359.707 26.824C360.822 24.9253 362.323 23.432 364.209 22.344C366.096 21.2347 368.165 20.68 370.416 20.68C372.153 20.68 373.804 21.0107 375.369 21.672C376.934 22.3333 378.306 23.2613 379.485 24.456L377.202 26.664C376.323 25.7893 375.294 25.1067 374.115 24.616C372.957 24.1253 371.724 23.88 370.416 23.88C368.744 23.88 367.2 24.2853 365.785 25.096C364.391 25.9067 363.287 27.016 362.473 28.424C361.658 29.8107 361.251 31.336 361.251 33C361.251 34.664 361.658 36.2 362.473 37.608C363.287 38.9947 364.391 40.0933 365.785 40.904C367.2 41.7147 368.744 42.12 370.416 42.12C371.638 42.12 372.796 41.9067 373.89 41.48C375.004 41.032 375.991 40.424 376.848 39.656V34.536H370.095V31.56H380V45H376.848V43.048C374.854 44.5627 372.71 45.32 370.416 45.32Z" fill="white"/>
</svg>
