<svg width="1044" height="673" viewBox="0 0 1044 673" fill="none" xmlns="http://www.w3.org/2000/svg">
<mask id="mask0_85_2151" style="mask-type:alpha" maskUnits="userSpaceOnUse" x="-285" y="0" width="1329" height="1189">
<rect x="-285" y="0.952759" width="1328.53" height="1187.13" fill="url(#paint0_linear_85_2151)"/>
</mask>
<g mask="url(#mask0_85_2151)">
<g opacity="0.3">
<path d="M570.101 573.64C570.101 723.182 451.754 844.388 305.791 844.388C159.828 844.388 41.4816 723.182 41.4816 573.64C41.4816 424.099 159.828 302.893 305.791 302.893C451.754 302.893 570.101 424.099 570.101 573.64Z" stroke="#00CAF0"/>
<path d="M619.099 572.871C619.099 749.841 479.044 893.283 306.303 893.283C133.562 893.283 -6.49316 749.841 -6.49316 572.871C-6.49316 395.9 133.562 252.458 306.303 252.458C479.044 252.458 619.099 395.9 619.099 572.871Z" stroke="#00CAF0"/>
<path d="M666.867 573.331C666.867 777.731 505.104 943.409 305.585 943.409C106.065 943.409 -55.6978 777.731 -55.6978 573.331C-55.6978 368.931 106.065 203.253 305.585 203.253C505.104 203.253 666.867 368.931 666.867 573.331Z" stroke="#00CAF0"/>
<path d="M715.865 572.561C715.865 804.39 532.394 992.304 306.096 992.304C79.7985 992.304 -103.672 804.39 -103.672 572.561C-103.672 340.732 79.7985 152.818 306.096 152.818C532.394 152.818 715.865 340.732 715.865 572.561Z" stroke="#00CAF0"/>
<path d="M764.863 573.022C764.863 832.28 559.684 1042.43 306.608 1042.43C53.5319 1042.43 -151.647 832.28 -151.647 573.022C-151.647 313.763 53.5319 103.614 306.608 103.614C559.684 103.614 764.863 313.763 764.863 573.022Z" stroke="#00CAF0"/>
<path d="M812.631 573.482C812.631 860.169 585.744 1092.55 305.89 1092.55C26.0352 1092.55 -200.852 860.169 -200.852 573.482C-200.852 286.794 26.0352 54.4088 305.89 54.4088C585.744 54.4088 812.631 286.794 812.631 573.482Z" stroke="#00CAF0"/>
<path d="M812.631 573.482C812.631 860.169 585.744 1092.55 305.89 1092.55C26.0352 1092.55 -200.852 860.169 -200.852 573.482C-200.852 286.794 26.0352 54.4088 305.89 54.4088C585.744 54.4088 812.631 286.794 812.631 573.482Z" stroke="#00CAF0"/>
<path d="M523.603 572.63C523.603 695.797 426.129 795.623 305.914 795.623C185.7 795.623 88.2261 695.797 88.2261 572.63C88.2261 449.463 185.7 349.637 305.914 349.637C426.129 349.637 523.603 449.463 523.603 572.63Z" stroke="#00CAF0"/>
<path d="M478.404 573.634C478.404 670.86 401.512 749.656 306.687 749.656C211.862 749.656 134.97 670.86 134.97 573.634C134.97 476.408 211.862 397.612 306.687 397.612C401.512 397.612 478.404 476.408 478.404 573.634Z" stroke="#00CAF0"/>
<path d="M427.969 573.019C427.969 642.051 373.382 697.991 306.072 697.991C238.762 697.991 184.175 642.051 184.175 573.019C184.175 503.987 238.762 448.047 306.072 448.047C373.382 448.047 427.969 503.987 427.969 573.019Z" stroke="#00CAF0"/>
</g>
</g>
<defs>
<linearGradient id="paint0_linear_85_2151" x1="264.169" y1="682.481" x2="531.354" y2="72.4762" gradientUnits="userSpaceOnUse">
<stop stop-color="#D9D9D9"/>
<stop offset="1" stop-color="#D9D9D9" stop-opacity="0"/>
</linearGradient>
</defs>
</svg>
