<svg width="483" height="407" viewBox="0 0 483 407" fill="none" xmlns="http://www.w3.org/2000/svg">
<g clip-path="url(#clip0_224_774)">
<mask id="mask0_224_774" style="mask-type:alpha" maskUnits="userSpaceOnUse" x="47" y="-335" width="904" height="806">
<path d="M950.001 -335H47.9946V471H950.001V-335Z" fill="url(#paint0_linear_224_774)"/>
</mask>
<g mask="url(#mask0_224_774)">
<g opacity="0.3">
<path d="M628.613 53.4875C628.613 154.934 548.33 237.151 449.32 237.151C350.311 237.151 270.027 154.934 270.027 53.4875C270.027 -47.9586 350.311 -130.176 449.32 -130.176C548.33 -130.176 628.613 -47.9586 628.613 53.4875Z" stroke="#00CAF0"/>
<path d="M661.533 53.4875C661.533 173.557 566.511 270.872 449.32 270.872C332.13 270.872 237.108 173.557 237.108 53.4875C237.108 -66.5817 332.13 -163.896 449.32 -163.896C566.511 -163.896 661.533 -66.5817 661.533 53.4875Z" stroke="#00CAF0"/>
<path d="M694.453 53.4876C694.453 192.18 584.692 304.592 449.32 304.592C313.949 304.592 204.188 192.18 204.188 53.4876C204.188 -85.2047 313.949 -197.617 449.32 -197.617C584.692 -197.617 694.453 -85.2047 694.453 53.4876Z" stroke="#00CAF0"/>
<path d="M727.372 53.4875C727.372 210.803 602.873 338.312 449.32 338.312C295.767 338.312 171.268 210.803 171.268 53.4875C171.268 -103.828 295.767 -231.337 449.32 -231.337C602.873 -231.337 727.372 -103.828 727.372 53.4875Z" stroke="#00CAF0"/>
<path d="M760.292 53.4875C760.292 229.426 621.054 372.032 449.32 372.032C277.586 372.032 138.348 229.426 138.348 53.4875C138.348 -122.451 277.586 -265.057 449.32 -265.057C621.054 -265.057 760.292 -122.451 760.292 53.4875Z" stroke="#00CAF0"/>
<path d="M793.212 53.4875C793.212 248.049 639.235 405.752 449.32 405.752C259.405 405.752 105.428 248.049 105.428 53.4875C105.428 -141.074 259.405 -298.777 449.32 -298.777C639.235 -298.777 793.212 -141.074 793.212 53.4875Z" stroke="#00CAF0"/>
<path d="M793.212 53.4875C793.212 248.049 639.235 405.752 449.32 405.752C259.405 405.752 105.428 248.049 105.428 53.4875C105.428 -141.074 259.405 -298.777 449.32 -298.777C639.235 -298.777 793.212 -141.074 793.212 53.4875Z" stroke="#00CAF0"/>
<path d="M596.96 53.4875C596.96 137.027 530.848 204.728 449.32 204.728C367.793 204.728 301.681 137.027 301.681 53.4875C301.681 -30.0517 367.793 -97.7531 449.32 -97.7531C530.848 -97.7531 596.96 -30.0517 596.96 53.4875Z" stroke="#00CAF0"/>
</g>
</g>
<g opacity="0.6">
<path opacity="0.8" d="M38.3396 210.345C-2.5686 172.855 -5.33954 109.3 32.1505 68.3921C69.6405 27.484 133.195 24.713 174.103 62.203C215.011 99.6931 217.782 163.247 180.292 204.156C142.802 245.064 79.2477 247.835 38.3396 210.345ZM173.073 63.327C132.785 26.4059 70.1956 29.1348 33.2745 69.4222C-3.64668 109.71 -0.917786 172.3 39.3696 209.221C79.657 246.142 142.247 243.413 179.168 203.125C216.089 162.838 213.36 100.248 173.073 63.327Z" fill="url(#paint1_linear_224_774)"/>
<path d="M55.1956 190.923C24.7556 163.026 22.6937 115.735 50.5903 85.2952C78.4868 54.8552 125.778 52.7933 156.218 80.6899C186.658 108.586 188.72 155.878 160.823 186.318C132.927 216.758 85.6356 218.819 55.1956 190.923ZM155.451 81.5262C125.473 54.053 78.8998 56.0836 51.4266 86.0617C23.9534 116.04 25.984 162.613 55.9621 190.087C85.9402 217.56 132.514 215.529 159.987 185.551C187.46 155.573 185.43 108.999 155.451 81.5262Z" fill="url(#paint2_linear_224_774)"/>
<path d="M69.5078 175.463C47.5165 155.31 46.0269 121.144 66.1807 99.1531C86.3344 77.1618 120.5 75.6722 142.491 95.826C164.482 115.98 165.972 150.145 145.818 172.136C125.664 194.127 91.499 195.617 69.5078 175.463ZM141.937 96.4302C120.28 76.5823 86.6328 78.0493 66.7849 99.7068C46.937 121.364 48.404 155.011 70.0615 174.859C91.719 194.707 125.366 193.24 145.214 171.582C165.062 149.925 163.595 116.278 141.937 96.4302Z" fill="#00E6B8"/>
<path d="M83.1585 161.373C69.4871 148.844 68.5611 127.604 81.0902 113.933C93.6192 100.261 114.859 99.3352 128.53 111.864C142.202 124.393 143.128 145.633 130.599 159.304C118.07 172.976 96.8299 173.902 83.1585 161.373ZM128.186 112.24C114.722 99.901 93.8047 100.813 81.4658 114.277C69.1268 127.741 70.0388 148.658 83.5028 160.997C96.9667 173.336 117.884 172.424 130.223 158.96C142.562 145.496 141.65 124.579 128.186 112.24Z" fill="#00E6B8"/>
</g>
</g>
<defs>
<linearGradient id="paint0_linear_224_774" x1="405.783" y1="68" x2="47.9946" y2="397.879" gradientUnits="userSpaceOnUse">
<stop stop-color="#D9D9D9"/>
<stop offset="1" stop-color="#D9D9D9" stop-opacity="0"/>
</linearGradient>
<linearGradient id="paint1_linear_224_774" x1="72.6448" y1="4.0639" x2="190.734" y2="143.867" gradientUnits="userSpaceOnUse">
<stop stop-color="#0EF1C4"/>
<stop offset="1" stop-color="#2ADFF8"/>
</linearGradient>
<linearGradient id="paint2_linear_224_774" x1="80.7223" y1="37.4282" x2="168.593" y2="141.457" gradientUnits="userSpaceOnUse">
<stop stop-color="#00E6B8"/>
<stop offset="1" stop-color="#2AD3F8"/>
</linearGradient>
<clipPath id="clip0_224_774">
<rect width="483" height="407" fill="white"/>
</clipPath>
</defs>
</svg>
