<svg width="48" height="48" viewBox="0 0 48 48" fill="none" xmlns="http://www.w3.org/2000/svg">
<path fill-rule="evenodd" clip-rule="evenodd" d="M43 24C43 34.4934 34.4934 43 24 43C13.5066 43 5 34.4934 5 24C5 13.5066 13.5066 5 24 5V0C27.1517 0 30.2726 0.620778 33.1844 1.82689C36.0541 3.01558 38.6654 4.74986 40.8737 6.93312C36.5384 2.64661 30.5783 0 24 0C10.7452 0 0 10.7452 0 24C0 37.2548 10.7452 48 24 48C37.2548 48 48 37.2548 48 24C48 17.4217 45.3534 11.4616 41.0669 7.1263C43.2501 9.33456 44.9844 11.9459 46.1731 14.8156C47.3792 17.7274 48 20.8483 48 24H43Z" fill="white"/>
</svg>
