<svg width="159" height="17" viewBox="0 0 159 17" fill="none" xmlns="http://www.w3.org/2000/svg">
<path d="M0.821777 16.079V1.40563H3.32516V7.39558H5.04749L7.83126 1.40563H10.5349L7.25047 8.4006L10.6951 16.079H7.91137L5.02747 9.58653H3.32516V16.079H0.821777Z" fill="white"/>
<path d="M13.2308 16.079V13.8076H16.9958V7.29507H13.6313V5.02372H19.4992V13.8076H22.8838V16.079H13.2308ZM18.0773 3.17447C17.57 3.17447 17.1694 3.04717 16.8757 2.79256C16.582 2.52455 16.4351 2.16945 16.4351 1.72723C16.4351 1.28502 16.582 0.936615 16.8757 0.682008C17.1694 0.414002 17.57 0.279999 18.0773 0.279999C18.5847 0.279999 18.9852 0.414002 19.2789 0.682008C19.5727 0.936615 19.7195 1.28502 19.7195 1.72723C19.7195 2.16945 19.5727 2.52455 19.2789 2.79256C18.9852 3.04717 18.5847 3.17447 18.0773 3.17447Z" fill="white"/>
<path d="M25.9802 16.079V5.02372H28.4235V7.13427H28.4836C28.5904 6.41065 28.9108 5.84784 29.4449 5.44583C29.9789 5.03042 30.6599 4.82271 31.4876 4.82271C32.6225 4.82271 33.5304 5.19792 34.2113 5.94834C34.8922 6.68536 35.2327 7.69708 35.2327 8.98352V9.88804H32.6092V9.16442C32.6092 8.481 32.4289 7.95169 32.0684 7.57648C31.7213 7.18787 31.2139 6.99357 30.5464 6.99357C29.1712 6.99357 28.4836 7.76409 28.4836 9.30512V16.079H25.9802Z" fill="white"/>
<path d="M38.0487 16.079V13.8076H41.8138V7.29507H38.4492V5.02372H44.3172V13.8076H47.7018V16.079H38.0487ZM42.8953 3.17447C42.3879 3.17447 41.9874 3.04717 41.6936 2.79256C41.3999 2.52455 41.253 2.16945 41.253 1.72723C41.253 1.28502 41.3999 0.936615 41.6936 0.682008C41.9874 0.414002 42.3879 0.279999 42.8953 0.279999C43.4026 0.279999 43.8032 0.414002 44.0969 0.682008C44.3906 0.936615 44.5375 1.28502 44.5375 1.72723C44.5375 2.16945 44.3906 2.52455 44.0969 2.79256C43.8032 3.04717 43.4026 3.17447 42.8953 3.17447Z" fill="white"/>
<path d="M56.7262 16.079C55.6313 16.079 54.7501 15.7507 54.0826 15.0941C53.4284 14.4375 53.1013 13.5731 53.1013 12.5011V3.67698H49.4763V1.40563H55.6046V12.4408C55.6046 12.8562 55.7181 13.1912 55.9451 13.4458C56.1854 13.687 56.5059 13.8076 56.9064 13.8076H60.1308V16.079H56.7262Z" fill="white"/>
<path d="M69.1351 16.079C68.0403 16.079 67.1591 15.7507 66.4916 15.0941C65.8373 14.4375 65.5102 13.5731 65.5102 12.5011V3.67698H61.8853V1.40563H68.0136V12.4408C68.0136 12.8562 68.1271 13.1912 68.3541 13.4458C68.5944 13.687 68.9148 13.8076 69.3154 13.8076H72.5397V16.079H69.1351Z" fill="white"/>
<path d="M92.1707 16.28C90.7421 16.28 89.6206 15.8914 88.8061 15.1142C88.005 14.3235 87.6045 13.2515 87.6045 11.8981V1.40563H90.1279V11.878C90.1279 12.5748 90.3015 13.1175 90.6486 13.5061C90.9958 13.8947 91.5031 14.089 92.1707 14.089C92.8249 14.089 93.3256 13.8947 93.6727 13.5061C94.0332 13.1175 94.2134 12.5748 94.2134 11.878V1.40563H96.7369V11.8981C96.7369 13.2515 96.3363 14.3235 95.5352 15.1142C94.7341 15.8914 93.6126 16.28 92.1707 16.28Z" fill="white"/>
<path d="M104.159 16.2599C103.318 16.2599 102.577 16.1326 101.936 15.878C101.295 15.61 100.795 15.2348 100.434 14.7524C100.087 14.2699 99.9133 13.7004 99.9133 13.0438H102.437C102.437 13.4324 102.59 13.7339 102.897 13.9483C103.218 14.1493 103.645 14.2498 104.179 14.2498H105.04C105.668 14.2498 106.135 14.1359 106.442 13.9081C106.749 13.6803 106.903 13.3654 106.903 12.9634C106.903 12.1996 106.335 11.7306 105.2 11.5564L103.658 11.3554C101.349 11.0204 100.194 9.91484 100.194 8.03879C100.194 6.99357 100.541 6.20295 101.235 5.66693C101.943 5.11752 102.964 4.84281 104.299 4.84281H105.06C106.302 4.84281 107.297 5.12422 108.044 5.68703C108.805 6.23645 109.186 6.96676 109.186 7.87799H106.662C106.662 7.55638 106.522 7.30847 106.242 7.13427C105.962 6.94666 105.561 6.85286 105.04 6.85286H104.279C103.184 6.85286 102.637 7.24817 102.637 8.03879C102.637 8.72221 103.124 9.13762 104.099 9.28502L105.661 9.52623C106.903 9.70043 107.824 10.0622 108.425 10.6117C109.039 11.1611 109.346 11.9249 109.346 12.9031C109.346 13.9617 108.979 14.7859 108.245 15.3755C107.524 15.9651 106.456 16.2599 105.04 16.2599H104.159Z" fill="white"/>
<path d="M117.009 16.28C116.074 16.28 115.26 16.0991 114.565 15.7373C113.871 15.3755 113.33 14.873 112.943 14.2297C112.569 13.5731 112.382 12.8093 112.382 11.9383V9.16442C112.382 8.2934 112.569 7.53628 112.943 6.89306C113.33 6.23645 113.871 5.72723 114.565 5.36543C115.26 5.00362 116.074 4.82271 117.009 4.82271C117.93 4.82271 118.731 5.00362 119.412 5.36543C120.106 5.72723 120.64 6.23645 121.014 6.89306C121.401 7.53628 121.595 8.2934 121.595 9.16442V11.1544H114.806V11.9383C114.806 13.5061 115.547 14.29 117.029 14.29C118.177 14.29 118.851 13.9081 119.051 13.1443H121.515C121.328 14.0957 120.82 14.8596 119.993 15.4358C119.178 15.9986 118.184 16.28 117.009 16.28ZM114.806 9.16442V9.58653L119.172 9.56643V9.14432C119.172 8.3805 118.991 7.79759 118.631 7.39558C118.27 6.98017 117.73 6.77246 117.009 6.77246C116.274 6.77246 115.72 6.98017 115.346 7.39558C114.986 7.81099 114.806 8.4006 114.806 9.16442Z" fill="white"/>
<path d="M124.932 16.079V5.02372H127.375V7.13427H127.415C127.535 6.41065 127.849 5.84784 128.356 5.44583C128.864 5.03042 129.524 4.82271 130.339 4.82271C131.42 4.82271 132.281 5.18452 132.922 5.90814C133.577 6.63176 133.904 7.60328 133.904 8.82271V16.079H131.4V9.08402C131.4 8.414 131.22 7.89809 130.86 7.53628C130.512 7.17447 130.038 6.99357 129.438 6.99357C128.81 6.99357 128.316 7.18117 127.956 7.55638C127.609 7.93159 127.435 8.4676 127.435 9.16442V16.079H124.932Z" fill="white"/>
<path d="M137.401 16.079V1.40563H139.904V9.36543H141.666L144.35 5.02372H147.134L143.809 10.3705L147.194 16.079H144.35L141.666 11.4961H139.904V16.079H137.401Z" fill="white"/>
<path d="M154.216 16.2599C152.8 16.2599 151.679 15.8713 150.851 15.0941C150.023 14.3034 149.609 13.2448 149.609 11.9182V9.18452C149.609 7.85789 150.023 6.80596 150.851 6.02874C151.679 5.23812 152.8 4.84281 154.216 4.84281C155.631 4.84281 156.752 5.23812 157.58 6.02874C158.408 6.80596 158.822 7.85119 158.822 9.16442V11.9182C158.822 13.2448 158.408 14.3034 157.58 15.0941C156.752 15.8713 155.631 16.2599 154.216 16.2599ZM154.216 14.0689C154.883 14.0689 155.397 13.888 155.758 13.5262C156.131 13.151 156.318 12.615 156.318 11.9182V9.18452C156.318 8.4877 156.131 7.95839 155.758 7.59658C155.397 7.22137 154.883 7.03377 154.216 7.03377C153.548 7.03377 153.027 7.22137 152.653 7.59658C152.293 7.95839 152.113 8.4877 152.113 9.18452V11.9182C152.113 12.615 152.293 13.151 152.653 13.5262C153.027 13.888 153.548 14.0689 154.216 14.0689Z" fill="white"/>
</svg>
