<svg width="1200" height="146" viewBox="0 0 1200 146" fill="none" xmlns="http://www.w3.org/2000/svg">
<path fill-rule="evenodd" clip-rule="evenodd" d="M-16.4199 143.655V1.80519H39.08C51.3016 1.80519 61.8505 3.73959 70.6623 7.68968C79.4784 11.6417 86.3291 17.4028 91.1317 24.9856C95.9405 32.5782 98.3034 41.5645 98.3034 51.8584C98.3034 62.1523 95.9405 71.1387 91.1317 78.7312L91.1273 78.7383L91.1227 78.7453C86.3218 86.1876 79.481 91.9378 70.6855 96.0165L70.6739 96.0219L70.6623 96.0271C61.8505 99.9772 51.3016 101.912 39.08 101.912H7.17665V143.655H-16.4199ZM5.17694 99.9024H39.08C51.0996 99.9024 61.3554 97.999 69.8475 94.1923C78.3396 90.2542 84.872 84.741 89.4447 77.6525C94.0173 70.4328 96.3037 61.8348 96.3037 51.8584C96.3037 41.882 94.0173 33.284 89.4447 26.0643C84.872 18.8446 78.3396 13.3313 69.8475 9.52455C61.3554 5.71777 51.0996 3.81439 39.08 3.81439H-14.4202V141.646H5.17694V99.9024ZM38.4921 82.772C51.0343 82.772 60.5062 80.081 66.9079 74.699C73.4403 69.317 76.7065 61.7035 76.7065 51.8584C76.7065 42.0133 73.4403 34.3998 66.9079 29.0178C60.5062 23.6358 51.0343 20.9448 38.4921 20.9448H5.17694V82.772H38.4921ZM7.17665 80.7628H38.4921C50.7921 80.7628 59.7252 78.1178 65.6247 73.1581L65.6323 73.1517L65.64 73.1454C71.6323 68.2084 74.7068 61.2092 74.7068 51.8584C74.7068 42.5076 71.6323 35.5084 65.64 30.5715L65.6323 30.5651L65.6247 30.5587C59.7252 25.599 50.7921 22.954 38.4921 22.954H7.17665V80.7628ZM168.806 139.776L168.796 139.772C159.685 136.137 151.754 131.077 145.025 124.586L145.017 124.579L145.01 124.572C138.29 117.955 133.047 110.254 129.287 101.485C125.512 92.6801 123.637 83.0867 123.637 72.73C123.637 62.3733 125.512 52.7799 129.287 43.9751C133.047 35.2047 138.292 27.5664 145.018 21.0773C151.747 14.4537 159.68 9.32495 168.796 5.68813C177.939 2.04068 187.926 0.22998 198.734 0.22998C209.408 0.22998 219.262 2.03946 228.272 5.68517C237.389 9.18992 245.323 14.2524 252.052 20.8745C258.912 27.3652 264.162 35.0098 267.795 43.792C271.567 52.5964 273.439 62.2512 273.439 72.73C273.439 83.2087 271.567 92.8638 267.795 101.668C264.161 110.453 258.91 118.162 252.052 124.783C245.323 131.273 237.391 136.334 228.28 139.969L228.272 139.972L228.265 139.974C219.256 143.487 209.405 145.23 198.734 145.23C188.053 145.23 178.07 143.418 168.806 139.776ZM265.952 100.887C269.61 92.3545 271.439 82.9689 271.439 72.73C271.439 62.4911 269.61 53.1054 265.952 44.573C262.425 36.0406 257.329 28.624 250.666 22.3232C244.134 15.891 236.426 10.9685 227.542 7.55552C218.788 4.01129 209.186 2.23918 198.734 2.23918C188.152 2.23918 178.418 4.01129 169.534 7.55552C160.65 11.0997 152.942 16.0879 146.41 22.5201C139.877 28.8209 134.782 36.2375 131.124 44.7699C127.466 53.3024 125.637 62.6224 125.637 72.73C125.637 82.8376 127.466 92.1576 131.124 100.69C134.782 109.222 139.877 116.705 146.41 123.137C152.942 129.438 160.65 134.36 169.534 137.904C178.549 141.449 188.282 143.221 198.734 143.221C209.186 143.221 218.788 141.514 227.542 138.101C236.426 134.557 244.134 129.635 250.666 123.334C257.329 116.902 262.425 109.419 265.952 100.887ZM218.947 119.898L218.96 119.893C225.256 117.363 230.642 113.834 235.142 109.311C239.786 104.646 243.362 99.2267 245.875 93.0392L245.882 93.023L245.889 93.007C248.517 86.8463 249.843 80.0956 249.843 72.73C249.843 65.3644 248.517 58.6137 245.889 52.453L245.882 52.4369L245.875 52.4208C243.364 46.2381 239.794 40.8927 235.162 36.3649L235.142 36.3457L235.123 36.326C230.624 31.6795 225.244 28.0924 218.96 25.567L218.947 25.5617C212.807 23.0438 206.077 21.7726 198.734 21.7726C191.258 21.7726 184.395 23.0444 178.122 25.5646C171.966 28.0899 166.575 31.6817 161.934 36.3456L161.924 36.3553L161.914 36.3649C157.279 40.8959 153.641 46.2471 150.998 52.4373C148.496 58.6017 147.233 65.3583 147.233 72.73C147.233 80.1017 148.496 86.8582 150.998 93.0227C153.641 99.2134 157.282 104.635 161.924 109.301C166.565 113.836 171.959 117.367 178.122 119.895C184.395 122.416 191.258 123.687 198.734 123.687C206.077 123.687 212.807 122.416 218.947 119.898ZM177.373 121.759C170.971 119.133 165.354 115.458 160.52 110.732C155.686 105.875 151.897 100.231 149.153 93.7985C146.54 87.3663 145.234 80.3435 145.234 72.73C145.234 65.1165 146.54 58.0936 149.153 51.6615C151.897 45.2294 155.686 39.6505 160.52 34.9249C165.354 30.0679 170.971 26.3268 177.373 23.7015C183.905 21.0761 191.026 19.7634 198.734 19.7634C206.312 19.7634 213.301 21.0761 219.703 23.7015C226.235 26.3268 231.853 30.0679 236.556 34.9249C241.39 39.6505 245.114 45.2294 247.727 51.6615C250.47 58.0936 251.842 65.1165 251.842 72.73C251.842 80.3435 250.47 87.3663 247.727 93.7985C245.114 100.231 241.39 105.875 236.556 110.732C231.853 115.458 226.235 119.133 219.703 121.759C213.301 124.384 206.312 125.697 198.734 125.697C191.026 125.697 183.905 124.384 177.373 121.759ZM309.191 143.655V1.80519H364.691C376.913 1.80519 387.462 3.73959 396.273 7.68968C405.09 11.6417 411.94 17.4028 416.743 24.9856C421.552 32.5782 423.915 41.5645 423.915 51.8584C423.915 62.1523 421.552 71.1387 416.743 78.7312L416.738 78.7383L416.734 78.7453C411.929 86.1939 405.08 91.8826 396.273 95.8302C395.801 96.0422 395.323 96.2484 394.84 96.4489L428.135 143.655H401.865L372.421 101.44C369.924 101.623 367.347 101.715 364.691 101.715H332.788V143.655H309.191ZM330.788 99.7055H364.691C366.879 99.7055 369.009 99.6424 371.08 99.5163C371.862 99.4686 372.637 99.412 373.403 99.3463L402.906 141.646H424.267L391.724 95.5059C392.376 95.2691 393.019 95.0224 393.652 94.7656C394.263 94.5182 394.865 94.2614 395.459 93.9954C403.951 90.1886 410.483 84.741 415.056 77.6525C419.629 70.4328 421.915 61.8348 421.915 51.8584C421.915 41.882 419.629 33.284 415.056 26.0643C410.483 18.8446 403.951 13.3313 395.459 9.52455C386.967 5.71777 376.711 3.81439 364.691 3.81439H311.191V141.646H330.788V99.7055ZM364.103 82.9689C376.645 82.9689 386.117 80.2779 392.519 74.8959C399.052 69.3827 402.318 61.7035 402.318 51.8584C402.318 42.0133 399.052 34.3998 392.519 29.0178C386.117 23.6358 376.645 20.9448 364.103 20.9448H330.788V82.9689H364.103ZM332.788 80.9597H364.103C376.403 80.9597 385.336 78.3147 391.236 73.355C397.244 68.2828 400.318 61.2069 400.318 51.8584C400.318 42.5076 397.243 35.5084 391.251 30.5715L391.243 30.5651L391.236 30.5587C385.336 25.599 376.403 22.954 364.103 22.954H332.788V80.9597ZM486.702 143.655V22.954H439.668V1.80519H557.135V22.954H510.102V143.655H486.702ZM508.102 141.646H488.701V20.9448H441.668V3.81439H555.136V20.9448H508.102V141.646ZM605.875 68.9889H674.661V85.9224H605.875V141.646H586.278V3.81439H683.088V20.9448H605.875V68.9889ZM607.875 22.954H685.088V1.80519H584.279V143.655H607.875V87.9316H676.661V66.9797H607.875V22.954ZM750.94 139.776L750.931 139.772C741.82 136.137 733.889 131.077 727.159 124.586L727.152 124.579L727.145 124.572C720.425 117.955 715.182 110.254 711.422 101.485C707.647 92.6801 705.772 83.0867 705.772 72.73C705.772 62.3733 707.647 52.7799 711.422 43.9751C715.182 35.2057 720.426 27.5681 727.15 21.0795C733.88 14.4547 741.814 9.32538 750.931 5.68813C760.074 2.04068 770.061 0.22998 780.869 0.22998C791.542 0.22998 801.397 2.03946 810.407 5.68517C819.524 9.19005 827.458 14.2528 834.188 20.8753C841.047 27.3658 846.297 35.0101 849.929 43.792C853.702 52.5964 855.574 62.2512 855.574 72.73C855.574 83.2087 853.702 92.8638 849.929 101.668C846.296 110.453 841.045 118.162 834.187 124.783C827.457 131.273 819.525 136.334 810.414 139.969L810.407 139.972L810.4 139.974C801.391 143.487 791.54 145.23 780.869 145.23C770.188 145.23 760.205 143.418 750.94 139.776ZM848.087 100.887C851.745 92.3545 853.574 82.9689 853.574 72.73C853.574 62.4911 851.745 53.1054 848.087 44.573C844.559 36.0406 839.464 28.624 832.801 22.3232C826.269 15.891 818.561 10.9685 809.677 7.55552C800.923 4.01129 791.321 2.23918 780.869 2.23918C770.286 2.23918 760.553 4.01129 751.669 7.55552C742.785 11.0997 735.077 16.0879 728.544 22.5201C722.012 28.8209 716.917 36.2375 713.259 44.7699C709.6 53.3024 707.771 62.6224 707.771 72.73C707.771 82.8376 709.6 92.1576 713.259 100.69C716.917 109.222 722.012 116.705 728.544 123.137C735.077 129.438 742.785 134.36 751.669 137.904C760.684 141.449 770.417 143.221 780.869 143.221C791.321 143.221 800.923 141.514 809.677 138.101C818.561 134.557 826.269 129.635 832.801 123.334C839.464 116.902 844.559 109.419 848.087 100.887ZM801.082 119.898L801.095 119.893C807.391 117.363 812.776 113.834 817.277 109.311C821.921 104.646 825.497 99.2267 828.01 93.0392L828.017 93.023L828.024 93.007C830.651 86.8463 831.977 80.0956 831.977 72.73C831.977 65.3644 830.651 58.6137 828.024 52.453L828.017 52.4369L828.01 52.4208C825.499 46.2381 821.928 40.8927 817.297 36.3649L817.277 36.3457L817.258 36.326C812.758 31.6795 807.379 28.0924 801.095 25.567L801.082 25.5617C794.942 23.0438 788.212 21.7726 780.869 21.7726C773.393 21.7726 766.529 23.0445 760.256 25.5648C754.101 28.0902 748.71 31.6819 744.068 36.3456L744.059 36.3553L744.049 36.3649C739.414 40.8956 735.776 46.2463 733.133 52.4358C730.631 58.6006 729.368 65.3577 729.368 72.73C729.368 80.1022 730.631 86.8593 733.133 93.0241C735.776 99.2138 739.416 104.634 744.057 109.3C748.699 113.835 754.093 117.367 760.256 119.895C766.529 122.415 773.393 123.687 780.869 123.687C788.212 123.687 794.942 122.416 801.082 119.898ZM731.288 93.7985C728.675 87.3663 727.368 80.3435 727.368 72.73C727.368 65.1165 728.675 58.0936 731.288 51.6615C734.032 45.2294 737.82 39.6505 742.654 34.9249C747.488 30.0679 753.106 26.3268 759.508 23.7015C766.04 21.0761 773.161 19.7634 780.869 19.7634C788.446 19.7634 795.436 21.0761 801.838 23.7015C808.37 26.3268 813.988 30.0679 818.691 34.9249C823.525 39.6505 827.249 45.2294 829.862 51.6615C832.605 58.0936 833.977 65.1165 833.977 72.73C833.977 80.3435 832.605 87.3663 829.862 93.7985C827.249 100.231 823.525 105.875 818.691 110.732C813.988 115.458 808.37 119.133 801.838 121.759C795.436 124.384 788.446 125.697 780.869 125.697C773.161 125.697 766.04 124.384 759.508 121.759C753.106 119.133 747.488 115.458 742.654 110.732C737.82 105.875 734.032 100.231 731.288 93.7985ZM891.326 143.655V1.80519H914.923V122.506H989.196V143.655H891.326ZM912.923 124.515V3.81439H893.326V141.646H987.196V124.515H912.923ZM1017.48 143.655V1.80519H1041.08V143.655H1017.48ZM1121.95 139.776L1121.94 139.772C1112.83 136.137 1104.89 131.077 1098.17 124.586L1098.16 124.579L1098.15 124.572C1091.43 117.955 1086.19 110.254 1082.43 101.485C1078.65 92.6801 1076.78 83.0867 1076.78 72.73C1076.78 62.3733 1078.65 52.7799 1082.43 43.9751C1086.19 35.2043 1091.43 27.5658 1098.16 21.0765C1104.89 14.4532 1112.82 9.32483 1121.94 5.68813C1131.08 2.04068 1141.07 0.22998 1151.87 0.22998C1162.55 0.22998 1172.4 2.03961 1181.41 5.68564C1190.53 9.18997 1198.46 14.2516 1205.19 20.8723C1212.05 27.3644 1217.3 35.0112 1220.94 43.7961C1224.71 52.5993 1226.58 62.2529 1226.58 72.73C1226.58 83.2071 1224.71 92.8608 1220.94 101.664C1217.3 110.451 1212.05 118.161 1205.19 124.783C1198.46 131.273 1190.53 136.334 1181.42 139.969L1181.41 139.972L1181.41 139.974C1172.4 143.487 1162.55 145.23 1151.87 145.23C1141.19 145.23 1131.21 143.418 1121.95 139.776ZM1219.09 100.887C1222.75 92.3545 1224.58 82.9689 1224.58 72.73C1224.58 62.4911 1222.75 53.1054 1219.09 44.573C1215.57 36.0406 1210.47 28.624 1203.81 22.3232C1197.28 15.891 1189.57 10.9685 1180.68 7.55552C1171.93 4.01129 1162.33 2.23918 1151.87 2.23918C1141.29 2.23918 1131.56 4.01129 1122.68 7.55552C1113.79 11.0997 1106.08 16.0879 1099.55 22.5201C1093.02 28.8209 1087.92 36.2375 1084.26 44.7699C1080.61 53.3024 1078.78 62.6224 1078.78 72.73C1078.78 82.8376 1080.61 92.1576 1084.26 100.69C1087.92 109.222 1093.02 116.705 1099.55 123.137C1106.08 129.438 1113.79 134.36 1122.68 137.904C1131.69 141.449 1141.42 143.221 1151.87 143.221C1162.33 143.221 1171.93 141.514 1180.68 138.101C1189.57 134.557 1197.28 129.635 1203.81 123.334C1210.47 116.902 1215.57 109.419 1219.09 100.887ZM1172.09 119.898L1172.1 119.893C1178.4 117.363 1183.78 113.834 1188.28 109.311C1192.93 104.646 1196.5 99.2267 1199.02 93.0392L1199.02 93.023L1199.03 93.007C1201.66 86.8463 1202.98 80.0956 1202.98 72.73C1202.98 65.3644 1201.66 58.6137 1199.03 52.453L1199.02 52.4369L1199.02 52.4208C1196.5 46.2381 1192.93 40.8927 1188.3 36.3649L1188.28 36.3457L1188.26 36.326C1183.76 31.6795 1178.39 28.0924 1172.1 25.567L1172.09 25.5617C1165.95 23.0438 1159.22 21.7726 1151.87 21.7726C1144.4 21.7726 1137.54 23.0441 1131.26 25.5637C1125.11 28.0891 1119.72 31.6812 1115.07 36.3456L1115.06 36.3553L1115.05 36.3649C1110.42 40.8956 1106.78 46.2463 1104.14 52.4358C1101.64 58.6006 1100.37 65.3577 1100.37 72.73C1100.37 80.1022 1101.64 86.8593 1104.14 93.0241C1106.78 99.2147 1110.42 104.636 1115.07 109.302C1119.71 113.837 1125.1 117.368 1131.26 119.896C1137.54 122.416 1144.4 123.687 1151.87 123.687C1159.22 123.687 1165.95 122.416 1172.09 119.898ZM1130.51 121.759C1124.11 119.133 1118.49 115.458 1113.66 110.732C1108.83 105.875 1105.04 100.231 1102.29 93.7985C1099.68 87.3663 1098.37 80.3435 1098.37 72.73C1098.37 65.1165 1099.68 58.0936 1102.29 51.6615C1105.04 45.2294 1108.83 39.6505 1113.66 34.9249C1118.49 30.0679 1124.11 26.3268 1130.51 23.7015C1137.05 21.0761 1144.17 19.7634 1151.87 19.7634C1159.45 19.7634 1166.44 21.0761 1172.84 23.7015C1179.38 26.3268 1184.99 30.0679 1189.7 34.9249C1194.53 39.6505 1198.25 45.2294 1200.87 51.6615C1203.61 58.0936 1204.98 65.1165 1204.98 72.73C1204.98 80.3435 1203.61 87.3663 1200.87 93.7985C1198.25 100.231 1194.53 105.875 1189.7 110.732C1184.99 115.458 1179.38 119.133 1172.84 121.759C1166.44 124.384 1159.45 125.697 1151.87 125.697C1144.17 125.697 1137.05 124.384 1130.51 121.759ZM1019.48 141.646H1039.08V3.81439H1019.48V141.646Z" fill="white"/>
</svg>
