<svg width="48" height="53" viewBox="0 0 48 53" fill="none" xmlns="http://www.w3.org/2000/svg">
<path d="M46.9145 29.8285C46.9145 27.1665 46.9145 20.7339 46.1923 19.7319C45.47 18.7298 44.2073 18.3089 41.682 17.4672L39.2621 16.6605M46.9145 39.1815C46.9145 42.4744 46.9145 44.1208 46.0479 45.1784C45.7536 45.5376 45.3964 45.8403 44.9937 46.0715C43.808 46.7524 42.1839 46.4818 38.9359 45.9404C35.731 45.4063 34.1285 45.1392 32.5403 45.2721C31.9829 45.3187 31.4292 45.402 30.8827 45.5213C29.3256 45.8614 27.8598 46.5943 24.9281 48.0601C21.1026 49.9729 19.1899 50.9293 17.1538 51.2241C16.5406 51.3129 15.9217 51.3568 15.3021 51.3557C13.2448 51.3518 11.2335 50.6813 7.21091 49.3405L6.23251 49.0144C3.70714 48.1726 2.44445 47.7517 1.72223 46.7496C1 45.7476 1 44.4166 1 41.7546V39.6178M1 29.1799C1 24.9484 1 22.8326 2.24585 21.6947C2.46385 21.4956 2.70416 21.3224 2.96199 21.1786C4.27589 20.4455 6.01416 20.8981 9.22153 21.9535" stroke="#564592" stroke-width="1.5" stroke-linecap="round"/>
<path d="M37.3489 24.9539C38.5875 22.0008 39.262 18.8566 39.262 15.8961C39.262 7.86566 32.4098 1.35571 23.9571 1.35571C15.5045 1.35571 8.6523 7.86566 8.6523 15.8961C8.6523 23.8636 13.5371 33.1609 21.1584 36.4857C22.935 37.2607 24.9792 37.2607 26.7559 36.4857C29.19 35.4238 31.3449 33.7527 33.1508 31.7103" stroke="#564592" stroke-width="1.5" stroke-linecap="round"/>
<circle cx="23.9573" cy="16.6604" r="5.10161" stroke="#564592" stroke-width="1.5"/>
</svg>
