<svg width="52" height="53" viewBox="0 0 52 53" fill="none" xmlns="http://www.w3.org/2000/svg">
<path d="M23.1531 4.76408C24.4198 2.49183 25.0531 1.35571 26 1.35571C26.9468 1.35571 27.5801 2.49183 28.8468 4.76407L29.1745 5.35193C29.5344 5.99763 29.7144 6.32048 29.995 6.5335C30.2756 6.74652 30.6251 6.82559 31.3241 6.98374L31.9604 7.12772C34.4201 7.68424 35.6499 7.96251 35.9425 8.90342C36.2351 9.84432 35.3967 10.8247 33.7198 12.7856L33.286 13.2929C32.8095 13.8501 32.5713 14.1287 32.4641 14.4734C32.3569 14.8181 32.3929 15.1898 32.465 15.9332L32.5305 16.61C32.7841 19.2262 32.9108 20.5343 32.1448 21.1159C31.3788 21.6974 30.2273 21.1672 27.9243 20.1068L27.3285 19.8325C26.674 19.5312 26.3468 19.3805 26 19.3805C25.6531 19.3805 25.3259 19.5312 24.6715 19.8325L24.0756 20.1068C21.7727 21.1672 20.6212 21.6974 19.8551 21.1159C19.0891 20.5343 19.2159 19.2262 19.4694 16.6101L19.535 15.9332C19.607 15.1898 19.643 14.8181 19.5358 14.4734C19.4287 14.1287 19.1904 13.8501 18.7139 13.2929L18.2801 12.7856C16.6032 10.8247 15.7648 9.84432 16.0574 8.90342C16.35 7.96251 17.5799 7.68424 20.0395 7.12772L20.6759 6.98374C21.3748 6.82559 21.7243 6.74652 22.0049 6.5335C22.2855 6.32048 22.4655 5.99763 22.8254 5.35193L23.1531 4.76408Z" stroke="#564592" stroke-width="1.5"/>
<path d="M44.5766 15.5598C45.2099 14.4237 45.5266 13.8556 46 13.8556C46.4734 13.8556 46.7901 14.4237 47.4234 15.5598L47.5872 15.8537C47.7672 16.1765 47.8572 16.338 47.9975 16.4445C48.1378 16.551 48.3125 16.5905 48.662 16.6696L48.9802 16.7416C50.21 17.0199 50.825 17.159 50.9713 17.6294C51.1175 18.0999 50.6983 18.5901 49.8599 19.5705L49.643 19.8242C49.4048 20.1028 49.2856 20.2421 49.232 20.4144C49.1784 20.5868 49.1965 20.7726 49.2325 21.1443L49.2653 21.4828C49.392 22.7909 49.4554 23.4449 49.0724 23.7357C48.6894 24.0264 48.1136 23.7613 46.9621 23.2311L46.6642 23.094C46.337 22.9433 46.1734 22.868 46 22.868C45.8266 22.868 45.6629 22.9433 45.3357 23.094L45.0378 23.2311C43.8863 23.7613 43.3106 24.0264 42.9276 23.7357C42.5446 23.4449 42.6079 22.7909 42.7347 21.4828L42.7675 21.1443C42.8035 20.7726 42.8215 20.5868 42.7679 20.4144C42.7143 20.2421 42.5952 20.1028 42.357 19.8242L42.14 19.5705C41.3016 18.5901 40.8824 18.0999 41.0287 17.6294C41.175 17.159 41.7899 17.0199 43.0198 16.7416L43.3379 16.6696C43.6874 16.5905 43.8622 16.551 44.0025 16.4445C44.1428 16.338 44.2328 16.1765 44.4127 15.8537L44.5766 15.5598Z" stroke="#564592" stroke-width="1.5"/>
<path d="M4.57657 15.5598C5.20989 14.4237 5.52655 13.8556 5.99998 13.8556C6.47341 13.8556 6.79007 14.4237 7.42339 15.5598L7.58724 15.8537C7.76721 16.1765 7.8572 16.338 7.9975 16.4445C8.13781 16.551 8.31255 16.5905 8.66203 16.6696L8.9802 16.7416C10.21 17.0199 10.825 17.159 10.9713 17.6294C11.1175 18.0999 10.6983 18.5901 9.85992 19.5705L9.64301 19.8242C9.40475 20.1028 9.28563 20.2421 9.23204 20.4144C9.17845 20.5868 9.19646 20.7726 9.23248 21.1443L9.26527 21.4828C9.39203 22.7909 9.45541 23.4449 9.0724 23.7357C8.68938 24.0264 8.11364 23.7613 6.96214 23.2311L6.66424 23.094C6.33702 22.9433 6.17341 22.868 5.99998 22.868C5.82655 22.868 5.66295 22.9433 5.33573 23.094L5.03782 23.2311C3.88633 23.7613 3.31058 24.0264 2.92757 23.7357C2.54455 23.4449 2.60793 22.7909 2.73469 21.4828L2.76749 21.1443C2.80351 20.7726 2.82152 20.5868 2.76792 20.4144C2.71433 20.2421 2.59521 20.1028 2.35695 19.8242L2.14004 19.5705C1.30162 18.5901 0.882413 18.0999 1.02871 17.6294C1.17501 17.159 1.78993 17.0199 3.01976 16.7416L3.33793 16.6696C3.68742 16.5905 3.86216 16.551 4.00246 16.4445C4.14277 16.338 4.23275 16.1765 4.41272 15.8537L4.57657 15.5598Z" stroke="#564592" stroke-width="1.5"/>
<path d="M6 49.8265H11.6498C14.177 49.8265 16.7313 50.0898 19.1908 50.5965C23.5413 51.4928 28.122 51.6014 32.5173 50.8899M30.1908 42.6485C30.4903 42.6138 30.7774 42.574 31.0513 42.5303C33.3298 42.1669 35.2425 40.9493 36.9934 39.6266L41.5114 36.2137C43.1041 35.0106 45.4681 35.0103 47.0612 36.2132C48.4953 37.2961 48.9338 39.0791 48.0272 40.5324C46.9698 42.2273 45.4801 44.3955 44.0497 45.7203M30.1908 42.6485C30.1006 42.659 30.0093 42.669 29.9169 42.6785M30.1908 42.6485C30.5553 42.5704 30.9172 42.3457 31.2568 42.0493C32.8648 40.6458 32.9665 38.2806 31.5713 36.7134C31.2475 36.3498 30.8688 36.0465 30.4476 35.7953C23.4543 31.6242 12.5735 34.8011 6 39.4629M30.1908 42.6485C30.0996 42.6681 30.0082 42.6785 29.9169 42.6785M29.9169 42.6785C28.6085 42.8128 27.0778 42.8475 25.3793 42.6871" stroke="#564592" stroke-width="1.5" stroke-linecap="round"/>
</svg>
