<svg width="52" height="53" viewBox="0 0 52 53" fill="none" xmlns="http://www.w3.org/2000/svg">
<path d="M13.5 4.709C17.1772 2.57632 21.4464 1.35571 26 1.35571C39.8071 1.35571 51 12.5778 51 26.421C51 46.8007 30.5964 32.4037 26.6547 38.6728C25.6686 40.2411 26.7345 42.1966 28.042 43.5075C29.6757 45.1454 29.6757 47.801 28.042 49.4389C26.7345 50.7498 24.954 51.5329 23.117 51.3214C10.6678 49.8882 1 39.2866 1 26.421C1 21.842 2.22463 17.5498 4.36342 13.8557" stroke="#564592" stroke-width="1.5" stroke-linecap="round"/>
<circle cx="39.75" cy="25.1056" r="3.75" stroke="#564592" stroke-width="1.5"/>
<circle cx="12.2498" cy="25.1056" r="3.75" stroke="#564592" stroke-width="1.5"/>
<path d="M23.7124 13.8551C23.7124 15.9262 22.0335 17.6051 19.9624 17.6051C17.8913 17.6051 16.2124 15.9262 16.2124 13.8551C16.2124 11.784 17.8913 10.1051 19.9624 10.1051C22.0335 10.1051 23.7124 11.784 23.7124 13.8551Z" stroke="#564592" stroke-width="1.5"/>
<path d="M36 13.8557C36 15.9268 34.3211 17.6057 32.25 17.6057C30.1789 17.6057 28.5 15.9268 28.5 13.8557C28.5 11.7846 30.1789 10.1057 32.25 10.1057C34.3211 10.1057 36 11.7846 36 13.8557Z" stroke="#564592" stroke-width="1.5"/>
</svg>
