<svg width="33" height="20" viewBox="0 0 33 20" fill="none" xmlns="http://www.w3.org/2000/svg">
<path d="M13.4711 9.27177C13.4711 9.27177 16.4953 9.04178 16.4953 5.41987C16.4953 1.80096 14.4442 0.0169998 11.309 0.0169998L0.568848 0V19.9995H11.5588C11.5588 19.9995 17.0538 20.1735 17.0538 13.9997C17.0538 13.9997 17.4574 9.27177 13.4711 9.27177ZM4.5652 2.99993H10.0602C10.0602 2.99993 11.9405 3.03092 11.9405 5.47086C11.9405 7.9998 10.0602 7.9998 10.0602 7.9998H4.5652V2.99993ZM10.5597 16.9996H4.5652V10.9997H10.5597C10.5597 10.9997 13.557 11.0307 13.557 13.9997C13.557 16.9686 10.9913 16.9996 10.5597 16.9996Z" fill="#B2ABF2"/>
<path d="M25.5463 5.00024C18.0402 5.00024 18.0532 12.5001 18.0532 12.5001C18.0532 12.5001 17.5536 19.9999 25.5463 19.9999C25.5463 19.9999 32.5399 19.9999 32.5399 14H28.5436C28.5436 14 28.5436 16.9999 25.5463 16.9999C25.5463 16.9999 22.5491 16.9999 22.5491 13C22.5491 13 30.5418 13 32.5399 13C32.5399 11.0001 32.5399 5.00024 25.5463 5.00024ZM22.5491 11.0001C22.5491 11.0001 22.4831 8.00017 25.5463 8.00017C28.6085 8.00017 28.5436 11.0001 28.5436 11.0001H22.5491Z" fill="#B2ABF2"/>
<path d="M29.5429 2.00024H21.5502V4.00019H29.5429V2.00024Z" fill="#B2ABF2"/>
</svg>
