<svg width="154" height="19" viewBox="0 0 154 19" fill="none" xmlns="http://www.w3.org/2000/svg">
<path d="M5.95957 15.2C4.71957 15.2 3.66624 14.9867 2.79957 14.56C1.94624 14.12 1.2929 13.5 0.83957 12.7C0.386237 11.8867 0.132904 10.9133 0.0795703 9.78C0.066237 9.23333 0.0595703 8.64667 0.0595703 8.02C0.0595703 7.39333 0.066237 6.79333 0.0795703 6.22C0.132904 5.1 0.386237 4.13333 0.83957 3.32C1.30624 2.50667 1.96624 1.88667 2.81957 1.46C3.68624 1.02 4.7329 0.800001 5.95957 0.800001C6.86624 0.800001 7.67957 0.920001 8.39957 1.16C9.11957 1.4 9.7329 1.73333 10.2396 2.16C10.7462 2.57333 11.1396 3.06 11.4196 3.62C11.6996 4.18 11.8462 4.78667 11.8596 5.44C11.8729 5.56 11.8329 5.66 11.7396 5.74C11.6596 5.82 11.5596 5.86 11.4396 5.86H9.53957C9.3929 5.86 9.2729 5.82667 9.17957 5.76C9.08624 5.68 9.01957 5.55333 8.97957 5.38C8.76624 4.5 8.39957 3.9 7.87957 3.58C7.35957 3.26 6.7129 3.1 5.93957 3.1C5.04624 3.1 4.3329 3.35333 3.79957 3.86C3.26624 4.35333 2.97957 5.17333 2.93957 6.32C2.89957 7.41333 2.89957 8.53333 2.93957 9.68C2.97957 10.8267 3.26624 11.6533 3.79957 12.16C4.3329 12.6533 5.04624 12.9 5.93957 12.9C6.7129 12.9 7.35957 12.74 7.87957 12.42C8.39957 12.0867 8.76624 11.4867 8.97957 10.62C9.01957 10.4333 9.08624 10.3067 9.17957 10.24C9.2729 10.1733 9.3929 10.14 9.53957 10.14H11.4396C11.5596 10.14 11.6596 10.18 11.7396 10.26C11.8329 10.34 11.8729 10.44 11.8596 10.56C11.8462 11.2133 11.6996 11.82 11.4196 12.38C11.1396 12.94 10.7462 13.4333 10.2396 13.86C9.7329 14.2733 9.11957 14.6 8.39957 14.84C7.67957 15.08 6.86624 15.2 5.95957 15.2Z" fill="#F2F2F2"/>
<path d="M18.4714 15.2C16.9914 15.2 15.8181 14.7733 14.9514 13.92C14.0848 13.0667 13.6181 11.8533 13.5514 10.28C13.5381 10.1467 13.5314 9.98 13.5314 9.78C13.5314 9.56667 13.5381 9.4 13.5514 9.28C13.6048 8.28 13.8314 7.41333 14.2314 6.68C14.6448 5.94667 15.2114 5.38667 15.9314 5C16.6514 4.6 17.4981 4.4 18.4714 4.4C19.5514 4.4 20.4581 4.62667 21.1914 5.08C21.9248 5.52 22.4781 6.14 22.8514 6.94C23.2248 7.72667 23.4114 8.64 23.4114 9.68V10.1C23.4114 10.2333 23.3648 10.3467 23.2714 10.44C23.1781 10.5333 23.0581 10.58 22.9114 10.58H16.2714C16.2714 10.58 16.2714 10.6 16.2714 10.64C16.2714 10.68 16.2714 10.7133 16.2714 10.74C16.2848 11.2067 16.3714 11.64 16.5314 12.04C16.7048 12.4267 16.9514 12.74 17.2714 12.98C17.6048 13.22 17.9981 13.34 18.4514 13.34C18.8248 13.34 19.1381 13.2867 19.3914 13.18C19.6448 13.06 19.8514 12.9267 20.0114 12.78C20.1714 12.6333 20.2848 12.5133 20.3514 12.42C20.4714 12.26 20.5648 12.1667 20.6314 12.14C20.7114 12.1 20.8248 12.08 20.9714 12.08H22.6914C22.8248 12.08 22.9314 12.12 23.0114 12.2C23.1048 12.28 23.1448 12.38 23.1314 12.5C23.1181 12.7133 23.0048 12.9733 22.7914 13.28C22.5914 13.5867 22.2981 13.8867 21.9114 14.18C21.5248 14.4733 21.0381 14.72 20.4514 14.92C19.8781 15.1067 19.2181 15.2 18.4714 15.2ZM16.2714 8.9H20.6914V8.84C20.6914 8.32 20.6048 7.86667 20.4314 7.48C20.2581 7.09333 20.0048 6.78667 19.6714 6.56C19.3381 6.33333 18.9381 6.22 18.4714 6.22C18.0048 6.22 17.6048 6.33333 17.2714 6.56C16.9381 6.78667 16.6848 7.09333 16.5114 7.48C16.3514 7.86667 16.2714 8.32 16.2714 8.84V8.9Z" fill="#F2F2F2"/>
<path d="M26.0344 18.8C25.9011 18.8 25.7877 18.7533 25.6944 18.66C25.6011 18.5667 25.5544 18.4533 25.5544 18.32V5.08C25.5544 4.94667 25.6011 4.83333 25.6944 4.74C25.7877 4.64667 25.9011 4.6 26.0344 4.6H27.6144C27.7611 4.6 27.8744 4.64667 27.9544 4.74C28.0477 4.83333 28.0944 4.94667 28.0944 5.08V5.88C28.4144 5.45333 28.8344 5.1 29.3544 4.82C29.8744 4.54 30.5211 4.4 31.2944 4.4C32.0011 4.4 32.6144 4.51333 33.1344 4.74C33.6544 4.96667 34.0877 5.29333 34.4344 5.72C34.7811 6.13333 35.0477 6.62667 35.2344 7.2C35.4211 7.77333 35.5277 8.40667 35.5544 9.1C35.5677 9.32667 35.5744 9.56 35.5744 9.8C35.5744 10.04 35.5677 10.28 35.5544 10.52C35.5411 11.1867 35.4411 11.8067 35.2544 12.38C35.0677 12.94 34.7944 13.4333 34.4344 13.86C34.0877 14.2733 33.6544 14.6 33.1344 14.84C32.6144 15.08 32.0011 15.2 31.2944 15.2C30.5744 15.2 29.9611 15.0733 29.4544 14.82C28.9477 14.5533 28.5344 14.2067 28.2144 13.78V18.32C28.2144 18.4533 28.1677 18.5667 28.0744 18.66C27.9944 18.7533 27.8811 18.8 27.7344 18.8H26.0344ZM30.5544 13.06C31.1277 13.06 31.5744 12.94 31.8944 12.7C32.2144 12.4467 32.4411 12.12 32.5744 11.72C32.7211 11.32 32.8077 10.88 32.8344 10.4C32.8611 10 32.8611 9.6 32.8344 9.2C32.8077 8.72 32.7211 8.28 32.5744 7.88C32.4411 7.48 32.2144 7.16 31.8944 6.92C31.5744 6.66667 31.1277 6.54 30.5544 6.54C30.0077 6.54 29.5611 6.66667 29.2144 6.92C28.8811 7.17333 28.6344 7.5 28.4744 7.9C28.3277 8.28667 28.2411 8.68667 28.2144 9.1C28.2011 9.34 28.1944 9.59333 28.1944 9.86C28.1944 10.1267 28.2011 10.3867 28.2144 10.64C28.2277 11.04 28.3211 11.4267 28.4944 11.8C28.6677 12.16 28.9211 12.46 29.2544 12.7C29.5877 12.94 30.0211 13.06 30.5544 13.06Z" fill="#F2F2F2"/>
<path d="M38.2996 15C38.1662 15 38.0529 14.9533 37.9596 14.86C37.8662 14.7667 37.8196 14.6533 37.8196 14.52V5.08C37.8196 4.94667 37.8662 4.83333 37.9596 4.74C38.0529 4.64667 38.1662 4.6 38.2996 4.6H44.6396C44.7729 4.6 44.8862 4.64667 44.9796 4.74C45.0729 4.83333 45.1196 4.94667 45.1196 5.08V6.24C45.1196 6.37333 45.0729 6.48667 44.9796 6.58C44.8862 6.67333 44.7729 6.72 44.6396 6.72H40.4396V14.52C40.4396 14.6533 40.3929 14.7667 40.2996 14.86C40.2196 14.9533 40.1062 15 39.9596 15H38.2996Z" fill="#F2F2F2"/>
<path d="M51.2058 15.2C49.7258 15.2 48.5525 14.7733 47.6858 13.92C46.8192 13.0667 46.3525 11.8533 46.2858 10.28C46.2725 10.1467 46.2658 9.98 46.2658 9.78C46.2658 9.56667 46.2725 9.4 46.2858 9.28C46.3392 8.28 46.5658 7.41333 46.9658 6.68C47.3792 5.94667 47.9458 5.38667 48.6658 5C49.3858 4.6 50.2325 4.4 51.2058 4.4C52.2858 4.4 53.1925 4.62667 53.9258 5.08C54.6592 5.52 55.2125 6.14 55.5858 6.94C55.9592 7.72667 56.1458 8.64 56.1458 9.68V10.1C56.1458 10.2333 56.0992 10.3467 56.0058 10.44C55.9125 10.5333 55.7925 10.58 55.6458 10.58H49.0058C49.0058 10.58 49.0058 10.6 49.0058 10.64C49.0058 10.68 49.0058 10.7133 49.0058 10.74C49.0192 11.2067 49.1058 11.64 49.2658 12.04C49.4392 12.4267 49.6858 12.74 50.0058 12.98C50.3392 13.22 50.7325 13.34 51.1858 13.34C51.5592 13.34 51.8725 13.2867 52.1258 13.18C52.3792 13.06 52.5858 12.9267 52.7458 12.78C52.9058 12.6333 53.0192 12.5133 53.0858 12.42C53.2058 12.26 53.2992 12.1667 53.3658 12.14C53.4458 12.1 53.5592 12.08 53.7058 12.08H55.4258C55.5592 12.08 55.6658 12.12 55.7458 12.2C55.8392 12.28 55.8792 12.38 55.8658 12.5C55.8525 12.7133 55.7392 12.9733 55.5258 13.28C55.3258 13.5867 55.0325 13.8867 54.6458 14.18C54.2592 14.4733 53.7725 14.72 53.1858 14.92C52.6125 15.1067 51.9525 15.2 51.2058 15.2ZM49.0058 8.9H53.4258V8.84C53.4258 8.32 53.3392 7.86667 53.1658 7.48C52.9925 7.09333 52.7392 6.78667 52.4058 6.56C52.0725 6.33333 51.6725 6.22 51.2058 6.22C50.7392 6.22 50.3392 6.33333 50.0058 6.56C49.6725 6.78667 49.4192 7.09333 49.2458 7.48C49.0858 7.86667 49.0058 8.32 49.0058 8.84V8.9Z" fill="#F2F2F2"/>
<path d="M58.7288 15C58.6088 15 58.5021 14.9533 58.4088 14.86C58.3155 14.7667 58.2688 14.66 58.2688 14.54V5.08C58.2688 4.94667 58.3155 4.83333 58.4088 4.74C58.5021 4.64667 58.6155 4.6 58.7488 4.6H60.4088C60.5555 4.6 60.6688 4.64667 60.7488 4.74C60.8421 4.83333 60.8888 4.94667 60.8888 5.08V12.98L60.1888 12.48L65.6888 4.92C65.7555 4.82667 65.8288 4.75333 65.9088 4.7C65.9888 4.63333 66.0955 4.6 66.2288 4.6H67.7488C67.8688 4.6 67.9755 4.64667 68.0688 4.74C68.1621 4.82 68.2088 4.92 68.2088 5.04V14.52C68.2088 14.6533 68.1621 14.7667 68.0688 14.86C67.9755 14.9533 67.8621 15 67.7288 15H66.0688C65.9221 15 65.8021 14.9533 65.7088 14.86C65.6288 14.7667 65.5888 14.6533 65.5888 14.52V6.98L66.3288 7.08L60.7888 14.68C60.7355 14.76 60.6621 14.8333 60.5688 14.9C60.4888 14.9667 60.3821 15 60.2488 15H58.7288ZM63.3488 3.24C62.5488 3.24 61.9088 3.11333 61.4288 2.86C60.9488 2.60667 60.6021 2.28 60.3888 1.88C60.1888 1.46667 60.0888 1.02667 60.0888 0.56C60.0888 0.453334 60.1221 0.366668 60.1888 0.300001C60.2555 0.220001 60.3488 0.18 60.4688 0.18H61.6088C61.7288 0.18 61.8221 0.220001 61.8888 0.300001C61.9555 0.366668 61.9888 0.453334 61.9888 0.56C61.9888 0.853334 62.0821 1.12 62.2688 1.36C62.4555 1.58667 62.8155 1.7 63.3488 1.7C63.9088 1.7 64.2755 1.58667 64.4488 1.36C64.6221 1.12 64.7088 0.853334 64.7088 0.56C64.7088 0.453334 64.7421 0.366668 64.8088 0.300001C64.8755 0.220001 64.9688 0.18 65.0888 0.18H66.2488C66.3688 0.18 66.4621 0.220001 66.5288 0.300001C66.5955 0.366668 66.6288 0.453334 66.6288 0.56C66.6288 1.02667 66.5221 1.46667 66.3088 1.88C66.0955 2.28 65.7488 2.60667 65.2688 2.86C64.8021 3.11333 64.1621 3.24 63.3488 3.24Z" fill="#F2F2F2"/>
<path d="M76.02 15C75.8867 15 75.7734 14.9533 75.68 14.86C75.5867 14.7667 75.54 14.6533 75.54 14.52V1.48C75.54 1.33333 75.5867 1.22 75.68 1.14C75.7734 1.04667 75.8867 1 76.02 1H77.84C77.9867 1 78.1 1.04667 78.18 1.14C78.2734 1.23333 78.32 1.34667 78.32 1.48V12.5H82.32V1.48C82.32 1.34667 82.3667 1.23333 82.46 1.14C82.5534 1.04667 82.6667 1 82.8 1H84.6C84.7467 1 84.8667 1.04667 84.96 1.14C85.0534 1.23333 85.1 1.34667 85.1 1.48V12.5H89.08V1.48C89.08 1.34667 89.1267 1.23333 89.22 1.14C89.3134 1.04667 89.4334 1 89.58 1H91.38C91.5267 1 91.64 1.04667 91.72 1.14C91.8134 1.23333 91.86 1.34667 91.86 1.48V14.52C91.86 14.6533 91.8134 14.7667 91.72 14.86C91.64 14.9533 91.5267 15 91.38 15H76.02Z" fill="#F2F2F2"/>
<path d="M95.1932 15C95.0598 15 94.9532 14.96 94.8732 14.88C94.7932 14.8 94.7532 14.7 94.7532 14.58V4.98C94.7532 4.87333 94.7932 4.78667 94.8732 4.72C94.9665 4.64 95.0598 4.6 95.1532 4.6H96.8332C97.0598 4.6 97.2332 4.71333 97.3532 4.94L100.433 10.54L103.513 4.94C103.633 4.71333 103.806 4.6 104.033 4.6H105.693C105.813 4.6 105.913 4.64 105.993 4.72C106.073 4.78667 106.113 4.87333 106.113 4.98V14.58C106.113 14.7 106.073 14.8 105.993 14.88C105.913 14.96 105.806 15 105.673 15H103.953C103.82 15 103.713 14.96 103.633 14.88C103.566 14.8 103.533 14.7 103.533 14.58V7.32L104.353 7.46L101.393 12.92C101.326 13.04 101.247 13.1533 101.153 13.26C101.06 13.3533 100.926 13.4 100.753 13.4H100.093C99.9332 13.4 99.8065 13.3533 99.7132 13.26C99.6198 13.1667 99.5398 13.0533 99.4732 12.92L96.5732 7.68L97.3332 7.56V14.58C97.3332 14.7 97.2932 14.8 97.2132 14.88C97.1332 14.96 97.0332 15 96.9132 15H95.1932Z" fill="#F2F2F2"/>
<path d="M113.296 15.2C111.816 15.2 110.642 14.7733 109.776 13.92C108.909 13.0667 108.442 11.8533 108.376 10.28C108.362 10.1467 108.356 9.98 108.356 9.78C108.356 9.56667 108.362 9.4 108.376 9.28C108.429 8.28 108.656 7.41333 109.056 6.68C109.469 5.94667 110.036 5.38667 110.756 5C111.476 4.6 112.322 4.4 113.296 4.4C114.376 4.4 115.282 4.62667 116.016 5.08C116.749 5.52 117.302 6.14 117.676 6.94C118.049 7.72667 118.236 8.64 118.236 9.68V10.1C118.236 10.2333 118.189 10.3467 118.096 10.44C118.002 10.5333 117.882 10.58 117.736 10.58H111.096C111.096 10.58 111.096 10.6 111.096 10.64C111.096 10.68 111.096 10.7133 111.096 10.74C111.109 11.2067 111.196 11.64 111.356 12.04C111.529 12.4267 111.776 12.74 112.096 12.98C112.429 13.22 112.822 13.34 113.276 13.34C113.649 13.34 113.962 13.2867 114.216 13.18C114.469 13.06 114.676 12.9267 114.836 12.78C114.996 12.6333 115.109 12.5133 115.176 12.42C115.296 12.26 115.389 12.1667 115.456 12.14C115.536 12.1 115.649 12.08 115.796 12.08H117.516C117.649 12.08 117.756 12.12 117.836 12.2C117.929 12.28 117.969 12.38 117.956 12.5C117.942 12.7133 117.829 12.9733 117.616 13.28C117.416 13.5867 117.122 13.8867 116.736 14.18C116.349 14.4733 115.862 14.72 115.276 14.92C114.702 15.1067 114.042 15.2 113.296 15.2ZM111.096 8.9H115.516V8.84C115.516 8.32 115.429 7.86667 115.256 7.48C115.082 7.09333 114.829 6.78667 114.496 6.56C114.162 6.33333 113.762 6.22 113.296 6.22C112.829 6.22 112.429 6.33333 112.096 6.56C111.762 6.78667 111.509 7.09333 111.336 7.48C111.176 7.86667 111.096 8.32 111.096 8.84V8.9Z" fill="#F2F2F2"/>
<path d="M120.039 15C119.892 15 119.772 14.9533 119.679 14.86C119.585 14.7667 119.539 14.6467 119.539 14.5V13.26C119.539 12.9667 119.692 12.8067 119.999 12.78C120.399 12.7533 120.719 12.5667 120.959 12.22C121.199 11.8733 121.372 11.34 121.479 10.62C121.585 9.88667 121.639 8.94 121.639 7.78V5.08C121.639 4.94667 121.685 4.83333 121.779 4.74C121.872 4.64667 121.992 4.6 122.139 4.6H129.239C129.372 4.6 129.485 4.64667 129.579 4.74C129.672 4.83333 129.719 4.94667 129.719 5.08V14.52C129.719 14.6533 129.672 14.7667 129.579 14.86C129.485 14.9533 129.372 15 129.239 15H127.579C127.432 15 127.312 14.9533 127.219 14.86C127.139 14.7667 127.099 14.6533 127.099 14.52V6.72H124.159V8.06C124.159 9.34 124.085 10.4267 123.939 11.32C123.805 12.2 123.572 12.9133 123.239 13.46C122.919 13.9933 122.492 14.3867 121.959 14.64C121.439 14.88 120.799 15 120.039 15Z" fill="#F2F2F2"/>
<path d="M136.889 15.2C135.409 15.2 134.236 14.7733 133.369 13.92C132.503 13.0667 132.036 11.8533 131.969 10.28C131.956 10.1467 131.949 9.98 131.949 9.78C131.949 9.56667 131.956 9.4 131.969 9.28C132.023 8.28 132.249 7.41333 132.649 6.68C133.063 5.94667 133.629 5.38667 134.349 5C135.069 4.6 135.916 4.4 136.889 4.4C137.969 4.4 138.876 4.62667 139.609 5.08C140.343 5.52 140.896 6.14 141.269 6.94C141.643 7.72667 141.829 8.64 141.829 9.68V10.1C141.829 10.2333 141.783 10.3467 141.689 10.44C141.596 10.5333 141.476 10.58 141.329 10.58H134.689C134.689 10.58 134.689 10.6 134.689 10.64C134.689 10.68 134.689 10.7133 134.689 10.74C134.703 11.2067 134.789 11.64 134.949 12.04C135.123 12.4267 135.369 12.74 135.689 12.98C136.023 13.22 136.416 13.34 136.869 13.34C137.243 13.34 137.556 13.2867 137.809 13.18C138.063 13.06 138.269 12.9267 138.429 12.78C138.589 12.6333 138.703 12.5133 138.769 12.42C138.889 12.26 138.983 12.1667 139.049 12.14C139.129 12.1 139.243 12.08 139.389 12.08H141.109C141.243 12.08 141.349 12.12 141.429 12.2C141.523 12.28 141.563 12.38 141.549 12.5C141.536 12.7133 141.423 12.9733 141.209 13.28C141.009 13.5867 140.716 13.8867 140.329 14.18C139.943 14.4733 139.456 14.72 138.869 14.92C138.296 15.1067 137.636 15.2 136.889 15.2ZM134.689 8.9H139.109V8.84C139.109 8.32 139.023 7.86667 138.849 7.48C138.676 7.09333 138.423 6.78667 138.089 6.56C137.756 6.33333 137.356 6.22 136.889 6.22C136.423 6.22 136.023 6.33333 135.689 6.56C135.356 6.78667 135.103 7.09333 134.929 7.48C134.769 7.86667 134.689 8.32 134.689 8.84V8.9Z" fill="#F2F2F2"/>
<path d="M144.432 15C144.299 15 144.186 14.9533 144.092 14.86C143.999 14.7667 143.952 14.6533 143.952 14.52V5.08C143.952 4.94667 143.999 4.83333 144.092 4.74C144.186 4.64667 144.299 4.6 144.432 4.6H148.872C150.286 4.6 151.332 4.86 152.012 5.38C152.692 5.9 153.032 6.6 153.032 7.48C153.032 8.04 152.926 8.47333 152.712 8.78C152.499 9.08667 152.206 9.35333 151.832 9.58C152.299 9.79333 152.659 10.12 152.912 10.56C153.179 10.9867 153.312 11.46 153.312 11.98C153.312 12.94 152.952 13.6867 152.232 14.22C151.526 14.74 150.479 15 149.092 15H144.432ZM146.512 13.2H148.912C149.446 13.2 149.872 13.1 150.192 12.9C150.512 12.7 150.672 12.3867 150.672 11.96C150.672 11.52 150.526 11.2 150.232 11C149.939 10.8 149.499 10.7 148.912 10.7H146.512V13.2ZM146.512 8.84H148.832C149.366 8.84 149.786 8.73333 150.092 8.52C150.399 8.29333 150.552 7.96667 150.552 7.54C150.552 7.11333 150.392 6.82 150.072 6.66C149.766 6.48667 149.352 6.4 148.832 6.4H146.512V8.84Z" fill="#F2F2F2"/>
</svg>
