<svg width="72" height="72" viewBox="0 0 72 72" fill="none" xmlns="http://www.w3.org/2000/svg">
<path fill-rule="evenodd" clip-rule="evenodd" d="M21.8734 31.4909V66.8595L24.1519 67.7718V29.2102L24.1519 29.2101L24.1519 29.2101V26.0003L21.8734 28.2401V28.2654L14.1266 36.0199L14.1275 36.0307L14.1266 36.0303V63.4385L16.4051 64.8069V36.982L16.3928 36.9769L21.8734 31.4909Z" fill="#444CFF"/>
<path fill-rule="evenodd" clip-rule="evenodd" d="M47.3924 38.105L47.3924 69.9732L45.114 70.4745L45.114 35.8242L45.114 35.8242L45.114 35.8242V32.6144L47.3924 34.8541V34.8795L55.1393 42.634L55.1383 42.6448L55.1393 42.6444V66.3692L52.8608 67.7376V43.5961L52.8731 43.591L47.3924 38.105Z" fill="#00E6B8"/>
<path fill-rule="evenodd" clip-rule="evenodd" d="M28.4686 17.4625L28.4808 20.4127L28.481 20.413V70.4744H30.7595V22.3134L35.3164 26.1143V23.137L28.4686 17.4625Z" fill="#444CFF"/>
<path fill-rule="evenodd" clip-rule="evenodd" d="M40.5569 22.123L28.6021 12.0878L28.6021 15.0528L38.2784 23.1754V70.4745H40.5569L40.5569 25.088L40.5569 22.1758L40.5569 22.123Z" fill="#00E6B8"/>
<path fill-rule="evenodd" clip-rule="evenodd" d="M47.3924 70.2293C44.5002 71.1944 41.4448 71.802 38.2785 72V69.4975C41.4585 69.2838 44.5169 68.6259 47.3924 67.5853V70.2293ZM64.7684 57.7024C69.3085 51.6719 72 44.1683 72 36.0355C72 16.1336 55.8823 0 36 0C16.1177 0 0 16.1336 0 36.0355C0 48.7035 6.5303 59.8448 16.4051 66.2703V63.2434C7.97856 57.152 2.49467 47.2348 2.49467 36.0355C2.49467 17.5128 17.4955 2.49714 36 2.49714C54.5045 2.49714 69.5053 17.5128 69.5053 36.0355C69.5053 43.5398 67.0431 50.4684 62.8833 56.0561L64.7684 57.7024ZM62.1888 60.7611L60.3075 59.1181C58.1242 61.421 55.6177 63.414 52.8608 65.0242V67.8825C56.351 66.0271 59.4999 63.6137 62.1888 60.7611ZM30.7595 71.6919C27.6509 71.2381 24.6711 70.3867 21.8734 69.1908V66.456C24.6498 67.75 27.6329 68.6744 30.7595 69.166V71.6919Z" fill="#444CFF"/>
<path fill-rule="evenodd" clip-rule="evenodd" d="M38.2784 72C41.4448 71.802 44.5002 71.1944 47.3924 70.2293V67.5853C44.5169 68.6259 41.4584 69.2838 38.2784 69.4975V72ZM60.3074 59.1181L62.1888 60.7611C59.4999 63.6137 56.3509 66.0271 52.8607 67.8825V65.0242C55.6177 63.414 58.1241 61.421 60.3074 59.1181Z" fill="#00E6B8"/>
</svg>
